<svg id="Wireframe v12 / Alert detail relationship graph" xmlns="http://www.w3.org/2000/svg" width="1920" height="1080" viewBox="0 0 1920 1080"><rect id="Background · dark" x="0.0" y="0.0" width="1920.0" height="1080.0" rx="0" fill="#09090B" stroke="none"/><g id="Sidebar · collapsible=icon · state=collapsed"><rect x="0.0" y="0.0" width="48.0" height="1080.0" rx="0" fill="#18181B" stroke="none"/><line x1="48.0" y1="0.0" x2="48.0" y2="1080.0" stroke="#27272A" stroke-width="1"/><g id="SidebarTrigger"><g id="Icon · lucide/panel-left"><rect x="18.0" y="18.0" width="12.0" height="12.0" rx="2.0" fill="none" stroke="#FAFAFA" stroke-width="1.5"/><line x1="22.0" y1="18.0" x2="22.0" y2="30.0" stroke="#FAFAFA" stroke-width="1.5" stroke-linecap="round"/></g></g><g id="Icon · lucide/layout-dashboard"><rect x="18.0" y="66.0" width="5.0" height="5.0" rx="1.0" fill="none" stroke="#A1A1AA" stroke-width="1.5"/><rect x="25.0" y="66.0" width="5.0" height="3.0" rx="1.0" fill="none" stroke="#A1A1AA" stroke-width="1.5"/><rect x="18.0" y="73.0" width="5.0" height="5.0" rx="1.0" fill="none" stroke="#A1A1AA" stroke-width="1.5"/><rect x="25.0" y="71.0" width="5.0" height="7.0" rx="1.0" fill="none" stroke="#A1A1AA" stroke-width="1.5"/></g><rect x="8.0" y="92.0" width="32.0" height="32.0" rx="6" fill="#27272A" stroke="none"/><g id="Icon · lucide/siren"><polyline points="20.0,111.0 20.0,108.0 21.0,104.0 24.0,102.0 27.0,104.0 28.0,108.0 28.0,111.0" fill="none" stroke="#FAFAFA" stroke-width="1.5" stroke-linecap="round" stroke-linejoin="round"/><line x1="18.0" y1="113.0" x2="30.0" y2="113.0" stroke="#FAFAFA" stroke-width="1.5" stroke-linecap="round"/><line x1="18.0" y1="106.0" x2="16.5" y2="105.0" stroke="#FAFAFA" stroke-width="1.5" stroke-linecap="round"/><line x1="30.0" y1="106.0" x2="31.5" y2="105.0" stroke="#FAFAFA" stroke-width="1.5" stroke-linecap="round"/></g><g id="Icon · lucide/folder-search"><polyline points="18.0,141.0 18.0,139.0 23.0,139.0 25.0,141.0 30.0,141.0 30.0,149.0 18.0,149.0 18.0,141.0" fill="none" stroke="#A1A1AA" stroke-width="1.5" stroke-linecap="round" stroke-linejoin="round"/><circle cx="24.0" cy="145.0" r="2.3" fill="none" stroke="#A1A1AA" stroke-width="1.5"/><line x1="25.7" y1="146.7" x2="27.5" y2="148.5" stroke="#A1A1AA" stroke-width="1.5" stroke-linecap="round"/></g><g id="Icon · lucide/bell"><polyline points="19.0,983.0 21.0,981.0 21.0,978.0 22.0,975.5 24.0,974.5 26.0,975.5 27.0,978.0 27.0,981.0 29.0,983.0 19.0,983.0" fill="none" stroke="#A1A1AA" stroke-width="1.5" stroke-linecap="round" stroke-linejoin="round"/><polyline points="22.5,985.0 24.0,986.0 25.5,985.0" fill="none" stroke="#A1A1AA" stroke-width="1.5" stroke-linecap="round" stroke-linejoin="round"/></g><g id="Icon · lucide/settings"><path id="GearTeeth" d="M22.7,1010.4 L23.2,1009.0 H24.8 L25.3,1010.4 L26.6,1010.9 L27.9,1010.3 L29.0,1011.4 L28.4,1012.7 L28.9,1014.0 L30.3,1014.5 V1017.5 L28.9,1018.0 L28.4,1019.3 L29.0,1020.6 L27.9,1021.7 L26.6,1021.1 L25.3,1021.6 L24.8,1023.0 H23.2 L22.7,1021.6 L21.4,1021.1 L20.1,1021.7 L19.0,1020.6 L19.6,1019.3 L19.1,1018.0 L17.7,1017.5 V1014.5 L19.1,1014.0 L19.6,1012.7 L19.0,1011.4 L20.1,1010.3 L21.4,1010.9 Z" fill="none" stroke="#A1A1AA" stroke-width="1.5" stroke-linecap="round" stroke-linejoin="round"/><circle cx="24.0" cy="1016.0" r="2.2" fill="none" stroke="#A1A1AA" stroke-width="1.5"/></g><g id="Icon · lucide/user"><circle cx="24.0" cy="1049.0" r="3.0" fill="none" stroke="#A1A1AA" stroke-width="1.5"/><polyline points="18.5,1058.0 19.5,1055.0 22.0,1053.5 26.0,1053.5 28.5,1055.0 29.5,1058.0" fill="none" stroke="#A1A1AA" stroke-width="1.5" stroke-linecap="round" stroke-linejoin="round"/></g></g><g id="Header · SidebarInset"><line x1="48.0" y1="48.0" x2="1920.0" y2="48.0" stroke="#27272A" stroke-width="1"/><rect x="60.0" y="8.0" width="32.0" height="32.0" rx="8" fill="#FAFAFA" stroke="none"/><g id="Icon · lucide/radar"><circle cx="76.0" cy="24.0" r="6.0" fill="none" stroke="#09090B" stroke-width="1.5"/><circle cx="76.0" cy="24.0" r="3.0" fill="none" stroke="#09090B" stroke-width="1.5"/><circle cx="76.0" cy="24.0" r="0.8" fill="none" stroke="#09090B" stroke-width="1.5"/><line x1="76.0" y1="24.0" x2="81.0" y2="19.0" stroke="#09090B" stroke-width="1.5" stroke-linecap="round"/><circle cx="80.0" cy="20.0" r="1.0" fill="none" stroke="#09090B" stroke-width="1.5"/></g><text x="100" y="29" font-family="Noto Sans KR" font-size="14" font-weight="600" fill="#FAFAFA" text-anchor="start">AML RADAR</text><g id="CommandDialogTrigger · GlobalSearch"><rect x="700.0" y="8.0" width="520.0" height="32.0" rx="8" fill="#09090B" stroke="#3F3F46" stroke-width="1"/><g id="Icon · lucide/search"><circle cx="717.0" cy="23.0" r="5.0" fill="none" stroke="#A1A1AA" stroke-width="1.5"/><line x1="720.8" y1="26.8" x2="724.5" y2="30.5" stroke="#A1A1AA" stroke-width="1.5" stroke-linecap="round"/></g><text x="734" y="29" font-family="Noto Sans KR" font-size="14" font-weight="400" fill="#A1A1AA" text-anchor="start">전역 검색</text></g><rect x="1178.0" y="14.0" width="30.0" height="20.0" rx="5" fill="#27272A" stroke="#27272A" stroke-width="1"/><text x="1193" y="28" font-family="Noto Sans KR" font-size="11" font-weight="600" fill="#A1A1AA" text-anchor="middle">/</text><rect x="1812.0" y="8.0" width="84.0" height="32.0" rx="8" fill="#09090B" stroke="#3F3F46" stroke-width="1"/><g id="Icon · lucide/maximize"><polyline points="1822.0,22.0 1822.0,18.0 1826.0,18.0" fill="none" stroke="#FAFAFA" stroke-width="1.5" stroke-linecap="round" stroke-linejoin="round"/><polyline points="1830.0,18.0 1834.0,18.0 1834.0,22.0" fill="none" stroke="#FAFAFA" stroke-width="1.5" stroke-linecap="round" stroke-linejoin="round"/><polyline points="1834.0,26.0 1834.0,30.0 1830.0,30.0" fill="none" stroke="#FAFAFA" stroke-width="1.5" stroke-linecap="round" stroke-linejoin="round"/><polyline points="1826.0,30.0 1822.0,30.0 1822.0,26.0" fill="none" stroke="#FAFAFA" stroke-width="1.5" stroke-linecap="round" stroke-linejoin="round"/></g><rect x="1846.0" y="14.0" width="38.0" height="20.0" rx="5" fill="#27272A" stroke="#27272A" stroke-width="1"/><text x="1865" y="28" font-family="Noto Sans KR" font-size="11" font-weight="500" fill="#A1A1AA" text-anchor="middle">F11</text><text x="1796" y="29" font-family="Noto Sans KR" font-size="14" font-weight="500" fill="#FAFAFA" text-anchor="end">오검토</text><g id="Avatar"><circle cx="1734.1" cy="24.0" r="14.0" fill="#27272A"/><text x="1734" y="28" font-family="Noto Sans KR" font-size="12" font-weight="500" fill="#FAFAFA" text-anchor="middle">오</text></g><g id="Badge · variant=outline · L1"><rect x="1678.8" y="14.0" width="27.3" height="20.0" rx="10" fill="#FFFFFF" stroke="#D4D4D8" stroke-width="1"/><text x="1687" y="28" font-family="Noto Sans KR" font-size="12" font-weight="500" fill="#18181B" text-anchor="start">L1</text></g><text x="1671" y="29" font-family="Noto Sans KR" font-size="14" font-weight="400" fill="#A1A1AA" text-anchor="end">역할</text><g id="Badge · variant=default · 53"><rect x="1591.9" y="14.0" width="30.9" height="20.0" rx="10" fill="#27272A" stroke="#27272A" stroke-width="1"/><text x="1600" y="28" font-family="Noto Sans KR" font-size="12" font-weight="500" fill="#FFFFFF" text-anchor="start">53</text></g><text x="1584" y="29" font-family="Noto Sans KR" font-size="14" font-weight="400" fill="#A1A1AA" text-anchor="end">내 할 일</text></g><g id="PageHeader"><g id="Breadcrumb"><text x="72" y="87" font-family="Noto Sans KR" font-size="14" font-weight="400" fill="#A1A1AA" text-anchor="start">ALERTS</text><g id="Icon · lucide/chevron-right"><polyline fill="none" stroke="#A1A1AA" stroke-width="1.5" stroke-linecap="round" stroke-linejoin="round" points="135.3,78.5 138.8,82.0 135.3,85.5"/></g><text x="150" y="87" font-family="Noto Sans KR" font-size="14" font-weight="400" fill="#FAFAFA" text-anchor="start">AL-000241</text></g><text x="72" y="128" font-family="Noto Sans KR" font-size="26" font-weight="600" fill="#FAFAFA" text-anchor="start">AL-000241</text><text x="72" y="160" font-family="Noto Sans KR" font-size="14" font-weight="400" fill="#A1A1AA" text-anchor="start">관계망에서 거래 방향·금액·위험도 검토</text><g id="Badge · variant=outline · 미처리"><rect x="319.2" y="146.0" width="50.2" height="20.0" rx="10" fill="#FFFFFF" stroke="#D4D4D8" stroke-width="1"/><text x="327" y="160" font-family="Noto Sans KR" font-size="12" font-weight="500" fill="#18181B" text-anchor="start">미처리</text></g><g id="Button · variant=default · size=default · Episode로 조사"><rect x="1780.7" y="100.0" width="115.3" height="32.0" rx="8" fill="#FAFAFA" stroke="#FAFAFA" stroke-width="1"/><text x="1791" y="121" font-family="Noto Sans KR" font-size="14" font-weight="500" fill="#18181B" text-anchor="start">Episode로 조사</text></g><g id="Button · variant=outline · size=default · 오탐 종결"><rect x="1695.0" y="100.0" width="77.7" height="32.0" rx="8" fill="#09090B" stroke="#3F3F46" stroke-width="1"/><text x="1705" y="121" font-family="Noto Sans KR" font-size="14" font-weight="500" fill="#FAFAFA" text-anchor="start">오탐 종결</text></g><g id="Button · variant=outline · size=default · 정상 종결"><rect x="1609.3" y="100.0" width="77.7" height="32.0" rx="8" fill="#09090B" stroke="#3F3F46" stroke-width="1"/><text x="1619" y="121" font-family="Noto Sans KR" font-size="14" font-weight="500" fill="#FAFAFA" text-anchor="start">정상 종결</text></g><line x1="72.0" y1="180.0" x2="1896.0" y2="180.0" stroke="#27272A" stroke-width="1"/></g><g id="Tabs · text-only · bottom-indicator"><text x="115" y="207" font-family="Noto Sans KR" font-size="13" font-weight="400" fill="#A1A1AA" text-anchor="middle">개요</text><text x="212" y="207" font-family="Noto Sans KR" font-size="13" font-weight="650" fill="#FAFAFA" text-anchor="middle">관계 그래프</text><rect id="TabIndicator · bottom-only · 4px" x="174.0" y="223.0" width="75.9" height="4.0" rx="1" fill="#FAFAFA" stroke="none"/><text x="309" y="207" font-family="Noto Sans KR" font-size="13" font-weight="400" fill="#A1A1AA" text-anchor="middle">거래</text></g><g id="GraphSettings · left"><rect x="72.0" y="244.0" width="300.0" height="778.0" rx="10" fill="#09090B" stroke="#27272A" stroke-width="1"/><text x="90" y="274" font-family="Noto Sans KR" font-size="17" font-weight="650" fill="#FAFAFA" text-anchor="start">그래프 설정</text><text x="90" y="316" font-family="Noto Sans KR" font-size="12" font-weight="600" fill="#A1A1AA" text-anchor="start">라벨 표시</text><rect x="90.0" y="332.0" width="264.0" height="36.0" rx="8" fill="#18181B" stroke="#27272A" stroke-width="1"/><text x="146" y="355" font-family="Noto Sans KR" font-size="12" font-weight="400" fill="#A1A1AA" text-anchor="middle">호버 시 표시</text><rect x="252.0" y="335.0" width="98.0" height="30.0" rx="6" fill="#09090B" stroke="#27272A" stroke-width="1"/><text x="301" y="355" font-family="Noto Sans KR" font-size="12" font-weight="650" fill="#FAFAFA" text-anchor="middle">항상 표시</text><text x="90" y="414" font-family="Noto Sans KR" font-size="12" font-weight="600" fill="#A1A1AA" text-anchor="start">위험도 범례</text><text x="354" y="414" font-family="Noto Sans KR" font-size="11" font-weight="500" fill="#A1A1AA" text-anchor="end">모두 표시</text><g id="Checkbox · checked=true"><rect x="90.0" y="437.0" width="16.0" height="16.0" rx="4" fill="#FAFAFA" stroke="#FAFAFA" stroke-width="1"/><g id="Icon · lucide/check"><polyline fill="none" stroke="#FFFFFF" stroke-width="1.5" stroke-linecap="round" stroke-linejoin="round" points="94.2,445.4 96.9,448.0 101.8,442.4"/></g></g><path d="M 94 445 l4 4 l7 -8" fill="none" stroke="#09090B" stroke-width="2.2" stroke-linecap="round" stroke-linejoin="round"/><circle cx="126" cy="445" r="7" fill="#FF5A5F"/><text x="142" y="450" font-family="Noto Sans KR" font-size="12" font-weight="550" fill="#FAFAFA" text-anchor="start">고위험</text><g id="Checkbox · checked=true"><rect x="90.0" y="479.0" width="16.0" height="16.0" rx="4" fill="#FAFAFA" stroke="#FAFAFA" stroke-width="1"/><g id="Icon · lucide/check"><polyline fill="none" stroke="#FFFFFF" stroke-width="1.5" stroke-linecap="round" stroke-linejoin="round" points="94.2,487.4 96.9,490.0 101.8,484.4"/></g></g><path d="M 94 487 l4 4 l7 -8" fill="none" stroke="#09090B" stroke-width="2.2" stroke-linecap="round" stroke-linejoin="round"/><circle cx="126" cy="487" r="7" fill="#FFD447"/><text x="142" y="492" font-family="Noto Sans KR" font-size="12" font-weight="550" fill="#FAFAFA" text-anchor="start">중위험</text><g id="Checkbox · checked=true"><rect x="90.0" y="521.0" width="16.0" height="16.0" rx="4" fill="#FAFAFA" stroke="#FAFAFA" stroke-width="1"/><g id="Icon · lucide/check"><polyline fill="none" stroke="#FFFFFF" stroke-width="1.5" stroke-linecap="round" stroke-linejoin="round" points="94.2,529.4 96.9,532.0 101.8,526.4"/></g></g><path d="M 94 529 l4 4 l7 -8" fill="none" stroke="#09090B" stroke-width="2.2" stroke-linecap="round" stroke-linejoin="round"/><circle cx="126" cy="529" r="7" fill="#55F66B"/><text x="142" y="534" font-family="Noto Sans KR" font-size="12" font-weight="550" fill="#FAFAFA" text-anchor="start">저위험</text><text x="90" y="592" font-family="Noto Sans KR" font-size="12" font-weight="600" fill="#A1A1AA" text-anchor="start">표시 범위 (홉)</text><text x="90" y="617" font-family="Noto Sans KR" font-size="11" font-weight="400" fill="#A1A1AA" text-anchor="start">노드를 선택하면 활성화됨.</text><g id="HopSlider · disabled · no-node-selected" opacity="0.42"><line x1="98.0" y1="662.0" x2="346.0" y2="662.0" stroke="#52525B" stroke-width="4"/><circle cx="98.0" cy="662" r="10" fill="#FAFAFA"/><text x="98" y="694" font-family="Noto Sans KR" font-size="11" font-weight="500" fill="#A1A1AA" text-anchor="middle">1(기본)</text><circle cx="180.66666666666669" cy="662" r="5" fill="#71717A"/><text x="181" y="694" font-family="Noto Sans KR" font-size="11" font-weight="500" fill="#A1A1AA" text-anchor="middle">2</text><circle cx="263.33333333333337" cy="662" r="5" fill="#71717A"/><text x="263" y="694" font-family="Noto Sans KR" font-size="11" font-weight="500" fill="#A1A1AA" text-anchor="middle">3</text><circle cx="346.0" cy="662" r="5" fill="#71717A"/><text x="346" y="694" font-family="Noto Sans KR" font-size="11" font-weight="500" fill="#A1A1AA" text-anchor="middle">4(최대)</text></g><text x="90" y="744" font-family="Noto Sans KR" font-size="11" font-weight="650" fill="#FAFAFA" text-anchor="start">현재 상태 · 연결 선택</text><text x="90" y="768" font-family="Noto Sans KR" font-size="10" font-weight="400" fill="#A1A1AA" text-anchor="start">기본: 무테두리 · 상세 닫힘</text><text x="90" y="790" font-family="Noto Sans KR" font-size="10" font-weight="400" fill="#A1A1AA" text-anchor="start">노드: outline · 홉 활성</text><text x="90" y="812" font-family="Noto Sans KR" font-size="10" font-weight="400" fill="#A1A1AA" text-anchor="start">연결: edge 강조 · 상세 열림</text><text x="90" y="834" font-family="Noto Sans KR" font-size="10" font-weight="650" fill="#FAFAFA" text-anchor="start">노드/연결 선택은 상호배타</text></g><g id="RelationshipGraph · center"><rect x="384.0" y="244.0" width="1070.0" height="778.0" rx="10" fill="#09090B" stroke="#27272A" stroke-width="1"/><g id="Input"><rect x="402.0" y="262.0" width="952.0" height="32.0" rx="8" fill="#09090B" stroke="#3F3F46" stroke-width="1"/><g id="Icon · lucide/search"><circle cx="419.0" cy="277.0" r="5.0" fill="none" stroke="#A1A1AA" stroke-width="1.5"/><line x1="422.8" y1="280.8" x2="426.5" y2="284.5" stroke="#A1A1AA" stroke-width="1.5" stroke-linecap="round"/></g><text x="436" y="283" font-family="Noto Sans KR" font-size="14" font-weight="400" fill="#A1A1AA" text-anchor="start">계좌 검색</text></g><g id="GraphControl · resize-to-fit"><rect x="1368.0" y="262.0" width="32.0" height="28.0" rx="8" fill="#09090B" stroke="#3F3F46" stroke-width="1"/></g><path d="M 1376 275 h5 v-5 M 1392 275 h-5 v-5 M 1376 281 h5 v5 M 1392 281 h-5 v5" fill="none" stroke="#FAFAFA" stroke-width="1.7" stroke-linecap="round" stroke-linejoin="round"/><g id="GraphControl · fullscreen"><rect x="1404.0" y="262.0" width="32.0" height="28.0" rx="8" fill="#09090B" stroke="#3F3F46" stroke-width="1"/><g id="Icon · lucide/maximize"><polyline points="1414.0,274.0 1414.0,270.0 1418.0,270.0" fill="none" stroke="#FAFAFA" stroke-width="1.5" stroke-linecap="round" stroke-linejoin="round"/><polyline points="1422.0,270.0 1426.0,270.0 1426.0,274.0" fill="none" stroke="#FAFAFA" stroke-width="1.5" stroke-linecap="round" stroke-linejoin="round"/><polyline points="1426.0,278.0 1426.0,282.0 1422.0,282.0" fill="none" stroke="#FAFAFA" stroke-width="1.5" stroke-linecap="round" stroke-linejoin="round"/><polyline points="1418.0,282.0 1414.0,282.0 1414.0,278.0" fill="none" stroke="#FAFAFA" stroke-width="1.5" stroke-linecap="round" stroke-linejoin="round"/></g></g><text x="402" y="319" font-family="Noto Sans KR" font-size="10" font-weight="600" fill="#A1A1AA" text-anchor="start">상태 · 연결 선택 · 노드 선택 없음</text><g id="NetworkEdge · 0 · kind=a · amount-width=12"><line id="ClickableAggregateEdge · 0" x1="474" y1="484" x2="909" y2="649" stroke="transparent" stroke-width="34" style="cursor:pointer"/><line x1="474" y1="484" x2="909" y2="649" stroke="#55F66B" stroke-width="12" stroke-linecap="round"/><rect x="690.5" y="544.0" width="97.1" height="24.0" rx="5" fill="#55F66B" stroke="#55F66B" stroke-width="1"/><text x="739" y="560" font-family="Noto Sans KR" font-size="10" font-weight="700" fill="#09090B" text-anchor="middle">12건 · USD 688K</text></g><g id="NetworkEdge · 1 · kind=s · amount-width=2"><line x1="484" y1="644" x2="909" y2="649" stroke="#FFD447" stroke-width="2"/></g><g id="NetworkEdge · 2 · kind=a · amount-width=22"><line id="ClickableAggregateEdge · 2" x1="504" y1="814" x2="909" y2="649" stroke="transparent" stroke-width="34" style="cursor:pointer"/><line id="SelectedEdge · edge-selected=true · node-selected=false" x1="504" y1="814" x2="909" y2="649" stroke="#FAFAFA" stroke-width="29" stroke-linecap="round"/><line x1="504" y1="814" x2="909" y2="649" stroke="#FF5A5F" stroke-width="22" stroke-linecap="round"/><rect x="687.0" y="732.0" width="94.1" height="24.0" rx="5" fill="#FF5A5F" stroke="#FF5A5F" stroke-width="1"/><text x="734" y="748" font-family="Noto Sans KR" font-size="10" font-weight="700" fill="#09090B" text-anchor="middle">18건 · USD 2.4M</text></g><g id="NetworkEdge · 3 · kind=d · amount-width=6"><path d="M 658.6 532.9 Q 796.0 561.4 913.6 637.9" fill="none" stroke="#FF5A5F" stroke-width="6"/><path d="M 904.4 660.1 Q 767.0 631.6 649.4 555.1" fill="none" stroke="#FF5A5F" stroke-width="6"/><rect x="742.5" y="582.0" width="90.9" height="24.0" rx="5" fill="#FF5A5F" stroke="#FF5A5F" stroke-width="1"/><text x="788" y="598" font-family="Noto Sans KR" font-size="10" font-weight="700" fill="#09090B" text-anchor="middle">2건 · USD 410K</text></g><g id="NetworkEdge · 4 · kind=d · amount-width=6"><path d="M 899.7 641.4 Q 954.5 532.6 1049.7 456.4" fill="none" stroke="#FFD447" stroke-width="6"/><path d="M 1068.3 471.6 Q 1013.5 580.4 918.3 656.6" fill="none" stroke="#FFD447" stroke-width="6"/><rect x="973.5" y="542.0" width="90.9" height="24.0" rx="5" fill="#FFD447" stroke="#FFD447" stroke-width="1"/><text x="1019" y="558" font-family="Noto Sans KR" font-size="10" font-weight="700" fill="#09090B" text-anchor="middle">2건 · USD 190K</text></g><g id="NetworkEdge · 5 · kind=a · amount-width=22"><line id="ClickableAggregateEdge · 5" x1="909" y1="649" x2="1174" y2="389" stroke="transparent" stroke-width="34" style="cursor:pointer"/><line x1="909" y1="649" x2="1174" y2="389" stroke="#FF5A5F" stroke-width="22" stroke-linecap="round"/><rect x="1017.0" y="507.0" width="94.1" height="24.0" rx="5" fill="#FF5A5F" stroke="#FF5A5F" stroke-width="1"/><text x="1064" y="523" font-family="Noto Sans KR" font-size="10" font-weight="700" fill="#09090B" text-anchor="middle">16건 · USD 3.2M</text></g><g id="NetworkEdge · 6 · kind=s · amount-width=2"><line x1="909" y1="649" x2="1169" y2="564" stroke="#55F66B" stroke-width="2"/></g><g id="NetworkEdge · 7 · kind=a · amount-width=12"><line id="ClickableAggregateEdge · 7" x1="909" y1="649" x2="1174" y2="744" stroke="transparent" stroke-width="34" style="cursor:pointer"/><line x1="909" y1="649" x2="1174" y2="744" stroke="#FF5A5F" stroke-width="12" stroke-linecap="round"/><rect x="1036.5" y="692.0" width="84.9" height="24.0" rx="5" fill="#FF5A5F" stroke="#FF5A5F" stroke-width="1"/><text x="1079" y="708" font-family="Noto Sans KR" font-size="10" font-weight="700" fill="#09090B" text-anchor="middle">8건 · USD 1.1M</text></g><g id="NetworkEdge · 8 · kind=d · amount-width=6"><path d="M 920.9 647.7 Q 959.3 759.9 945.9 877.7" fill="none" stroke="#FFD447" stroke-width="6"/><path d="M 922.1 880.3 Q 883.7 768.1 897.1 650.3" fill="none" stroke="#FFD447" stroke-width="6"/><rect x="895.0" y="780.0" width="93.9" height="24.0" rx="5" fill="#FFD447" stroke="#FFD447" stroke-width="1"/><text x="942" y="796" font-family="Noto Sans KR" font-size="10" font-weight="700" fill="#09090B" text-anchor="middle">2건 · USD 250K</text></g><g id="NetworkEdge · 9 · kind=a · amount-width=12"><line id="ClickableAggregateEdge · 9" x1="909" y1="649" x2="1004" y2="969" stroke="transparent" stroke-width="34" style="cursor:pointer"/><line x1="909" y1="649" x2="1004" y2="969" stroke="#FF5A5F" stroke-width="12" stroke-linecap="round"/><rect x="936.5" y="824.0" width="90.9" height="24.0" rx="5" fill="#FF5A5F" stroke="#FF5A5F" stroke-width="1"/><text x="982" y="840" font-family="Noto Sans KR" font-size="10" font-weight="700" fill="#09090B" text-anchor="middle">7건 · USD 910K</text></g><g id="NetworkEdge · 10 · kind=s · amount-width=2"><line x1="629" y1="389" x2="474" y2="484" stroke="#55F66B" stroke-width="2"/><text x="552" y="432" font-family="Noto Sans KR" font-size="8" font-weight="650" fill="#55F66B" text-anchor="middle">1건</text></g><g id="NetworkEdge · 11 · kind=s · amount-width=2"><line x1="629" y1="389" x2="654" y2="544" stroke="#FFD447" stroke-width="2"/><text x="642" y="462" font-family="Noto Sans KR" font-size="8" font-weight="650" fill="#FFD447" text-anchor="middle">1건</text></g><g id="NetworkEdge · 12 · kind=s · amount-width=2"><line x1="474" y1="484" x2="654" y2="544" stroke="#55F66B" stroke-width="2"/><text x="564" y="509" font-family="Noto Sans KR" font-size="8" font-weight="650" fill="#55F66B" text-anchor="middle">1건</text></g><g id="NetworkEdge · 13 · kind=s · amount-width=2"><line x1="484" y1="644" x2="654" y2="544" stroke="#FFD447" stroke-width="2"/><text x="569" y="589" font-family="Noto Sans KR" font-size="8" font-weight="650" fill="#FFD447" text-anchor="middle">1건</text></g><g id="NetworkEdge · 14 · kind=d · amount-width=6"><path d="M 490.2 633.7 Q 591.1 663.9 665.2 738.7" fill="none" stroke="#FF5A5F" stroke-width="6"/><path d="M 652.8 759.3 Q 551.9 729.1 477.8 654.3" fill="none" stroke="#FF5A5F" stroke-width="6"/><text x="572" y="692" font-family="Noto Sans KR" font-size="8" font-weight="650" fill="#FF5A5F" text-anchor="middle">2건</text></g><g id="NetworkEdge · 15 · kind=s · amount-width=2"><line x1="504" y1="814" x2="659" y2="749" stroke="#FF5A5F" stroke-width="2"/><text x="582" y="776" font-family="Noto Sans KR" font-size="8" font-weight="650" fill="#FF5A5F" text-anchor="middle">1건</text></g><g id="NetworkEdge · 16 · kind=s · amount-width=2"><line x1="659" y1="749" x2="619" y2="924" stroke="#55F66B" stroke-width="2"/><text x="639" y="832" font-family="Noto Sans KR" font-size="8" font-weight="650" fill="#55F66B" text-anchor="middle">1건</text></g><g id="NetworkEdge · 17 · kind=s · amount-width=2"><line x1="504" y1="814" x2="619" y2="924" stroke="#FFD447" stroke-width="2"/><text x="562" y="864" font-family="Noto Sans KR" font-size="8" font-weight="650" fill="#FFD447" text-anchor="middle">1건</text></g><g id="NetworkEdge · 18 · kind=s · amount-width=2"><line x1="804" y1="369" x2="949" y2="364" stroke="#55F66B" stroke-width="2"/><text x="876" y="362" font-family="Noto Sans KR" font-size="8" font-weight="650" fill="#55F66B" text-anchor="middle">1건</text></g><g id="NetworkEdge · 19 · kind=s · amount-width=2"><line x1="949" y1="364" x2="1059" y2="464" stroke="#55F66B" stroke-width="2"/><text x="1004" y="409" font-family="Noto Sans KR" font-size="8" font-weight="650" fill="#55F66B" text-anchor="middle">1건</text></g><g id="NetworkEdge · 20 · kind=d · amount-width=6"><path d="M 815.2 364.8 Q 892.1 495.7 920.2 644.8" fill="none" stroke="#FFD447" stroke-width="6"/><path d="M 897.8 653.2 Q 820.9 522.3 792.8 373.2" fill="none" stroke="#FFD447" stroke-width="6"/><text x="856" y="504" font-family="Noto Sans KR" font-size="8" font-weight="650" fill="#FFD447" text-anchor="middle">2건</text></g><g id="NetworkEdge · 21 · kind=s · amount-width=2"><line x1="1174" y1="389" x2="1324" y2="479" stroke="#FF5A5F" stroke-width="2"/><text x="1249" y="429" font-family="Noto Sans KR" font-size="8" font-weight="650" fill="#FF5A5F" text-anchor="middle">1건</text></g><g id="NetworkEdge · 22 · kind=s · amount-width=2"><line x1="1324" y1="479" x2="1169" y2="564" stroke="#FFD447" stroke-width="2"/><text x="1246" y="516" font-family="Noto Sans KR" font-size="8" font-weight="650" fill="#FFD447" text-anchor="middle">1건</text></g><g id="NetworkEdge · 23 · kind=s · amount-width=2"><line x1="1169" y1="564" x2="1334" y2="659" stroke="#55F66B" stroke-width="2"/><text x="1252" y="606" font-family="Noto Sans KR" font-size="8" font-weight="650" fill="#55F66B" text-anchor="middle">1건</text></g><g id="NetworkEdge · 24 · kind=d · amount-width=6"><path d="M 1339.6 669.6 Q 1271.8 735.1 1179.6 754.6" fill="none" stroke="#FF5A5F" stroke-width="6"/><path d="M 1168.4 733.4 Q 1236.2 667.9 1328.4 648.4" fill="none" stroke="#FF5A5F" stroke-width="6"/><text x="1254" y="696" font-family="Noto Sans KR" font-size="8" font-weight="650" fill="#FF5A5F" text-anchor="middle">2건</text></g><g id="NetworkEdge · 25 · kind=s · amount-width=2"><line x1="1174" y1="744" x2="1314" y2="854" stroke="#55F66B" stroke-width="2"/><text x="1244" y="794" font-family="Noto Sans KR" font-size="8" font-weight="650" fill="#55F66B" text-anchor="middle">1건</text></g><g id="NetworkEdge · 26 · kind=s · amount-width=2"><line x1="1314" y1="854" x2="1124" y2="924" stroke="#FFD447" stroke-width="2"/><text x="1219" y="884" font-family="Noto Sans KR" font-size="8" font-weight="650" fill="#FFD447" text-anchor="middle">1건</text></g><g id="NetworkEdge · 27 · kind=s · amount-width=2"><line x1="1174" y1="744" x2="1124" y2="924" stroke="#FF5A5F" stroke-width="2"/><text x="1149" y="829" font-family="Noto Sans KR" font-size="8" font-weight="650" fill="#FF5A5F" text-anchor="middle">1건</text></g><g id="NetworkEdge · 28 · kind=s · amount-width=2"><line x1="789" y1="934" x2="934" y2="879" stroke="#55F66B" stroke-width="2"/><text x="862" y="902" font-family="Noto Sans KR" font-size="8" font-weight="650" fill="#55F66B" text-anchor="middle">1건</text></g><g id="NetworkEdge · 29 · kind=s · amount-width=2"><line x1="934" y1="879" x2="1004" y2="969" stroke="#FFD447" stroke-width="2"/><text x="969" y="919" font-family="Noto Sans KR" font-size="8" font-weight="650" fill="#FFD447" text-anchor="middle">1건</text></g><g id="GraphNode · risk=high · selected=false · no-default-outline"><circle cx="909" cy="649" r="25" fill="#FF5A5F"/><text x="909" y="697" font-family="Noto Sans KR" font-size="11" font-weight="600" fill="#FAFAFA" text-anchor="middle">HUB</text></g><g id="GraphNode · risk=low · selected=false · no-default-outline"><circle cx="474" cy="484" r="25" fill="#55F66B"/><text x="474" y="532" font-family="Noto Sans KR" font-size="11" font-weight="600" fill="#FAFAFA" text-anchor="middle">A01</text></g><g id="GraphNode · risk=medium · selected=false · no-default-outline"><circle cx="484" cy="644" r="25" fill="#FFD447"/><text x="484" y="692" font-family="Noto Sans KR" font-size="11" font-weight="600" fill="#FAFAFA" text-anchor="middle">A02</text></g><g id="GraphNode · risk=high · selected=false · no-default-outline"><circle cx="504" cy="814" r="25" fill="#FF5A5F"/><text x="504" y="862" font-family="Noto Sans KR" font-size="11" font-weight="600" fill="#FAFAFA" text-anchor="middle">A03</text></g><g id="GraphNode · risk=low · selected=false · no-default-outline"><circle cx="629" cy="389" r="25" fill="#55F66B"/><text x="629" y="437" font-family="Noto Sans KR" font-size="11" font-weight="600" fill="#FAFAFA" text-anchor="middle">A04</text></g><g id="GraphNode · risk=medium · selected=false · no-default-outline"><circle cx="654" cy="544" r="25" fill="#FFD447"/><text x="654" y="592" font-family="Noto Sans KR" font-size="11" font-weight="600" fill="#FAFAFA" text-anchor="middle">A05</text></g><g id="GraphNode · risk=high · selected=false · no-default-outline"><circle cx="659" cy="749" r="25" fill="#FF5A5F"/><text x="659" y="797" font-family="Noto Sans KR" font-size="11" font-weight="600" fill="#FAFAFA" text-anchor="middle">A06</text></g><g id="GraphNode · risk=low · selected=false · no-default-outline"><circle cx="619" cy="924" r="25" fill="#55F66B"/><text x="619" y="972" font-family="Noto Sans KR" font-size="11" font-weight="600" fill="#FAFAFA" text-anchor="middle">A07</text></g><g id="GraphNode · risk=medium · selected=false · no-default-outline"><circle cx="804" cy="369" r="25" fill="#FFD447"/><text x="804" y="417" font-family="Noto Sans KR" font-size="11" font-weight="600" fill="#FAFAFA" text-anchor="middle">B01</text></g><g id="GraphNode · risk=low · selected=false · no-default-outline"><circle cx="949" cy="364" r="25" fill="#55F66B"/><text x="949" y="412" font-family="Noto Sans KR" font-size="11" font-weight="600" fill="#FAFAFA" text-anchor="middle">B02</text></g><g id="GraphNode · risk=high · selected=false · no-default-outline"><circle cx="1059" cy="464" r="25" fill="#FF5A5F"/><text x="1059" y="512" font-family="Noto Sans KR" font-size="11" font-weight="600" fill="#FAFAFA" text-anchor="middle">B03</text></g><g id="GraphNode · risk=high · selected=false · no-default-outline"><circle cx="1174" cy="389" r="25" fill="#FF5A5F"/><text x="1174" y="437" font-family="Noto Sans KR" font-size="11" font-weight="600" fill="#FAFAFA" text-anchor="middle">C01</text></g><g id="GraphNode · risk=medium · selected=false · no-default-outline"><circle cx="1324" cy="479" r="25" fill="#FFD447"/><text x="1324" y="527" font-family="Noto Sans KR" font-size="11" font-weight="600" fill="#FAFAFA" text-anchor="middle">C02</text></g><g id="GraphNode · risk=low · selected=false · no-default-outline"><circle cx="1169" cy="564" r="25" fill="#55F66B"/><text x="1169" y="612" font-family="Noto Sans KR" font-size="11" font-weight="600" fill="#FAFAFA" text-anchor="middle">C03</text></g><g id="GraphNode · risk=medium · selected=false · no-default-outline"><circle cx="1334" cy="659" r="25" fill="#FFD447"/><text x="1334" y="707" font-family="Noto Sans KR" font-size="11" font-weight="600" fill="#FAFAFA" text-anchor="middle">C04</text></g><g id="GraphNode · risk=high · selected=false · no-default-outline"><circle cx="1174" cy="744" r="25" fill="#FF5A5F"/><text x="1174" y="792" font-family="Noto Sans KR" font-size="11" font-weight="600" fill="#FAFAFA" text-anchor="middle">C05</text></g><g id="GraphNode · risk=low · selected=false · no-default-outline"><circle cx="1314" cy="854" r="25" fill="#55F66B"/><text x="1314" y="902" font-family="Noto Sans KR" font-size="11" font-weight="600" fill="#FAFAFA" text-anchor="middle">C06</text></g><g id="GraphNode · risk=medium · selected=false · no-default-outline"><circle cx="1124" cy="924" r="25" fill="#FFD447"/><text x="1124" y="972" font-family="Noto Sans KR" font-size="11" font-weight="600" fill="#FAFAFA" text-anchor="middle">C07</text></g><g id="GraphNode · risk=low · selected=false · no-default-outline"><circle cx="789" cy="934" r="25" fill="#55F66B"/><text x="789" y="982" font-family="Noto Sans KR" font-size="11" font-weight="600" fill="#FAFAFA" text-anchor="middle">D01</text></g><g id="GraphNode · risk=medium · selected=false · no-default-outline"><circle cx="934" cy="879" r="25" fill="#FFD447"/><text x="934" y="927" font-family="Noto Sans KR" font-size="11" font-weight="600" fill="#FAFAFA" text-anchor="middle">D02</text></g><g id="GraphNode · risk=high · selected=false · no-default-outline"><circle cx="1004" cy="969" r="25" fill="#FF5A5F"/><text x="1004" y="1017" font-family="Noto Sans KR" font-size="11" font-weight="600" fill="#FAFAFA" text-anchor="middle">D03</text></g><g id="Arrowheads · foreground · exact centers"><polygon id="Arrowhead · 0-start · tip-at-node-center" points="474,484 502.7,481.6 493.9,504.9" fill="#55F66B"/><polygon id="Arrowhead · 0-end · tip-at-node-center" points="909,649 880.3,651.4 889.1,628.1" fill="#55F66B"/><polygon id="Arrowhead · 1 · tip-at-node-center" points="909,649 892.9,656.5 893.1,641.1" fill="#FFD447"/><polygon id="Arrowhead · 2-start · tip-at-node-center" points="504,814 523.4,792.6 532.8,815.7" fill="#FF5A5F"/><polygon id="Arrowhead · 2-end · tip-at-node-center" points="909,649 889.6,670.4 880.2,647.3" fill="#FF5A5F"/><polygon id="Arrowhead · 3-0 · tip-at-node-center" points="913.5689976630515,637.9038628183034 893.8,635.3 903.2,620.8" fill="#FF5A5F"/><polygon id="Arrowhead · 3-1 · tip-at-node-center" points="649.4310023369485,555.0961371816966 669.2,557.7 659.8,572.2" fill="#FF5A5F"/><polygon id="Arrowhead · 4-0 · tip-at-node-center" points="1049.678931015366,456.44237649894535 1041.0,474.4 1030.2,460.9" fill="#FFD447"/><polygon id="Arrowhead · 4-1 · tip-at-node-center" points="918.321068984634,656.5576235010546 927.0,638.6 937.8,652.1" fill="#FFD447"/><polygon id="Arrowhead · 5-start · tip-at-node-center" points="909,649 918.8,621.9 936.3,639.7" fill="#FF5A5F"/><polygon id="Arrowhead · 5-end · tip-at-node-center" points="1174,389 1164.2,416.1 1146.7,398.3" fill="#FF5A5F"/><polygon id="Arrowhead · 6 · tip-at-node-center" points="1169,564 1156.2,576.3 1151.4,561.7" fill="#55F66B"/><polygon id="Arrowhead · 7-start · tip-at-node-center" points="909,649 937.7,646.0 929.3,669.5" fill="#FF5A5F"/><polygon id="Arrowhead · 7-end · tip-at-node-center" points="1174,744 1145.3,747.0 1153.7,723.5" fill="#FF5A5F"/><polygon id="Arrowhead · 8-0 · tip-at-node-center" points="945.9297335568335,877.703289830779 939.4,858.8 956.5,860.8" fill="#FFD447"/><polygon id="Arrowhead · 8-1 · tip-at-node-center" points="897.0702664431665,650.296710169221 903.6,669.2 886.5,667.2" fill="#FFD447"/><polygon id="Arrowhead · 9-start · tip-at-node-center" points="909,649 928.4,670.4 904.4,677.5" fill="#FF5A5F"/><polygon id="Arrowhead · 9-end · tip-at-node-center" points="1004,969 984.6,947.6 1008.6,940.5" fill="#FF5A5F"/><polygon id="Arrowhead · 10 · tip-at-node-center" points="474,484 483.6,469.1 491.7,482.2" fill="#55F66B"/><polygon id="Arrowhead · 11 · tip-at-node-center" points="654,544 643.9,529.4 659.0,527.0" fill="#FFD447"/><polygon id="Arrowhead · 12 · tip-at-node-center" points="654,544 636.4,546.2 641.2,531.7" fill="#55F66B"/><polygon id="Arrowhead · 13 · tip-at-node-center" points="654,544 644.1,558.7 636.3,545.5" fill="#FFD447"/><polygon id="Arrowhead · 14-0 · tip-at-node-center" points="665.1739490651303,738.7100848914495 646.4,732.0 658.6,719.8" fill="#FF5A5F"/><polygon id="Arrowhead · 14-1 · tip-at-node-center" points="477.82605093486967,654.2899151085505 496.6,661.0 484.4,673.2" fill="#FF5A5F"/><polygon id="Arrowhead · 15 · tip-at-node-center" points="659,749 647.2,762.3 641.3,748.1" fill="#FF5A5F"/><polygon id="Arrowhead · 16 · tip-at-node-center" points="619,924 615.1,906.7 630.1,910.1" fill="#55F66B"/><polygon id="Arrowhead · 17 · tip-at-node-center" points="619,924 602.1,918.5 612.7,907.4" fill="#FFD447"/><polygon id="Arrowhead · 18 · tip-at-node-center" points="949,364 933.3,372.2 932.7,356.9" fill="#55F66B"/><polygon id="Arrowhead · 19 · tip-at-node-center" points="1059,464 1042.0,458.9 1052.3,447.6" fill="#55F66B"/><polygon id="Arrowhead · 20-0 · tip-at-node-center" points="920.2359501308285,644.7865187009393 908.4,628.7 925.4,625.5" fill="#FFD447"/><polygon id="Arrowhead · 20-1 · tip-at-node-center" points="792.7640498691715,373.2134812990607 804.6,389.3 787.6,392.5" fill="#FFD447"/><polygon id="Arrowhead · 21 · tip-at-node-center" points="1324,479 1306.3,477.4 1314.2,464.2" fill="#FF5A5F"/><polygon id="Arrowhead · 22 · tip-at-node-center" points="1169,564 1179.3,549.6 1186.7,563.0" fill="#FFD447"/><polygon id="Arrowhead · 23 · tip-at-node-center" points="1334,659 1316.3,657.7 1324.0,644.4" fill="#55F66B"/><polygon id="Arrowhead · 24-0 · tip-at-node-center" points="1179.629862711541,754.5973886334889 1195.4,742.4 1199.0,759.3" fill="#FF5A5F"/><polygon id="Arrowhead · 24-1 · tip-at-node-center" points="1328.370137288459,648.4026113665111 1312.6,660.6 1309.0,643.7" fill="#FF5A5F"/><polygon id="Arrowhead · 25 · tip-at-node-center" points="1314,854 1296.7,850.2 1306.2,838.1" fill="#55F66B"/><polygon id="Arrowhead · 26 · tip-at-node-center" points="1124,924 1136.4,911.3 1141.7,925.7" fill="#FFD447"/><polygon id="Arrowhead · 27 · tip-at-node-center" points="1124,924 1120.9,906.5 1135.7,910.6" fill="#FF5A5F"/><polygon id="Arrowhead · 28 · tip-at-node-center" points="934,879 921.8,891.9 916.3,877.5" fill="#55F66B"/><polygon id="Arrowhead · 29 · tip-at-node-center" points="1004,969 988.1,961.1 1000.2,951.7" fill="#FFD447"/></g><!-- network-contract nodes=21 edges=30 --></g><defs><marker id="pair-high" viewBox="0 0 12 12" refX="10" refY="6" markerWidth="9" markerHeight="9" orient="auto-start-reverse" markerUnits="userSpaceOnUse"><path d="M1,1 L11,6 L1,11 Z" fill="#FF5A5F"/></marker></defs><defs><marker id="pair-medium" viewBox="0 0 12 12" refX="10" refY="6" markerWidth="9" markerHeight="9" orient="auto-start-reverse" markerUnits="userSpaceOnUse"><path d="M1,1 L11,6 L1,11 Z" fill="#FFD447"/></marker></defs><defs><marker id="pair-low" viewBox="0 0 12 12" refX="10" refY="6" markerWidth="9" markerHeight="9" orient="auto-start-reverse" markerUnits="userSpaceOnUse"><path d="M1,1 L11,6 L1,11 Z" fill="#55F66B"/></marker></defs><g id="PairDetail · 거래 상세보기 · open-on-aggregate-edge-click · edge-selected=true · node-selected=false"><rect x="1466.0" y="244.0" width="430.0" height="778.0" rx="10" fill="#09090B" stroke="#27272A" stroke-width="1"/><text x="1484" y="268" font-family="Noto Sans KR" font-size="10" font-weight="650" fill="#A1A1AA" text-anchor="start">거래 상세보기</text><text x="1484" y="292" font-family="Noto Sans KR" font-size="16" font-weight="650" fill="#FAFAFA" text-anchor="start">계좌 A ↔ 계좌 D</text><text x="1878" y="292" font-family="Noto Sans KR" font-size="14" font-weight="700" fill="#FAFAFA" text-anchor="end">16건</text><text x="1484" y="311" font-family="Noto Sans KR" font-size="10" font-weight="500" fill="#A1A1AA" text-anchor="start">2026-08-16 ~ 2026-09-16 · 총 USD 100,000</text><text x="1510" y="348" font-family="Noto Sans KR" font-size="12" font-weight="650" fill="#FF5A5F" text-anchor="middle">계좌 A</text><text x="1852" y="348" font-family="Noto Sans KR" font-size="12" font-weight="650" fill="#FF5A5F" text-anchor="middle">계좌 D</text><rect x="1500.0" y="372.0" width="20.0" height="616.0" rx="7" fill="#FF5A5F" stroke="none"/><rect x="1842.0" y="372.0" width="20.0" height="616.0" rx="7" fill="#FF5A5F" stroke="none"/><line x1="1522" y1="420" x2="1840" y2="420" stroke="#55F66B" stroke-width="2" marker-end="url(#pair-low)"/><g><rect x="1602.0" y="402" width="158" height="36" rx="4" fill="#55F66B"/><text x="1681.0" y="417" text-anchor="middle" fill="#09090B" font-size="9" font-family="Pretendard,Arial" font-weight="600">2026-08-16 16:55:32</text><text x="1681.0" y="431" text-anchor="middle" fill="#09090B" font-size="10" font-family="Pretendard,Arial" font-weight="700">USD 10K</text></g><line x1="1840" y1="513" x2="1522" y2="513" stroke="#FFD447" stroke-width="5" marker-end="url(#pair-medium)"/><g><rect x="1602.0" y="495" width="158" height="36" rx="4" fill="#FFD447"/><text x="1681.0" y="510" text-anchor="middle" fill="#09090B" font-size="9" font-family="Pretendard,Arial" font-weight="600">2026-08-18 11:20:09</text><text x="1681.0" y="524" text-anchor="middle" fill="#09090B" font-size="10" font-family="Pretendard,Arial" font-weight="700">USD 20K</text></g><line x1="1522" y1="606" x2="1840" y2="606" stroke="#FF5A5F" stroke-width="9" marker-end="url(#pair-high)"/><g><rect x="1602.0" y="588" width="158" height="36" rx="4" fill="#FF5A5F"/><text x="1681.0" y="603" text-anchor="middle" fill="#09090B" font-size="9" font-family="Pretendard,Arial" font-weight="600">2026-08-22 08:14:41</text><text x="1681.0" y="617" text-anchor="middle" fill="#09090B" font-size="10" font-family="Pretendard,Arial" font-weight="700">USD 50K</text></g><line x1="1522" y1="699" x2="1840" y2="699" stroke="#FF5A5F" stroke-width="12" marker-end="url(#pair-high)"/><g><rect x="1602.0" y="681" width="158" height="36" rx="4" fill="#FF5A5F"/><text x="1681.0" y="696" text-anchor="middle" fill="#09090B" font-size="9" font-family="Pretendard,Arial" font-weight="600">2026-09-01 14:02:10</text><text x="1681.0" y="710" text-anchor="middle" fill="#09090B" font-size="10" font-family="Pretendard,Arial" font-weight="700">USD 100K</text></g><line x1="1840" y1="792" x2="1522" y2="792" stroke="#FFD447" stroke-width="5" marker-end="url(#pair-medium)"/><g><rect x="1602.0" y="774" width="158" height="36" rx="4" fill="#FFD447"/><text x="1681.0" y="789" text-anchor="middle" fill="#09090B" font-size="9" font-family="Pretendard,Arial" font-weight="600">2026-09-08 10:31:18</text><text x="1681.0" y="803" text-anchor="middle" fill="#09090B" font-size="10" font-family="Pretendard,Arial" font-weight="700">USD 20K</text></g><rect x="1887.0" y="362.0" width="4.0" height="618.0" rx="2" fill="#3F3F46" stroke="none"/><rect x="1887.0" y="362.0" width="4.0" height="126.0" rx="2" fill="#A1A1AA" stroke="none"/></g><g id="LLMAgentEntry · bottom-right · authenticated"><circle cx="1846" cy="1018" r="24" fill="#FAFAFA" stroke="#27272A" stroke-width="2"/><text x="1846" y="1023" font-family="Noto Sans KR" font-size="11" font-weight="800" fill="#09090B" text-anchor="middle">AI</text></g></svg>