<svg id="Wireframe v7 / 10 Alert relationship graph · edge Sheet open" xmlns="http://www.w3.org/2000/svg" width="1920" height="1080" viewBox="0 0 1920 1080"><rect id="Background" x="0.0" y="0.0" width="1920.0" height="1080.0" rx="0" fill="#FFFFFF" stroke="none"/><g id="Sidebar · collapsible=icon · state=collapsed"><rect x="0.0" y="0.0" width="48.0" height="1080.0" rx="0" fill="#FAFAFA" stroke="none"/><line x1="48.0" y1="0.0" x2="48.0" y2="1080.0" stroke="#E4E4E7" stroke-width="1"/><g id="SidebarHeader · SidebarTrigger"><g id="SidebarTrigger · Button ghost icon"><g id="Icon · lucide/panel-left"><rect x="18.0" y="18.0" width="12.0" height="12.0" rx="2.0" fill="none" stroke="#18181B" stroke-width="1.5"/><line x1="22.0" y1="18.0" x2="22.0" y2="30.0" stroke="#18181B" stroke-width="1.5" stroke-linecap="round"/></g></g></g><g id="SidebarMenuButton · DASHBOARD"><g id="Icon · lucide/layout-dashboard"><rect x="18.0" y="66.0" width="5.0" height="5.0" rx="1.0" fill="none" stroke="#71717A" stroke-width="1.5"/><rect x="25.0" y="66.0" width="5.0" height="3.0" rx="1.0" fill="none" stroke="#71717A" stroke-width="1.5"/><rect x="18.0" y="73.0" width="5.0" height="5.0" rx="1.0" fill="none" stroke="#71717A" stroke-width="1.5"/><rect x="25.0" y="71.0" width="5.0" height="7.0" rx="1.0" fill="none" stroke="#71717A" stroke-width="1.5"/></g></g><g id="SidebarMenuButton · ALERTS · isActive"><rect x="8.0" y="92.0" width="32.0" height="32.0" rx="6" fill="#E4E4E7" stroke="none"/><g id="Icon · lucide/siren"><polyline points="20.0,111.0 20.0,108.0 21.0,104.0 24.0,102.0 27.0,104.0 28.0,108.0 28.0,111.0" fill="none" stroke="#18181B" stroke-width="1.5" stroke-linecap="round" stroke-linejoin="round"/><line x1="18.0" y1="113.0" x2="30.0" y2="113.0" stroke="#18181B" stroke-width="1.5" stroke-linecap="round"/><line x1="18.0" y1="106.0" x2="16.5" y2="105.0" stroke="#18181B" stroke-width="1.5" stroke-linecap="round"/><line x1="30.0" y1="106.0" x2="31.5" y2="105.0" stroke="#18181B" stroke-width="1.5" stroke-linecap="round"/></g></g><g id="SidebarMenuButton · EPISODES"><g id="Icon · lucide/folder-search"><polyline points="18.0,141.0 18.0,139.0 23.0,139.0 25.0,141.0 30.0,141.0 30.0,149.0 18.0,149.0 18.0,141.0" fill="none" stroke="#71717A" stroke-width="1.5" stroke-linecap="round" stroke-linejoin="round"/><circle cx="24.0" cy="145.0" r="2.3" fill="none" stroke="#71717A" stroke-width="1.5"/><line x1="25.7" y1="146.7" x2="27.5" y2="148.5" stroke="#71717A" stroke-width="1.5" stroke-linecap="round"/></g></g><g id="SidebarMenuButton · NOTIFICATIONS"><g id="Icon · lucide/bell"><polyline points="19.0,983.0 21.0,981.0 21.0,978.0 22.0,975.5 24.0,974.5 26.0,975.5 27.0,978.0 27.0,981.0 29.0,983.0 19.0,983.0" fill="none" stroke="#71717A" stroke-width="1.5" stroke-linecap="round" stroke-linejoin="round"/><polyline points="22.5,985.0 24.0,986.0 25.5,985.0" fill="none" stroke="#71717A" stroke-width="1.5" stroke-linecap="round" stroke-linejoin="round"/></g></g><g id="SidebarMenuButton · SETTINGS"><g id="Icon · lucide/settings"><circle cx="24.0" cy="1016.0" r="2.2" fill="none" stroke="#71717A" stroke-width="1.5"/><circle cx="24.0" cy="1016.0" r="5.5" fill="none" stroke="#71717A" stroke-width="1.5"/><line x1="24.0" y1="1008.5" x2="24.0" y2="1010.5" stroke="#71717A" stroke-width="1.5" stroke-linecap="round"/><line x1="24.0" y1="1021.5" x2="24.0" y2="1023.5" stroke="#71717A" stroke-width="1.5" stroke-linecap="round"/><line x1="16.5" y1="1016.0" x2="18.5" y2="1016.0" stroke="#71717A" stroke-width="1.5" stroke-linecap="round"/><line x1="29.5" y1="1016.0" x2="31.5" y2="1016.0" stroke="#71717A" stroke-width="1.5" stroke-linecap="round"/></g></g><g id="SidebarMenuButton · ACCOUNT"><g id="Icon · lucide/user"><circle cx="24.0" cy="1049.0" r="3.0" fill="none" stroke="#71717A" stroke-width="1.5"/><polyline points="18.5,1058.0 19.5,1055.0 22.0,1053.5 26.0,1053.5 28.5,1055.0 29.5,1058.0" fill="none" stroke="#71717A" stroke-width="1.5" stroke-linecap="round" stroke-linejoin="round"/></g></g></g><g id="Header · SidebarInset"><line x1="48.0" y1="48.0" x2="1920.0" y2="48.0" stroke="#E4E4E7" stroke-width="1"/><g id="Brand · candidate copy"><rect x="60.0" y="8.0" width="32.0" height="32.0" rx="8" fill="#27272A" stroke="none"/><g id="Icon · lucide/radar"><circle cx="76.0" cy="24.0" r="6.0" fill="none" stroke="#FFFFFF" stroke-width="1.5"/><circle cx="76.0" cy="24.0" r="3.0" fill="none" stroke="#FFFFFF" stroke-width="1.5"/><circle cx="76.0" cy="24.0" r="0.8" fill="none" stroke="#FFFFFF" stroke-width="1.5"/><line x1="76.0" y1="24.0" x2="81.0" y2="19.0" stroke="#FFFFFF" stroke-width="1.5" stroke-linecap="round"/><circle cx="80.0" cy="20.0" r="1.0" fill="none" stroke="#FFFFFF" stroke-width="1.5"/></g><text x="100" y="29" font-family="Noto Sans KR" font-size="14" font-weight="600" fill="#18181B" text-anchor="start">AML RADAR</text></g><g id="CommandDialogTrigger · GlobalSearch · AML contract"><g id="Button/Input · CommandDialogTrigger"><rect x="700.0" y="8.0" width="520.0" height="32.0" rx="8" fill="#FFFFFF" stroke="#D4D4D8" stroke-width="1"/><g id="Icon · lucide/search"><circle cx="717.0" cy="23.0" r="5.0" fill="none" stroke="#71717A" stroke-width="1.5"/><polyline fill="none" stroke="#71717A" stroke-width="1.5" stroke-linecap="round" stroke-linejoin="round" points="721.0,27.0 724.5,30.5"/></g><text x="734" y="29" font-family="Noto Sans KR" font-size="14" font-weight="400" fill="#71717A" text-anchor="start">전역 검색 · 후보 문구</text></g><rect id="Kbd · Windows" x="1148.0" y="14.0" width="60.0" height="20.0" rx="5" fill="#F4F4F5" stroke="#E4E4E7" stroke-width="1"/><text x="1178" y="28" font-family="Noto Sans KR" font-size="11" font-weight="500" fill="#71717A" text-anchor="middle">Ctrl K</text></g><g id="FullscreenControl · Fullscreen API + F11"><rect x="1812.0" y="8.0" width="84.0" height="32.0" rx="8" fill="#FFFFFF" stroke="#D4D4D8" stroke-width="1"/><g id="Icon · lucide/maximize"><polyline points="1822.0,22.0 1822.0,18.0 1826.0,18.0" fill="none" stroke="#18181B" stroke-width="1.5" stroke-linecap="round" stroke-linejoin="round"/><polyline points="1830.0,18.0 1834.0,18.0 1834.0,22.0" fill="none" stroke="#18181B" stroke-width="1.5" stroke-linecap="round" stroke-linejoin="round"/><polyline points="1834.0,26.0 1834.0,30.0 1830.0,30.0" fill="none" stroke="#18181B" stroke-width="1.5" stroke-linecap="round" stroke-linejoin="round"/><polyline points="1826.0,30.0 1822.0,30.0 1822.0,26.0" fill="none" stroke="#18181B" stroke-width="1.5" stroke-linecap="round" stroke-linejoin="round"/></g><rect x="1846.0" y="14.0" width="38.0" height="20.0" rx="5" fill="#F4F4F5" stroke="#E4E4E7" stroke-width="1"/><text x="1865" y="28" font-family="Noto Sans KR" font-size="11" font-weight="500" fill="#71717A" text-anchor="middle">F11</text></g><g id="NavUser · demo account switch candidate"><text x="1796" y="29" font-family="Noto Sans KR" font-size="14" font-weight="500" fill="#18181B" text-anchor="end">오검토</text><g id="Avatar"><circle cx="1734.1" cy="24.0" r="14.0" fill="#E4E4E7"/><text x="1734" y="28" font-family="Noto Sans KR" font-size="12" font-weight="500" fill="#18181B" text-anchor="middle">오</text></g></g><g id="Badge · Role=L1"><rect x="1678.8" y="14.0" width="27.3" height="20.0" rx="10" fill="#FFFFFF" stroke="#D4D4D8" stroke-width="1"/><text x="1687" y="28" font-family="Noto Sans KR" font-size="12" font-weight="500" fill="#18181B" text-anchor="start">L1</text></g><text x="1671" y="29" font-family="Noto Sans KR" font-size="14" font-weight="400" fill="#71717A" text-anchor="end">역할</text><g id="Badge · TaskCount"><rect x="1591.9" y="14.0" width="30.9" height="20.0" rx="10" fill="#27272A" stroke="#27272A" stroke-width="1"/><text x="1600" y="28" font-family="Noto Sans KR" font-size="12" font-weight="500" fill="#FFFFFF" text-anchor="start">53</text></g><text x="1584" y="29" font-family="Noto Sans KR" font-size="14" font-weight="400" fill="#71717A" text-anchor="end">내 할 일</text></g><g id="PageHeader"><g id="Breadcrumb"><text x="72" y="87" font-family="Noto Sans KR" font-size="14" font-weight="400" fill="#71717A" text-anchor="start">ALERTS</text><g id="Icon · lucide/chevron-right"><polyline fill="none" stroke="#71717A" stroke-width="1.5" stroke-linecap="round" stroke-linejoin="round" points="135.3,78.5 138.8,82.0 135.3,85.5"/></g><text x="150" y="87" font-family="Noto Sans KR" font-size="14" font-weight="400" fill="#18181B" text-anchor="start">AL-000241</text></g><text x="72" y="128" font-family="Noto Sans KR" font-size="26" font-weight="600" fill="#18181B" text-anchor="start">AL-000241</text><text x="72" y="160" font-family="Noto Sans KR" font-size="14" font-weight="400" fill="#71717A" text-anchor="start">자금 흐름 · 근거 subgraph · 탐지 기간</text><g id="Badge · variant=outline · 미처리"><rect x="317.8" y="146.0" width="50.2" height="20.0" rx="10" fill="#FFFFFF" stroke="#D4D4D8" stroke-width="1"/><text x="326" y="160" font-family="Noto Sans KR" font-size="12" font-weight="500" fill="#18181B" text-anchor="start">미처리</text></g><line x1="72.0" y1="180.0" x2="1896.0" y2="180.0" stroke="#E4E4E7" stroke-width="1"/></g><g id="Tabs · no Sankey subtab"><g id="TabsList"><rect x="72.0" y="184.0" width="223.5" height="32.0" rx="8" fill="#F4F4F5" stroke="none"/><g id="TabsTrigger · 개요"><text x="98" y="205" font-family="Noto Sans KR" font-size="14" font-weight="500" fill="#71717A" text-anchor="middle">개요</text></g><g id="TabsTrigger · 자금 흐름 · active"><rect x="121.6" y="187.0" width="77.7" height="26.0" rx="6" fill="#FFFFFF" stroke="#E4E4E7" stroke-width="1"/><text x="160" y="205" font-family="Noto Sans KR" font-size="14" font-weight="500" fill="#18181B" text-anchor="middle">자금 흐름</text></g><g id="TabsTrigger · 거래"><text x="223" y="205" font-family="Noto Sans KR" font-size="14" font-weight="500" fill="#71717A" text-anchor="middle">거래</text></g><g id="TabsTrigger · 이력"><text x="269" y="205" font-family="Noto Sans KR" font-size="14" font-weight="500" fill="#71717A" text-anchor="middle">이력</text></g></g></g><g id="RelationshipGraphToolbar · investigation controls only"><g id="Input · graph search"><rect x="72.0" y="226.0" width="260.0" height="32.0" rx="8" fill="#FFFFFF" stroke="#D4D4D8" stroke-width="1"/><g id="Icon · lucide/search"><circle cx="89.0" cy="241.0" r="5.0" fill="none" stroke="#71717A" stroke-width="1.5"/><polyline fill="none" stroke="#71717A" stroke-width="1.5" stroke-linecap="round" stroke-linejoin="round" points="93.0,245.0 96.5,248.5"/></g><text x="106" y="247" font-family="Noto Sans KR" font-size="14" font-weight="400" fill="#71717A" text-anchor="start">/ · graph 계좌 검색 · 후보</text></g><g id="ToggleGroupItem · graph active"><rect x="340.0" y="226.0" width="59.9" height="32.0" rx="8" fill="#F4F4F5" stroke="#F4F4F5" stroke-width="1"/><text x="350" y="247" font-family="Noto Sans KR" font-size="14" font-weight="500" fill="#18181B" text-anchor="start">그래프</text></g><g id="ToggleGroupItem · aggregate table"><text x="426" y="247" font-family="Noto Sans KR" font-size="14" font-weight="500" fill="#18181B" text-anchor="start">집계 표</text></g><g id="Button · variant=outline · size=default · 탐지 기간 · 후보"><rect x="508.0" y="226.0" width="139.7" height="32.0" rx="8" fill="#FFFFFF" stroke="#D4D4D8" stroke-width="1"/><g id="Icon · lucide/calendar"><rect x="520.0" y="237.0" width="12.0" height="11.0" rx="2.0" fill="none" stroke="#18181B" stroke-width="1.5"/><line x1="520.0" y1="241.0" x2="532.0" y2="241.0" stroke="#18181B" stroke-width="1.5" stroke-linecap="round"/><line x1="523.0" y1="235.5" x2="523.0" y2="238.0" stroke="#18181B" stroke-width="1.5" stroke-linecap="round"/><line x1="529.0" y1="235.5" x2="529.0" y2="238.0" stroke="#18181B" stroke-width="1.5" stroke-linecap="round"/></g><text x="540" y="247" font-family="Noto Sans KR" font-size="14" font-weight="500" fill="#18181B" text-anchor="start">탐지 기간 · 후보</text></g><g id="Button · variant=outline · size=default · 대표 계좌로"><rect x="662.0" y="226.0" width="91.0" height="32.0" rx="8" fill="#FFFFFF" stroke="#D4D4D8" stroke-width="1"/><text x="672" y="247" font-family="Noto Sans KR" font-size="14" font-weight="500" fill="#18181B" text-anchor="start">대표 계좌로</text></g><g id="Button · variant=outline · size=default · 화면 맞춤"><rect x="776.0" y="226.0" width="77.7" height="32.0" rx="8" fill="#FFFFFF" stroke="#D4D4D8" stroke-width="1"/><text x="786" y="247" font-family="Noto Sans KR" font-size="14" font-weight="500" fill="#18181B" text-anchor="start">화면 맞춤</text></g><g id="Button · variant=ghost · size=default · 선택 해제"><text x="884" y="247" font-family="Noto Sans KR" font-size="14" font-weight="500" fill="#18181B" text-anchor="start">선택 해제</text></g><text x="1896" y="246" font-family="Noto Sans KR" font-size="12" font-weight="400" fill="#71717A" text-anchor="end">node 8 / 최대 200 · edge 9 · 후보</text></g><g id="RelationshipGraph · custom component · evidenceSubgraphId candidate"><rect x="72.0" y="270.0" width="1824.0" height="770.0" rx="12" fill="#FFFFFF" stroke="#E4E4E7" stroke-width="1"/><rect x="90.0" y="286.0" width="480.0" height="54.0" rx="8" fill="#F4F4F5" stroke="none"/><text x="104" y="308" font-family="Noto Sans KR" font-size="11" font-weight="500" fill="#18181B" text-anchor="start">채움=위험도 · 굵은 테두리=대표 · 점선=확장 관계</text><text x="104" y="328" font-family="Noto Sans KR" font-size="11" font-weight="400" fill="#71717A" text-anchor="start">화살표=송금 방향 · edge 굵기=USD log scale</text><g id="RelationshipGraphEdge · aggregated direction=forward"><path d="M382,500 Q483.5,390.0 585,390" fill="none" stroke="#18181B" stroke-width="5" stroke-linecap="round"/><polygon points="585,390 575,385 575,395" fill="#18181B"/><rect x="417.5" y="377.0" width="132.0" height="24.0" rx="6" fill="#FFFFFF" stroke="#E4E4E7" stroke-width="1"/><text x="484" y="394" font-family="Noto Sans KR" font-size="11" font-weight="500" fill="#18181B" text-anchor="middle">A→B · 12건 · USD 2.4M</text></g><g id="RelationshipGraphEdge · aggregated direction=reverse"><path d="M585,405 Q483.5,515.0 382,515" fill="none" stroke="#18181B" stroke-width="3" stroke-linecap="round"/><polygon points="382,515 392,510 392,520" fill="#18181B"/><rect x="417.5" y="502.0" width="132.0" height="24.0" rx="6" fill="#FFFFFF" stroke="#E4E4E7" stroke-width="1"/><text x="484" y="519" font-family="Noto Sans KR" font-size="11" font-weight="500" fill="#18181B" text-anchor="middle">B→A · 3건 · USD 180K</text></g><g id="RelationshipGraphEdge · aggregated direction=forward"><path d="M382,520 Q489.0,622.5 596,645" fill="none" stroke="#18181B" stroke-width="4" stroke-linecap="round"/><polygon points="596,645 586,640 586,650" fill="#18181B"/><rect x="423.0" y="609.5" width="132.0" height="24.0" rx="6" fill="#FFFFFF" stroke="#E4E4E7" stroke-width="1"/><text x="489" y="626" font-family="Noto Sans KR" font-size="11" font-weight="500" fill="#18181B" text-anchor="middle">A→C · 8건 · USD 1.1M</text></g><g id="RelationshipGraphEdge · aggregated direction=forward"><path d="M645,640 Q760.0,528.5 875,485" fill="none" stroke="#18181B" stroke-width="3" stroke-linecap="round"/><polygon points="875,485 865,480 865,490" fill="#18181B"/><rect x="694.0" y="515.5" width="132.0" height="24.0" rx="6" fill="#FFFFFF" stroke="#E4E4E7" stroke-width="1"/><text x="760" y="532" font-family="Noto Sans KR" font-size="11" font-weight="500" fill="#18181B" text-anchor="middle">C→D · 5건 · USD 620K</text></g><g id="RelationshipGraphEdge · aggregated direction=forward"><path d="M635,392 Q752.5,449.0 870,466" fill="none" stroke="#18181B" stroke-width="2" stroke-linecap="round"/><polygon points="870,466 860,461 860,471" fill="#18181B"/><rect x="686.5" y="436.0" width="132.0" height="24.0" rx="6" fill="#FFFFFF" stroke="#E4E4E7" stroke-width="1"/><text x="752" y="453" font-family="Noto Sans KR" font-size="11" font-weight="500" fill="#18181B" text-anchor="middle">B→D · 2건 · USD 90K</text></g><g id="RelationshipGraphEdge · aggregated direction=forward"><path d="M910,455 Q1025.0,380.0 1140,375" fill="none" stroke="#18181B" stroke-width="3" stroke-linecap="round"/><polygon points="1140,375 1130,370 1130,380" fill="#18181B"/><rect x="959.0" y="367.0" width="132.0" height="24.0" rx="6" fill="#FFFFFF" stroke="#E4E4E7" stroke-width="1"/><text x="1025" y="384" font-family="Noto Sans KR" font-size="11" font-weight="500" fill="#18181B" text-anchor="middle">D→F · 4건 · USD 410K</text></g><g id="RelationshipGraphEdge · aggregated direction=forward"><path d="M910,488 Q1045.0,564.0 1180,580" fill="none" stroke="#18181B" stroke-width="4" stroke-linecap="round"/><polygon points="1180,580 1170,575 1170,585" fill="#18181B"/><rect x="979.0" y="551.0" width="132.0" height="24.0" rx="6" fill="#FFFFFF" stroke="#E4E4E7" stroke-width="1"/><text x="1045" y="568" font-family="Noto Sans KR" font-size="11" font-weight="500" fill="#18181B" text-anchor="middle">D→G · 7건 · USD 900K</text></g><g id="RelationshipGraphEdge · aggregated direction=forward"><path d="M942,695 Q1061.0,675.0 1180,605" fill="none" stroke="#71717A" stroke-width="2" stroke-linecap="round" stroke-dasharray="6 4"/><polygon points="1180,605 1170,600 1170,610" fill="#18181B"/><rect x="995.0" y="662.0" width="132.0" height="24.0" rx="6" fill="#FFFFFF" stroke="#E4E4E7" stroke-width="1"/><text x="1061" y="679" font-family="Noto Sans KR" font-size="11" font-weight="500" fill="#18181B" text-anchor="middle">E→G · 확장</text></g><g id="RelationshipGraphEdge · aggregated direction=forward"><path d="M1222,590 Q1311.0,509.5 1400,485" fill="none" stroke="#71717A" stroke-width="2" stroke-linecap="round" stroke-dasharray="6 4"/><polygon points="1400,485 1390,480 1390,490" fill="#18181B"/><rect x="1245.0" y="496.5" width="132.0" height="24.0" rx="6" fill="#FFFFFF" stroke="#E4E4E7" stroke-width="1"/><text x="1311" y="514" font-family="Noto Sans KR" font-size="11" font-weight="500" fill="#18181B" text-anchor="middle">G→H · 확장</text></g><g id="RelationshipGraphNode · risk=high · representative=True · evidence=True"><circle cx="350" cy="500" r="32" fill="#52525B" stroke="#18181B" stroke-width="4"/><text x="350" y="552" font-family="Noto Sans KR" font-size="12" font-weight="500" fill="#18181B" text-anchor="middle">A · 대표</text></g><g id="RelationshipGraphNode · risk=medium · representative=False · evidence=True"><circle cx="610" cy="390" r="25" fill="#A1A1AA" stroke="#18181B" stroke-width="2"/><text x="610" y="435" font-family="Noto Sans KR" font-size="12" font-weight="500" fill="#18181B" text-anchor="middle">B</text></g><g id="RelationshipGraphNode · risk=high · representative=False · evidence=True"><circle cx="620" cy="650" r="24" fill="#52525B" stroke="#18181B" stroke-width="2"/><text x="620" y="694" font-family="Noto Sans KR" font-size="12" font-weight="500" fill="#18181B" text-anchor="middle">C</text></g><g id="RelationshipGraphNode · risk=low · representative=False · evidence=True"><circle cx="890" cy="470" r="22" fill="#E4E4E7" stroke="#18181B" stroke-width="2"/><text x="890" y="512" font-family="Noto Sans KR" font-size="12" font-weight="500" fill="#18181B" text-anchor="middle">D</text></g><g id="RelationshipGraphNode · risk=none · representative=False · evidence=False"><circle cx="920" cy="700" r="20" fill="#F4F4F5" stroke="#18181B" stroke-width="2" stroke-dasharray="5 4"/><text x="920" y="740" font-family="Noto Sans KR" font-size="12" font-weight="500" fill="#18181B" text-anchor="middle">E</text></g><g id="RelationshipGraphNode · risk=medium · representative=False · evidence=True"><circle cx="1160" cy="365" r="20" fill="#A1A1AA" stroke="#18181B" stroke-width="2"/><text x="1160" y="405" font-family="Noto Sans KR" font-size="12" font-weight="500" fill="#18181B" text-anchor="middle">F</text></g><g id="RelationshipGraphNode · risk=high · representative=False · evidence=True"><circle cx="1200" cy="590" r="22" fill="#52525B" stroke="#18181B" stroke-width="2"/><text x="1200" y="632" font-family="Noto Sans KR" font-size="12" font-weight="500" fill="#18181B" text-anchor="middle">G</text></g><g id="RelationshipGraphNode · risk=low · representative=False · evidence=False"><circle cx="1420" cy="470" r="20" fill="#E4E4E7" stroke="#18181B" stroke-width="2" stroke-dasharray="5 4"/><text x="1420" y="510" font-family="Noto Sans KR" font-size="12" font-weight="500" fill="#18181B" text-anchor="middle">H</text></g><g id="Alert · graph scope/state contracts"><rect x="90.0" y="974.0" width="720.0" height="44.0" rx="8" fill="#F4F4F5" stroke="#E4E4E7" stroke-width="1"/><text x="104" y="1000" font-family="Noto Sans KR" font-size="12" font-weight="500" fill="#18181B" text-anchor="start">근거 subgraph · 확장 error는 기존 graph 유지 · 200개는 범위 제한</text></g></g><g id="SheetContent · aggregated edge transactions · bidirectional timeline"><rect x="1380.0" y="276.0" width="520.0" height="770.0" rx="12" fill="#000000" fill-opacity="0.08" stroke="none"/><rect x="1376.0" y="270.0" width="520.0" height="770.0" rx="12" fill="#FFFFFF" stroke="#E4E4E7" stroke-width="1"/><text x="1394" y="300" font-family="Noto Sans KR" font-size="16" font-weight="600" fill="#18181B" text-anchor="start">계좌쌍 거래 Timeline · 후보</text><g id="Button · variant=ghost · size=sm · x"><g id="Icon · lucide/x"><line x1="1864.0" y1="288.0" x2="1872.0" y2="296.0" stroke="#18181B" stroke-width="1.5" stroke-linecap="round"/><line x1="1872.0" y1="288.0" x2="1864.0" y2="296.0" stroke="#18181B" stroke-width="1.5" stroke-linecap="round"/></g></g><text x="1394" y="324" font-family="Noto Sans KR" font-size="12" font-weight="400" fill="#71717A" text-anchor="start">전체 126건 · 표시 50건 · 최신순</text><g id="Button · variant=outline · size=sm · 기간 · 후보"><rect x="1774.1" y="312.0" width="103.9" height="28.0" rx="8" fill="#FFFFFF" stroke="#D4D4D8" stroke-width="1"/><g id="Icon · lucide/calendar"><rect x="1786.1" y="321.0" width="12.0" height="11.0" rx="2.0" fill="none" stroke="#18181B" stroke-width="1.5"/><line x1="1786.1" y1="325.0" x2="1798.1" y2="325.0" stroke="#18181B" stroke-width="1.5" stroke-linecap="round"/><line x1="1789.1" y1="319.5" x2="1789.1" y2="322.0" stroke="#18181B" stroke-width="1.5" stroke-linecap="round"/><line x1="1795.1" y1="319.5" x2="1795.1" y2="322.0" stroke="#18181B" stroke-width="1.5" stroke-linecap="round"/></g><text x="1806" y="331" font-family="Noto Sans KR" font-size="13" font-weight="500" fill="#18181B" text-anchor="start">기간 · 후보</text></g><g id="AccountBars · fixed left/right positions"><rect x="1428.0" y="378.0" width="36.0" height="512.0" rx="10" fill="#F4F4F5" stroke="#E4E4E7" stroke-width="1"/><rect x="1808.0" y="378.0" width="36.0" height="512.0" rx="10" fill="#F4F4F5" stroke="#E4E4E7" stroke-width="1"/><text x="1446" y="352" font-family="Noto Sans KR" font-size="12" font-weight="600" fill="#18181B" text-anchor="middle">은행 A</text><text x="1446" y="369" font-family="Noto Sans KR" font-size="11" font-weight="400" fill="#71717A" text-anchor="middle">***-****-8800</text><text x="1826" y="352" font-family="Noto Sans KR" font-size="12" font-weight="600" fill="#18181B" text-anchor="middle">은행 B</text><text x="1826" y="369" font-family="Noto Sans KR" font-size="11" font-weight="400" fill="#71717A" text-anchor="middle">***-****-1042</text></g><text x="1402" y="400" font-family="Noto Sans KR" font-size="11" font-weight="600" fill="#71717A" text-anchor="start">09/04 · 후보</text><g id="TransactionEdge · → · log-scale width=6 · transaction candidate"><line x1="1464" y1="432" x2="1808" y2="432" stroke="#18181B" stroke-width="6" stroke-linecap="round"/><polygon points="1808,432 1798,427 1798,437" fill="#18181B"/><text x="1636" y="422" font-family="Noto Sans KR" font-size="11" font-weight="500" fill="#18181B" text-anchor="middle">09:12 · USD 420K</text><text x="1636" y="450" font-family="Noto Sans KR" font-size="10" font-weight="400" fill="#71717A" text-anchor="middle">→ · 유형/채널 · TX-0001</text></g><g id="TransactionEdge · ← · log-scale width=3 · transaction candidate"><line x1="1808" y1="490" x2="1464" y2="490" stroke="#18181B" stroke-width="3" stroke-linecap="round"/><polygon points="1464,490 1474,485 1474,495" fill="#18181B"/><text x="1636" y="480" font-family="Noto Sans KR" font-size="11" font-weight="500" fill="#18181B" text-anchor="middle">08:54 · KRW 18M · USD 13K</text><text x="1636" y="508" font-family="Noto Sans KR" font-size="10" font-weight="400" fill="#71717A" text-anchor="middle">← · 유형/채널 · TX-0002</text></g><g id="TransactionEdge · → · log-scale width=2 · transaction candidate"><line x1="1464" y1="548" x2="1808" y2="548" stroke="#18181B" stroke-width="2" stroke-linecap="round" stroke-dasharray="6 4"/><polygon points="1808,548 1798,543 1798,553" fill="#18181B"/><text x="1636" y="538" font-family="Noto Sans KR" font-size="11" font-weight="500" fill="#18181B" text-anchor="middle">08:12 · JPY 9M · 환산 실패</text><text x="1636" y="566" font-family="Noto Sans KR" font-size="10" font-weight="400" fill="#71717A" text-anchor="middle">→ · 유형/채널 · TX-0003</text></g><g id="TransactionEdge · ← · log-scale width=8 · transaction candidate"><line x1="1808" y1="628" x2="1464" y2="628" stroke="#18181B" stroke-width="8" stroke-linecap="round"/><polygon points="1464,628 1474,623 1474,633" fill="#18181B"/><text x="1636" y="618" font-family="Noto Sans KR" font-size="11" font-weight="500" fill="#18181B" text-anchor="middle">07:40 · USD 1.2M</text><text x="1636" y="646" font-family="Noto Sans KR" font-size="10" font-weight="400" fill="#71717A" text-anchor="middle">← · 유형/채널 · TX-0004</text></g><g id="TransactionEdge · → · log-scale width=4 · transaction candidate"><line x1="1464" y1="702" x2="1808" y2="702" stroke="#18181B" stroke-width="4" stroke-linecap="round"/><polygon points="1808,702 1798,697 1798,707" fill="#18181B"/><text x="1636" y="692" font-family="Noto Sans KR" font-size="11" font-weight="500" fill="#18181B" text-anchor="middle">06:05 · EUR 80K · USD 86K</text><text x="1636" y="720" font-family="Noto Sans KR" font-size="10" font-weight="400" fill="#71717A" text-anchor="middle">→ · 유형/채널 · TX-0005</text></g><g id="Alert · conversion failures/partial schema"><rect x="1394.0" y="908.0" width="484.0" height="52.0" rx="8" fill="#F4F4F5" stroke="#E4E4E7" stroke-width="1"/><text x="1406" y="930" font-family="Noto Sans KR" font-size="12" font-weight="600" fill="#18181B" text-anchor="start">환산 실패 1건 · 집계 총액 제외 · 후보</text><text x="1406" y="948" font-family="Noto Sans KR" font-size="11" font-weight="400" fill="#71717A" text-anchor="start">부분 field 누락/제외 건수·요청 ID 표시</text></g><g id="Button · load next 50 · preserves current timeline"><rect x="1394.0" y="992.0" width="484.0" height="32.0" rx="8" fill="#FFFFFF" stroke="#D4D4D8" stroke-width="1"/><text x="1541" y="1013" font-family="Noto Sans KR" font-size="14" font-weight="500" fill="#18181B" text-anchor="start">이전 거래 더 보기 · 50건 · 후보</text></g></g></svg>