<svg id="Wireframe v7 / 18 Episode 상세 · 패턴 증거" xmlns="http://www.w3.org/2000/svg" width="1920" height="1080" viewBox="0 0 1920 1080"><rect id="Background" x="0.0" y="0.0" width="1920.0" height="1080.0" rx="0" fill="#FFFFFF" stroke="none"/><g id="Sidebar · collapsible=icon · state=collapsed"><rect x="0.0" y="0.0" width="48.0" height="1080.0" rx="0" fill="#FAFAFA" stroke="none"/><line x1="48.0" y1="0.0" x2="48.0" y2="1080.0" stroke="#E4E4E7" stroke-width="1"/><g id="SidebarHeader · SidebarTrigger"><g id="SidebarTrigger · Button ghost icon"><g id="Icon · lucide/panel-left"><rect x="18.0" y="18.0" width="12.0" height="12.0" rx="2.0" fill="none" stroke="#18181B" stroke-width="1.5"/><line x1="22.0" y1="18.0" x2="22.0" y2="30.0" stroke="#18181B" stroke-width="1.5" stroke-linecap="round"/></g></g></g><g id="SidebarMenuButton · DASHBOARD"><g id="Icon · lucide/layout-dashboard"><rect x="18.0" y="66.0" width="5.0" height="5.0" rx="1.0" fill="none" stroke="#71717A" stroke-width="1.5"/><rect x="25.0" y="66.0" width="5.0" height="3.0" rx="1.0" fill="none" stroke="#71717A" stroke-width="1.5"/><rect x="18.0" y="73.0" width="5.0" height="5.0" rx="1.0" fill="none" stroke="#71717A" stroke-width="1.5"/><rect x="25.0" y="71.0" width="5.0" height="7.0" rx="1.0" fill="none" stroke="#71717A" stroke-width="1.5"/></g></g><g id="SidebarMenuButton · ALERTS"><g id="Icon · lucide/siren"><polyline points="20.0,111.0 20.0,108.0 21.0,104.0 24.0,102.0 27.0,104.0 28.0,108.0 28.0,111.0" fill="none" stroke="#71717A" stroke-width="1.5" stroke-linecap="round" stroke-linejoin="round"/><line x1="18.0" y1="113.0" x2="30.0" y2="113.0" stroke="#71717A" stroke-width="1.5" stroke-linecap="round"/><line x1="18.0" y1="106.0" x2="16.5" y2="105.0" stroke="#71717A" stroke-width="1.5" stroke-linecap="round"/><line x1="30.0" y1="106.0" x2="31.5" y2="105.0" stroke="#71717A" stroke-width="1.5" stroke-linecap="round"/></g></g><g id="SidebarMenuButton · EPISODES · isActive"><rect x="8.0" y="128.0" width="32.0" height="32.0" rx="6" fill="#E4E4E7" stroke="none"/><g id="Icon · lucide/folder-search"><polyline points="18.0,141.0 18.0,139.0 23.0,139.0 25.0,141.0 30.0,141.0 30.0,149.0 18.0,149.0 18.0,141.0" fill="none" stroke="#18181B" stroke-width="1.5" stroke-linecap="round" stroke-linejoin="round"/><circle cx="24.0" cy="145.0" r="2.3" fill="none" stroke="#18181B" stroke-width="1.5"/><line x1="25.7" y1="146.7" x2="27.5" y2="148.5" stroke="#18181B" stroke-width="1.5" stroke-linecap="round"/></g></g><g id="SidebarMenuButton · NOTIFICATIONS"><g id="Icon · lucide/bell"><polyline points="19.0,983.0 21.0,981.0 21.0,978.0 22.0,975.5 24.0,974.5 26.0,975.5 27.0,978.0 27.0,981.0 29.0,983.0 19.0,983.0" fill="none" stroke="#71717A" stroke-width="1.5" stroke-linecap="round" stroke-linejoin="round"/><polyline points="22.5,985.0 24.0,986.0 25.5,985.0" fill="none" stroke="#71717A" stroke-width="1.5" stroke-linecap="round" stroke-linejoin="round"/></g></g><g id="SidebarMenuButton · SETTINGS"><g id="Icon · lucide/settings"><circle cx="24.0" cy="1016.0" r="2.2" fill="none" stroke="#71717A" stroke-width="1.5"/><circle cx="24.0" cy="1016.0" r="5.5" fill="none" stroke="#71717A" stroke-width="1.5"/><line x1="24.0" y1="1008.5" x2="24.0" y2="1010.5" stroke="#71717A" stroke-width="1.5" stroke-linecap="round"/><line x1="24.0" y1="1021.5" x2="24.0" y2="1023.5" stroke="#71717A" stroke-width="1.5" stroke-linecap="round"/><line x1="16.5" y1="1016.0" x2="18.5" y2="1016.0" stroke="#71717A" stroke-width="1.5" stroke-linecap="round"/><line x1="29.5" y1="1016.0" x2="31.5" y2="1016.0" stroke="#71717A" stroke-width="1.5" stroke-linecap="round"/></g></g><g id="SidebarMenuButton · ACCOUNT"><g id="Icon · lucide/user"><circle cx="24.0" cy="1049.0" r="3.0" fill="none" stroke="#71717A" stroke-width="1.5"/><polyline points="18.5,1058.0 19.5,1055.0 22.0,1053.5 26.0,1053.5 28.5,1055.0 29.5,1058.0" fill="none" stroke="#71717A" stroke-width="1.5" stroke-linecap="round" stroke-linejoin="round"/></g></g></g><g id="Header · SidebarInset"><line x1="48.0" y1="48.0" x2="1920.0" y2="48.0" stroke="#E4E4E7" stroke-width="1"/><g id="Brand · candidate copy"><rect x="60.0" y="8.0" width="32.0" height="32.0" rx="8" fill="#27272A" stroke="none"/><g id="Icon · lucide/radar"><circle cx="76.0" cy="24.0" r="6.0" fill="none" stroke="#FFFFFF" stroke-width="1.5"/><circle cx="76.0" cy="24.0" r="3.0" fill="none" stroke="#FFFFFF" stroke-width="1.5"/><circle cx="76.0" cy="24.0" r="0.8" fill="none" stroke="#FFFFFF" stroke-width="1.5"/><line x1="76.0" y1="24.0" x2="81.0" y2="19.0" stroke="#FFFFFF" stroke-width="1.5" stroke-linecap="round"/><circle cx="80.0" cy="20.0" r="1.0" fill="none" stroke="#FFFFFF" stroke-width="1.5"/></g><text x="100" y="29" font-family="Noto Sans KR" font-size="14" font-weight="600" fill="#18181B" text-anchor="start">AML RADAR</text></g><g id="CommandDialogTrigger · GlobalSearch · AML contract"><g id="Button/Input · CommandDialogTrigger"><rect x="700.0" y="8.0" width="520.0" height="32.0" rx="8" fill="#FFFFFF" stroke="#D4D4D8" stroke-width="1"/><g id="Icon · lucide/search"><circle cx="717.0" cy="23.0" r="5.0" fill="none" stroke="#71717A" stroke-width="1.5"/><polyline fill="none" stroke="#71717A" stroke-width="1.5" stroke-linecap="round" stroke-linejoin="round" points="721.0,27.0 724.5,30.5"/></g><text x="734" y="29" font-family="Noto Sans KR" font-size="14" font-weight="400" fill="#71717A" text-anchor="start">전역 검색 · 후보 문구</text></g><rect id="Kbd · Windows" x="1148.0" y="14.0" width="60.0" height="20.0" rx="5" fill="#F4F4F5" stroke="#E4E4E7" stroke-width="1"/><text x="1178" y="28" font-family="Noto Sans KR" font-size="11" font-weight="500" fill="#71717A" text-anchor="middle">Ctrl K</text></g><g id="FullscreenControl · Fullscreen API + F11"><rect x="1812.0" y="8.0" width="84.0" height="32.0" rx="8" fill="#FFFFFF" stroke="#D4D4D8" stroke-width="1"/><g id="Icon · lucide/maximize"><polyline points="1822.0,22.0 1822.0,18.0 1826.0,18.0" fill="none" stroke="#18181B" stroke-width="1.5" stroke-linecap="round" stroke-linejoin="round"/><polyline points="1830.0,18.0 1834.0,18.0 1834.0,22.0" fill="none" stroke="#18181B" stroke-width="1.5" stroke-linecap="round" stroke-linejoin="round"/><polyline points="1834.0,26.0 1834.0,30.0 1830.0,30.0" fill="none" stroke="#18181B" stroke-width="1.5" stroke-linecap="round" stroke-linejoin="round"/><polyline points="1826.0,30.0 1822.0,30.0 1822.0,26.0" fill="none" stroke="#18181B" stroke-width="1.5" stroke-linecap="round" stroke-linejoin="round"/></g><rect x="1846.0" y="14.0" width="38.0" height="20.0" rx="5" fill="#F4F4F5" stroke="#E4E4E7" stroke-width="1"/><text x="1865" y="28" font-family="Noto Sans KR" font-size="11" font-weight="500" fill="#71717A" text-anchor="middle">F11</text></g><g id="NavUser · demo account switch candidate"><text x="1796" y="29" font-family="Noto Sans KR" font-size="14" font-weight="500" fill="#18181B" text-anchor="end">안분석</text><g id="Avatar"><circle cx="1734.1" cy="24.0" r="14.0" fill="#E4E4E7"/><text x="1734" y="28" font-family="Noto Sans KR" font-size="12" font-weight="500" fill="#18181B" text-anchor="middle">안</text></g></g><g id="Badge · Role=L2"><rect x="1675.2" y="14.0" width="30.9" height="20.0" rx="10" fill="#FFFFFF" stroke="#D4D4D8" stroke-width="1"/><text x="1683" y="28" font-family="Noto Sans KR" font-size="12" font-weight="500" fill="#18181B" text-anchor="start">L2</text></g><text x="1667" y="29" font-family="Noto Sans KR" font-size="14" font-weight="400" fill="#71717A" text-anchor="end">역할</text><g id="Badge · TaskCount"><rect x="1595.8" y="14.0" width="23.4" height="20.0" rx="10" fill="#27272A" stroke="#27272A" stroke-width="1"/><text x="1604" y="28" font-family="Noto Sans KR" font-size="12" font-weight="500" fill="#FFFFFF" text-anchor="start">4</text></g><text x="1588" y="29" font-family="Noto Sans KR" font-size="14" font-weight="400" fill="#71717A" text-anchor="end">내 할 일</text></g><g id="PageHeader"><g id="Breadcrumb"><text x="72" y="87" font-family="Noto Sans KR" font-size="14" font-weight="400" fill="#71717A" text-anchor="start">EPISODES</text><g id="Icon · lucide/chevron-right"><polyline fill="none" stroke="#71717A" stroke-width="1.5" stroke-linecap="round" stroke-linejoin="round" points="148.5,78.5 152.0,82.0 148.5,85.5"/></g><text x="163" y="87" font-family="Noto Sans KR" font-size="14" font-weight="400" fill="#18181B" text-anchor="start">EP-000012</text></g><text x="72" y="128" font-family="Noto Sans KR" font-size="26" font-weight="600" fill="#18181B" text-anchor="start">EP-000012</text><text x="72" y="160" font-family="Noto Sans KR" font-size="14" font-weight="400" fill="#71717A" text-anchor="start">조사 중 · 마지막 활동 09-04 09:26</text><g id="Badge · variant=default · 위험도 91"><rect x="303.2" y="146.0" width="65.3" height="20.0" rx="10" fill="#27272A" stroke="#27272A" stroke-width="1"/><text x="311" y="160" font-family="Noto Sans KR" font-size="12" font-weight="500" fill="#FFFFFF" text-anchor="start">위험도 91</text></g><g id="Badge · variant=outline · 담당 안분석"><rect x="374.6" y="146.0" width="76.8" height="20.0" rx="10" fill="#FFFFFF" stroke="#D4D4D8" stroke-width="1"/><text x="383" y="160" font-family="Noto Sans KR" font-size="12" font-weight="500" fill="#18181B" text-anchor="start">담당 안분석</text></g><g id="Badge · variant=outline · version 7"><rect x="457.4" y="146.0" width="70.0" height="20.0" rx="10" fill="#FFFFFF" stroke="#D4D4D8" stroke-width="1"/><text x="465" y="160" font-family="Noto Sans KR" font-size="12" font-weight="500" fill="#18181B" text-anchor="start">version 7</text></g><line x1="72.0" y1="180.0" x2="1896.0" y2="180.0" stroke="#E4E4E7" stroke-width="1"/></g><g id="Tabs · Episode detail"><g id="TabsList"><rect x="72.0" y="184.0" width="425.6" height="32.0" rx="8" fill="#F4F4F5" stroke="none"/><g id="TabsTrigger · 개요"><text x="98" y="205" font-family="Noto Sans KR" font-size="14" font-weight="500" fill="#71717A" text-anchor="middle">개요</text></g><g id="TabsTrigger · 자금 흐름"><text x="160" y="205" font-family="Noto Sans KR" font-size="14" font-weight="500" fill="#71717A" text-anchor="middle">자금 흐름</text></g><g id="TabsTrigger · 패턴 증거 · active"><rect x="199.3" y="187.0" width="77.7" height="26.0" rx="6" fill="#FFFFFF" stroke="#E4E4E7" stroke-width="1"/><text x="238" y="205" font-family="Noto Sans KR" font-size="14" font-weight="500" fill="#18181B" text-anchor="middle">패턴 증거</text></g><g id="TabsTrigger · 상대방 · 관련 계좌 · 이력"><text x="362" y="205" font-family="Noto Sans KR" font-size="14" font-weight="500" fill="#71717A" text-anchor="middle">상대방 · 관련 계좌 · 이력</text></g><g id="TabsTrigger · 결론"><text x="471" y="205" font-family="Noto Sans KR" font-size="14" font-weight="500" fill="#71717A" text-anchor="middle">결론</text></g></g></g><text x="72" y="240" font-family="Noto Sans KR" font-size="13" font-weight="400" fill="#71717A" text-anchor="start">가장 위험한 pattern이 기본으로 열립니다. 판정 icon은 입력 control이 아닙니다.</text><g id="AccordionItem · CYCLE · open"><rect x="72.0" y="260.0" width="1824.0" height="254.0" rx="10" fill="#FFFFFF" stroke="#E4E4E7" stroke-width="1"/><g id="Icon · lucide/check"><polyline points="91.0,286.5 94.5,290.0 101.0,282.5" fill="none" stroke="#18181B" stroke-width="1.5" stroke-linecap="round" stroke-linejoin="round"/></g><g id="Badge · PatternType=CYCLE"><rect x="114.0" y="276.0" width="53.2" height="20.0" rx="10" fill="#E4E4E7" stroke="#E4E4E7" stroke-width="1"/><text x="122" y="290" font-family="Noto Sans KR" font-size="12" font-weight="500" fill="#18181B" text-anchor="start">CYCLE</text></g><g id="Badge · variant=outline · 충족 · 위험 94"><rect x="214.0" y="276.0" width="91.8" height="20.0" rx="10" fill="#FFFFFF" stroke="#D4D4D8" stroke-width="1"/><text x="222" y="290" font-family="Noto Sans KR" font-size="12" font-weight="500" fill="#18181B" text-anchor="start">충족 · 위험 94</text></g><text x="432" y="291" font-family="Noto Sans KR" font-size="12" font-weight="400" fill="#71717A" text-anchor="start">AL-000233</text><g id="Icon · lucide/chevron-up"><polyline points="1866.0,288.0 1870.0,284.0 1874.0,288.0" fill="none" stroke="#71717A" stroke-width="1.5" stroke-linecap="round" stroke-linejoin="round"/></g><g id="Data Table · Readonly pattern evidence"><rect x="88.0" y="322.0" width="1792.0" height="148.0" rx="8" fill="#FFFFFF" stroke="#E4E4E7" stroke-width="1"/><g id="TableHeader / TableRow"><line x1="88.0" y1="362.0" x2="1880.0" y2="362.0" stroke="#E4E4E7" stroke-width="1"/><g id="TableHead · Criterion"><text x="96" y="347" font-family="Noto Sans KR" font-size="14" font-weight="500" fill="#18181B" text-anchor="start">Criterion</text><g id="Icon · lucide/arrow-up-down"><polyline fill="none" stroke="#A1A1AA" stroke-width="1.5" stroke-linecap="round" stroke-linejoin="round" points="169.4,346.4 169.4,337.6"/><polyline fill="none" stroke="#A1A1AA" stroke-width="1.5" stroke-linecap="round" stroke-linejoin="round" points="166.8,340.2 169.4,337.6 172.0,340.2"/><polyline fill="none" stroke="#A1A1AA" stroke-width="1.5" stroke-linecap="round" stroke-linejoin="round" points="174.6,337.6 174.6,346.4"/><polyline fill="none" stroke="#A1A1AA" stroke-width="1.5" stroke-linecap="round" stroke-linejoin="round" points="172.0,343.8 174.6,346.4 177.2,343.8"/></g></g><g id="TableHead · 관측값"><text x="571" y="347" font-family="Noto Sans KR" font-size="14" font-weight="500" fill="#18181B" text-anchor="start">관측값</text><g id="Icon · lucide/arrow-up-down"><polyline fill="none" stroke="#A1A1AA" stroke-width="1.5" stroke-linecap="round" stroke-linejoin="round" points="621.3,346.4 621.3,337.6"/><polyline fill="none" stroke="#A1A1AA" stroke-width="1.5" stroke-linecap="round" stroke-linejoin="round" points="618.6,340.2 621.3,337.6 623.9,340.2"/><polyline fill="none" stroke="#A1A1AA" stroke-width="1.5" stroke-linecap="round" stroke-linejoin="round" points="626.5,337.6 626.5,346.4"/><polyline fill="none" stroke="#A1A1AA" stroke-width="1.5" stroke-linecap="round" stroke-linejoin="round" points="623.9,343.8 626.5,346.4 629.1,343.8"/></g></g><g id="TableHead · Threshold"><text x="787" y="347" font-family="Noto Sans KR" font-size="14" font-weight="500" fill="#18181B" text-anchor="start">Threshold</text><g id="Icon · lucide/arrow-up-down"><polyline fill="none" stroke="#A1A1AA" stroke-width="1.5" stroke-linecap="round" stroke-linejoin="round" points="863.3,346.4 863.3,337.6"/><polyline fill="none" stroke="#A1A1AA" stroke-width="1.5" stroke-linecap="round" stroke-linejoin="round" points="860.7,340.2 863.3,337.6 866.0,340.2"/><polyline fill="none" stroke="#A1A1AA" stroke-width="1.5" stroke-linecap="round" stroke-linejoin="round" points="868.6,337.6 868.6,346.4"/><polyline fill="none" stroke="#A1A1AA" stroke-width="1.5" stroke-linecap="round" stroke-linejoin="round" points="866.0,343.8 868.6,346.4 871.2,343.8"/></g></g><g id="TableHead · 판정"><text x="1003" y="347" font-family="Noto Sans KR" font-size="14" font-weight="500" fill="#18181B" text-anchor="start">판정</text><g id="Icon · lucide/arrow-up-down"><polyline fill="none" stroke="#A1A1AA" stroke-width="1.5" stroke-linecap="round" stroke-linejoin="round" points="1039.8,346.4 1039.8,337.6"/><polyline fill="none" stroke="#A1A1AA" stroke-width="1.5" stroke-linecap="round" stroke-linejoin="round" points="1037.1,340.2 1039.8,337.6 1042.4,340.2"/><polyline fill="none" stroke="#A1A1AA" stroke-width="1.5" stroke-linecap="round" stroke-linejoin="round" points="1045.0,337.6 1045.0,346.4"/><polyline fill="none" stroke="#A1A1AA" stroke-width="1.5" stroke-linecap="round" stroke-linejoin="round" points="1042.4,343.8 1045.0,346.4 1047.6,343.8"/></g></g><g id="TableHead · 산정 기간"><text x="1219" y="347" font-family="Noto Sans KR" font-size="14" font-weight="500" fill="#18181B" text-anchor="start">산정 기간</text><g id="Icon · lucide/arrow-up-down"><polyline fill="none" stroke="#A1A1AA" stroke-width="1.5" stroke-linecap="round" stroke-linejoin="round" points="1286.8,346.4 1286.8,337.6"/><polyline fill="none" stroke="#A1A1AA" stroke-width="1.5" stroke-linecap="round" stroke-linejoin="round" points="1284.1,340.2 1286.8,337.6 1289.4,340.2"/><polyline fill="none" stroke="#A1A1AA" stroke-width="1.5" stroke-linecap="round" stroke-linejoin="round" points="1292.0,337.6 1292.0,346.4"/><polyline fill="none" stroke="#A1A1AA" stroke-width="1.5" stroke-linecap="round" stroke-linejoin="round" points="1289.4,343.8 1292.0,346.4 1294.6,343.8"/></g></g><g id="TableHead · 근거"><text x="1456" y="347" font-family="Noto Sans KR" font-size="14" font-weight="500" fill="#18181B" text-anchor="start">근거</text><g id="Icon · lucide/arrow-up-down"><polyline fill="none" stroke="#A1A1AA" stroke-width="1.5" stroke-linecap="round" stroke-linejoin="round" points="1493.2,346.4 1493.2,337.6"/><polyline fill="none" stroke="#A1A1AA" stroke-width="1.5" stroke-linecap="round" stroke-linejoin="round" points="1490.5,340.2 1493.2,337.6 1495.8,340.2"/><polyline fill="none" stroke="#A1A1AA" stroke-width="1.5" stroke-linecap="round" stroke-linejoin="round" points="1498.4,337.6 1498.4,346.4"/><polyline fill="none" stroke="#A1A1AA" stroke-width="1.5" stroke-linecap="round" stroke-linejoin="round" points="1495.8,343.8 1498.4,346.4 1501.0,343.8"/></g></g><g id="TableHead · Rule version"><text x="1672" y="347" font-family="Noto Sans KR" font-size="14" font-weight="500" fill="#18181B" text-anchor="start">Rule version</text><g id="Icon · lucide/arrow-up-down"><polyline fill="none" stroke="#A1A1AA" stroke-width="1.5" stroke-linecap="round" stroke-linejoin="round" points="1765.1,346.4 1765.1,337.6"/><polyline fill="none" stroke="#A1A1AA" stroke-width="1.5" stroke-linecap="round" stroke-linejoin="round" points="1762.4,340.2 1765.1,337.6 1767.7,340.2"/><polyline fill="none" stroke="#A1A1AA" stroke-width="1.5" stroke-linecap="round" stroke-linejoin="round" points="1770.3,337.6 1770.3,346.4"/><polyline fill="none" stroke="#A1A1AA" stroke-width="1.5" stroke-linecap="round" stroke-linejoin="round" points="1767.7,343.8 1770.3,346.4 1772.9,343.8"/></g></g></g><g id="TableBody"><g id="TableRow"><line x1="88.0" y1="398.0" x2="1880.0" y2="398.0" stroke="#E4E4E7" stroke-width="1"/><text x="96" y="385" font-family="Noto Sans KR" font-size="14" font-weight="400" fill="#18181B" text-anchor="start">시작·종료 계좌 동일</text><text x="571" y="385" font-family="Noto Sans KR" font-size="14" font-weight="400" fill="#18181B" text-anchor="start">동일</text><text x="787" y="385" font-family="Noto Sans KR" font-size="14" font-weight="400" fill="#18181B" text-anchor="start">필수</text><text x="1003" y="385" font-family="Noto Sans KR" font-size="14" font-weight="400" fill="#18181B" text-anchor="start">충족</text><text x="1219" y="385" font-family="Noto Sans KR" font-size="14" font-weight="400" fill="#18181B" text-anchor="start">4일</text><text x="1456" y="385" font-family="Noto Sans KR" font-size="14" font-weight="400" fill="#18181B" text-anchor="start">거래 10건</text><text x="1672" y="385" font-family="Noto Sans KR" font-size="14" font-weight="400" fill="#18181B" text-anchor="start">cycle-v3</text></g><g id="TableRow"><line x1="88.0" y1="434.0" x2="1880.0" y2="434.0" stroke="#E4E4E7" stroke-width="1"/><text x="96" y="421" font-family="Noto Sans KR" font-size="14" font-weight="400" fill="#18181B" text-anchor="start">hop별 금액 감소</text><text x="571" y="421" font-family="Noto Sans KR" font-size="14" font-weight="400" fill="#18181B" text-anchor="start">−3~−8%</text><text x="787" y="421" font-family="Noto Sans KR" font-size="14" font-weight="400" fill="#18181B" text-anchor="start">0~-15%</text><text x="1003" y="421" font-family="Noto Sans KR" font-size="14" font-weight="400" fill="#18181B" text-anchor="start">충족</text><text x="1219" y="421" font-family="Noto Sans KR" font-size="14" font-weight="400" fill="#18181B" text-anchor="start">4일</text><text x="1456" y="421" font-family="Noto Sans KR" font-size="14" font-weight="400" fill="#18181B" text-anchor="start">거래 보기</text><text x="1672" y="421" font-family="Noto Sans KR" font-size="14" font-weight="400" fill="#18181B" text-anchor="start">cycle-v3</text></g><g id="TableRow"><text x="96" y="457" font-family="Noto Sans KR" font-size="14" font-weight="400" fill="#18181B" text-anchor="start">중개 계좌 재사용</text><text x="571" y="457" font-family="Noto Sans KR" font-size="14" font-weight="400" fill="#18181B" text-anchor="start">0</text><text x="787" y="457" font-family="Noto Sans KR" font-size="14" font-weight="400" fill="#18181B" text-anchor="start">0</text><text x="1003" y="457" font-family="Noto Sans KR" font-size="14" font-weight="400" fill="#18181B" text-anchor="start">충족</text><text x="1219" y="457" font-family="Noto Sans KR" font-size="14" font-weight="400" fill="#18181B" text-anchor="start">4일</text><text x="1456" y="457" font-family="Noto Sans KR" font-size="14" font-weight="400" fill="#18181B" text-anchor="start">계좌 8개</text><text x="1672" y="457" font-family="Noto Sans KR" font-size="14" font-weight="400" fill="#18181B" text-anchor="start">cycle-v3</text></g></g></g></g><g id="AccordionItem · FAN_IN · closed"><rect x="72.0" y="530.0" width="1824.0" height="56.0" rx="10" fill="#FFFFFF" stroke="#E4E4E7" stroke-width="1"/><g id="Icon · lucide/check"><polyline points="91.0,556.5 94.5,560.0 101.0,552.5" fill="none" stroke="#18181B" stroke-width="1.5" stroke-linecap="round" stroke-linejoin="round"/></g><g id="Badge · PatternType=FAN_IN"><rect x="114.0" y="546.0" width="56.1" height="20.0" rx="10" fill="#E4E4E7" stroke="#E4E4E7" stroke-width="1"/><text x="122" y="560" font-family="Noto Sans KR" font-size="12" font-weight="500" fill="#18181B" text-anchor="start">FAN_IN</text></g><g id="Badge · variant=outline · 충족 · 위험 91"><rect x="214.0" y="546.0" width="88.2" height="20.0" rx="10" fill="#FFFFFF" stroke="#D4D4D8" stroke-width="1"/><text x="222" y="560" font-family="Noto Sans KR" font-size="12" font-weight="500" fill="#18181B" text-anchor="start">충족 · 위험 91</text></g><text x="432" y="561" font-family="Noto Sans KR" font-size="12" font-weight="400" fill="#71717A" text-anchor="start">AL-000229</text><g id="Icon · lucide/chevron-down"><polyline points="1866.0,554.0 1870.0,558.0 1874.0,554.0" fill="none" stroke="#71717A" stroke-width="1.5" stroke-linecap="round" stroke-linejoin="round"/></g></g><g id="AccordionItem · FAN_OUT · closed"><rect x="72.0" y="602.0" width="1824.0" height="56.0" rx="10" fill="#FFFFFF" stroke="#E4E4E7" stroke-width="1"/><g id="Icon · lucide/minus"><line x1="91.0" y1="628.0" x2="101.0" y2="628.0" stroke="#18181B" stroke-width="1.5" stroke-linecap="round"/></g><g id="Badge · PatternType=FAN_OUT"><rect x="114.0" y="618.0" width="67.1" height="20.0" rx="10" fill="#E4E4E7" stroke="#E4E4E7" stroke-width="1"/><text x="122" y="632" font-family="Noto Sans KR" font-size="12" font-weight="500" fill="#18181B" text-anchor="start">FAN_OUT</text></g><g id="Badge · variant=outline · 판정 불가 · 부분 data"><rect x="214.0" y="618.0" width="129.5" height="20.0" rx="10" fill="#FFFFFF" stroke="#D4D4D8" stroke-width="1"/><text x="222" y="632" font-family="Noto Sans KR" font-size="12" font-weight="500" fill="#18181B" text-anchor="start">판정 불가 · 부분 data</text></g><text x="432" y="633" font-family="Noto Sans KR" font-size="12" font-weight="400" fill="#71717A" text-anchor="start">AL-000241</text><g id="Icon · lucide/chevron-down"><polyline points="1866.0,626.0 1870.0,630.0 1874.0,626.0" fill="none" stroke="#71717A" stroke-width="1.5" stroke-linecap="round" stroke-linejoin="round"/></g></g><rect x="72.0" y="740.0" width="1824.0" height="90.0" rx="8" fill="#F4F4F5" stroke="#E4E4E7" stroke-width="1"/><text x="90" y="772" font-family="Noto Sans KR" font-size="13" font-weight="600" fill="#18181B" text-anchor="start">부분 누락·오류는 pattern별 격리 · 다른 pattern evidence 유지</text><text x="90" y="798" font-family="Noto Sans KR" font-size="12" font-weight="400" fill="#71717A" text-anchor="start">관측값 · threshold · 기간 · 근거 거래 link · model/rule version</text></svg>