<svg id="Wireframe v9 / 01a 기관 로그인" xmlns="http://www.w3.org/2000/svg" width="1920" height="1080" viewBox="0 0 1920 1080"><rect id="Background · dark" x="0.0" y="0.0" width="1920.0" height="1080.0" rx="0" fill="#09090B" stroke="none"/><rect x="864.0" y="298.0" width="32.0" height="32.0" rx="8" fill="#FAFAFA" stroke="none"/><g id="Icon · lucide/radar"><circle cx="880.0" cy="314.0" r="6.0" fill="none" stroke="#09090B" stroke-width="1.5"/><circle cx="880.0" cy="314.0" r="3.0" fill="none" stroke="#09090B" stroke-width="1.5"/><circle cx="880.0" cy="314.0" r="0.8" fill="none" stroke="#09090B" stroke-width="1.5"/><line x1="880.0" y1="314.0" x2="885.0" y2="309.0" stroke="#09090B" stroke-width="1.5" stroke-linecap="round"/><circle cx="884.0" cy="310.0" r="1.0" fill="none" stroke="#09090B" stroke-width="1.5"/></g><text x="906" y="320" font-family="Noto Sans KR" font-size="17" font-weight="600" fill="#FAFAFA" text-anchor="start">AML RADAR</text><g id="Card · Auth · login"><rect x="750.0" y="360.0" width="420.0" height="360.0" rx="12" fill="#09090B" stroke="#27272A" stroke-width="1"/><text x="774" y="400" font-family="Noto Sans KR" font-size="20" font-weight="600" fill="#FAFAFA" text-anchor="start">기관 로그인</text><text x="774" y="426" font-family="Noto Sans KR" font-size="14" font-weight="400" fill="#A1A1AA" text-anchor="start">소속 기관의 인증으로 AML RADAR에 접속합니다</text><text x="774" y="472" font-family="Noto Sans KR" font-size="13" font-weight="500" fill="#FAFAFA" text-anchor="start">기관</text><g id="Combobox · institution"><rect x="774.0" y="482.0" width="372.0" height="32.0" rx="8" fill="#09090B" stroke="#3F3F46" stroke-width="1"/><text x="784" y="503" font-family="Noto Sans KR" font-size="14" font-weight="400" fill="#A1A1AA" text-anchor="start">소속 기관 선택</text><g id="Icon · lucide/chevron-down"><polyline points="1124.0,496.0 1128.0,500.0 1132.0,496.0" fill="none" stroke="#A1A1AA" stroke-width="1.5" stroke-linecap="round" stroke-linejoin="round"/></g></g><text x="774" y="548" font-family="Noto Sans KR" font-size="13" font-weight="500" fill="#FAFAFA" text-anchor="start">기관 계정</text><g id="Input"><rect x="774.0" y="558.0" width="372.0" height="32.0" rx="8" fill="#09090B" stroke="#3F3F46" stroke-width="1"/><g id="Icon · lucide/user"><circle cx="792.0" cy="571.0" r="3.0" fill="none" stroke="#A1A1AA" stroke-width="1.5"/><polyline points="786.5,580.0 787.5,577.0 790.0,575.5 794.0,575.5 796.5,577.0 797.5,580.0" fill="none" stroke="#A1A1AA" stroke-width="1.5" stroke-linecap="round" stroke-linejoin="round"/></g><text x="808" y="579" font-family="Noto Sans KR" font-size="14" font-weight="400" fill="#A1A1AA" text-anchor="start">업무 이메일 또는 기관 아이디</text></g><rect x="774.0" y="610.0" width="372.0" height="48.0" rx="8" fill="#18181B" stroke="#27272A" stroke-width="1"/><g id="Icon · lucide/shield-lock"><polyline points="796.0,627.5 801.0,629.5 801.0,634.0 799.0,638.0 796.0,640.5 793.0,638.0 791.0,634.0 791.0,629.5 796.0,627.5" fill="none" stroke="#A1A1AA" stroke-width="1.5" stroke-linecap="round" stroke-linejoin="round"/><rect x="794.0" y="633.0" width="4.0" height="4.0" rx="1.0" fill="none" stroke="#A1A1AA" stroke-width="1.5"/></g><text x="814" y="631" font-family="Noto Sans KR" font-size="13" font-weight="500" fill="#FAFAFA" text-anchor="start">소속 기관의 로그인 화면으로 이동합니다</text><text x="814" y="649" font-family="Noto Sans KR" font-size="12" font-weight="400" fill="#A1A1AA" text-anchor="start">인증 후 이 화면으로 돌아옵니다</text><g id="Button · variant=default · size=default · 기관 계정으로 계속"><rect x="774.0" y="674.0" width="372.0" height="32.0" rx="8" fill="#FAFAFA" stroke="#FAFAFA" stroke-width="1"/><text x="902" y="695" font-family="Noto Sans KR" font-size="14" font-weight="500" fill="#18181B" text-anchor="start">기관 계정으로 계속</text></g></g></svg>