<svg id="Wireframe v6 / 06 Alerts · 오류 500" xmlns="http://www.w3.org/2000/svg" width="1920" height="1080" viewBox="0 0 1920 1080"><rect id="Background" x="0.0" y="0.0" width="1920.0" height="1080.0" rx="0" fill="#FFFFFF" stroke="none"/><g id="Sidebar · collapsible=icon · state=collapsed"><rect x="0.0" y="0.0" width="48.0" height="1080.0" rx="0" fill="#FAFAFA" stroke="none"/><line x1="48.0" y1="0.0" x2="48.0" y2="1080.0" stroke="#E4E4E7" stroke-width="1"/><g id="SidebarHeader"><rect x="8.0" y="8.0" width="32.0" height="32.0" rx="8" fill="#27272A" stroke="none"/><g id="Icon · lucide/radar"><rect x="18.0" y="18.0" width="12.0" height="12.0" rx="3" fill="none" stroke="#FFFFFF" stroke-width="1.5"/><circle cx="24.0" cy="24.0" r="2.0" fill="#FFFFFF"/></g></g><g id="SidebarContent / SidebarMenu"><g id="SidebarMenuButton · DASHBOARD"><g id="Icon · lucide/layout-dashboard"><rect x="18.0" y="66.0" width="12.0" height="12.0" rx="3" fill="none" stroke="#71717A" stroke-width="1.5"/><circle cx="24.0" cy="72.0" r="2.0" fill="#71717A"/></g></g><g id="SidebarMenuButton · ALERTS · isActive"><rect x="8.0" y="92.0" width="32.0" height="32.0" rx="6" fill="#E4E4E7" stroke="none"/><g id="Icon · lucide/siren"><rect x="18.0" y="102.0" width="12.0" height="12.0" rx="3" fill="none" stroke="#18181B" stroke-width="1.5"/><circle cx="24.0" cy="108.0" r="2.0" fill="#18181B"/></g></g><g id="SidebarMenuButton · EPISODES"><g id="Icon · lucide/folder-search"><rect x="18.0" y="138.0" width="12.0" height="12.0" rx="3" fill="none" stroke="#71717A" stroke-width="1.5"/><circle cx="24.0" cy="144.0" r="2.0" fill="#71717A"/></g></g></g><g id="SidebarFooter / SidebarMenu"><g id="SidebarMenuButton · NOTIFICATIONS"><g id="Icon · lucide/bell"><rect x="18.0" y="974.0" width="12.0" height="12.0" rx="3" fill="none" stroke="#71717A" stroke-width="1.5"/><circle cx="24.0" cy="980.0" r="2.0" fill="#71717A"/></g></g><g id="SidebarMenuButton · SETTINGS"><g id="Icon · lucide/settings"><rect x="18.0" y="1010.0" width="12.0" height="12.0" rx="3" fill="none" stroke="#71717A" stroke-width="1.5"/><circle cx="24.0" cy="1016.0" r="2.0" fill="#71717A"/></g></g><g id="SidebarMenuButton · ACCOUNT"><g id="Icon · lucide/user"><rect x="18.0" y="1046.0" width="12.0" height="12.0" rx="3" fill="none" stroke="#71717A" stroke-width="1.5"/><circle cx="24.0" cy="1052.0" r="2.0" fill="#71717A"/></g></g></g></g><g id="Header (SidebarInset)"><line x1="48.0" y1="48.0" x2="1920.0" y2="48.0" stroke="#E4E4E7" stroke-width="1"/><g id="SidebarTrigger · Button ghost icon-sm"><g id="Icon · lucide/panel-left"><rect x="68.0" y="18.0" width="12.0" height="12.0" rx="2" fill="none" stroke="#18181B" stroke-width="1.5"/><polyline fill="none" stroke="#18181B" stroke-width="1.5" stroke-linecap="round" stroke-linejoin="round" points="72.0,18.0 72.0,30.0"/></g></g><line x1="96.0" y1="16.0" x2="96.0" y2="32.0" stroke="#E4E4E7" stroke-width="1"/><text x="108" y="29" font-family="Noto Sans KR" font-size="14" font-weight="600" fill="#18181B" text-anchor="start">AML RADAR</text><g id="Clock"><text x="960" y="29" font-family="Noto Sans KR" font-size="14" font-weight="500" fill="#18181B" text-anchor="middle">2026-09-04  09:12:34</text></g><g id="Button · ghost · icon · Fullscreen"><g id="Icon · lucide/maximize"><polyline fill="none" stroke="#18181B" stroke-width="1.5" stroke-linecap="round" stroke-linejoin="round" points="1874.0,22.0 1874.0,18.0 1878.0,18.0"/><polyline fill="none" stroke="#18181B" stroke-width="1.5" stroke-linecap="round" stroke-linejoin="round" points="1882.0,18.0 1886.0,18.0 1886.0,22.0"/><polyline fill="none" stroke="#18181B" stroke-width="1.5" stroke-linecap="round" stroke-linejoin="round" points="1886.0,26.0 1886.0,30.0 1882.0,30.0"/><polyline fill="none" stroke="#18181B" stroke-width="1.5" stroke-linecap="round" stroke-linejoin="round" points="1878.0,30.0 1874.0,30.0 1874.0,26.0"/></g></g><g id="NavUser"><text x="1812" y="29" font-family="Noto Sans KR" font-size="14" font-weight="500" fill="#18181B" text-anchor="start">김검토</text><g id="Avatar"><circle cx="1790.1" cy="24.0" r="14.0" fill="#E4E4E7"/><text x="1790" y="28" font-family="Noto Sans KR" font-size="12" font-weight="500" fill="#18181B" text-anchor="middle">김</text></g></g><g id="Badge · Role=L1"><rect x="1736.8" y="14.0" width="27.3" height="20.0" rx="10" fill="#FFFFFF" stroke="#D4D4D8" stroke-width="1"/><text x="1745" y="28" font-family="Noto Sans KR" font-size="12" font-weight="500" fill="#18181B" text-anchor="start">L1</text></g><g id="TaskCount"><g id="Badge · TaskCount"><rect x="1689.9" y="14.0" width="30.9" height="20.0" rx="10" fill="#27272A" stroke="#27272A" stroke-width="1"/><text x="1698" y="28" font-family="Noto Sans KR" font-size="12" font-weight="500" fill="#FFFFFF" text-anchor="start">53</text></g><text x="1682" y="29" font-family="Noto Sans KR" font-size="14" font-weight="400" fill="#71717A" text-anchor="end">내 할 일</text></g></g><g id="PageHeader"><g id="Breadcrumb"><text x="72" y="87" font-family="Noto Sans KR" font-size="14" font-weight="400" fill="#71717A" text-anchor="start">ALERTS</text><g id="Icon · lucide/chevron-right"><polyline fill="none" stroke="#71717A" stroke-width="1.5" stroke-linecap="round" stroke-linejoin="round" points="135.3,78.5 138.8,82.0 135.3,85.5"/></g><text x="150" y="87" font-family="Noto Sans KR" font-size="14" font-weight="400" fill="#18181B" text-anchor="start">내 담당</text></g><text x="72" y="128" font-family="Noto Sans KR" font-size="26" font-weight="600" fill="#18181B" text-anchor="start">Alert 목록</text><text x="72" y="160" font-family="Noto Sans KR" font-size="14" font-weight="400" fill="#71717A" text-anchor="start">전체 135 · 미처리 53</text><g id="Badge · variant=outline · 미열람 41"><rect x="212.1" y="146.0" width="65.3" height="20.0" rx="10" fill="#FFFFFF" stroke="#D4D4D8" stroke-width="1"/><text x="220" y="160" font-family="Noto Sans KR" font-size="12" font-weight="500" fill="#18181B" text-anchor="start">미열람 41</text></g><g id="Badge · variant=outline · 3일 이상 7"><rect x="283.4" y="146.0" width="72.8" height="20.0" rx="10" fill="#FFFFFF" stroke="#D4D4D8" stroke-width="1"/><text x="291" y="160" font-family="Noto Sans KR" font-size="12" font-weight="500" fill="#18181B" text-anchor="start">3일 이상 7</text></g><g id="Button · variant=outline · size=default · 내보내기"><rect x="1822.8" y="100.0" width="73.2" height="32.0" rx="8" fill="#FFFFFF" stroke="#D4D4D8" stroke-width="1"/><text x="1833" y="121" font-family="Noto Sans KR" font-size="14" font-weight="500" fill="#18181B" text-anchor="start">내보내기</text></g><line x1="72.0" y1="180.0" x2="1896.0" y2="180.0" stroke="#E4E4E7" stroke-width="1"/></g><g id="DataTableToolbar"><g id="Input · 검색"><rect x="72.0" y="196.0" width="320.0" height="32.0" rx="8" fill="#FFFFFF" stroke="#D4D4D8" stroke-width="1"/><g id="Icon · lucide/search"><circle cx="89.0" cy="211.0" r="5.0" fill="none" stroke="#71717A" stroke-width="1.5"/><polyline fill="none" stroke="#71717A" stroke-width="1.5" stroke-linecap="round" stroke-linejoin="round" points="93.0,215.0 96.5,218.5"/></g><text x="106" y="217" font-family="Noto Sans KR" font-size="14" font-weight="400" fill="#71717A" text-anchor="start">Alert ID · 계좌 · 은행 코드</text></g><g id="Button · outline · 기간 (PopoverTrigger)"><rect x="400.0" y="196.0" width="117.1" height="32.0" rx="8" fill="#FFFFFF" stroke="#D4D4D8" stroke-width="1"/><g id="Icon · lucide/calendar"><rect x="412.0" y="207.0" width="12.0" height="11.0" rx="2" fill="none" stroke="#18181B" stroke-width="1.5"/><polyline fill="none" stroke="#18181B" stroke-width="1.5" stroke-linecap="round" stroke-linejoin="round" points="412.0,211.0 424.0,211.0"/><polyline fill="none" stroke="#18181B" stroke-width="1.5" stroke-linecap="round" stroke-linejoin="round" points="415.0,205.5 415.0,208.0"/><polyline fill="none" stroke="#18181B" stroke-width="1.5" stroke-linecap="round" stroke-linejoin="round" points="421.0,205.5 421.0,208.0"/></g><text x="432" y="217" font-family="Noto Sans KR" font-size="14" font-weight="500" fill="#18181B" text-anchor="start">최근 7일</text><g id="Icon · lucide/chevron-down"><polyline fill="none" stroke="#18181B" stroke-width="1.5" stroke-linecap="round" stroke-linejoin="round" points="495.1,210.0 499.1,214.0 503.1,210.0"/></g></g><g id="Badge · secondary · 필터 칩"><rect x="525.1" y="198.0" width="114.1" height="28.0" rx="14" fill="#F4F4F5" stroke="none"/><text x="535" y="217" font-family="Noto Sans KR" font-size="13" font-weight="500" fill="#18181B" text-anchor="start">상태: 미처리</text><g id="Icon · lucide/x"><polyline fill="none" stroke="#71717A" stroke-width="1.5" stroke-linecap="round" stroke-linejoin="round" points="620.1,209.0 626.1,215.0"/><polyline fill="none" stroke="#71717A" stroke-width="1.5" stroke-linecap="round" stroke-linejoin="round" points="626.1,209.0 620.1,215.0"/></g></g><g id="Button · CollapsibleTrigger · 필터"><rect x="647.1" y="196.0" width="90.6" height="32.0" rx="8" fill="#FFFFFF" stroke="#D4D4D8" stroke-width="1" stroke-dasharray="5 4"/><g id="Icon · lucide/filter"><polyline fill="none" stroke="#18181B" stroke-width="1.5" stroke-linecap="round" stroke-linejoin="round" points="659.1,207.0 671.1,207.0 666.6,212.5 666.6,217.0 663.6,216.0 663.6,212.5 659.1,207.0"/></g><text x="679" y="217" font-family="Noto Sans KR" font-size="14" font-weight="500" fill="#18181B" text-anchor="start">필터</text><g id="Icon · lucide/chevron-down"><polyline fill="none" stroke="#18181B" stroke-width="1.5" stroke-linecap="round" stroke-linejoin="round" points="715.7,210.0 719.7,214.0 723.7,210.0"/></g></g><g id="Button · outline · icon · 새로고침"><rect x="1864.0" y="196.0" width="32.0" height="32.0" rx="8" fill="#FFFFFF" stroke="#D4D4D8" stroke-width="1"/><g id="Icon · lucide/refresh-cw"><path d="M1885.0,212.0 A5.0,5.0 0 1 1 1883.5,208.5" fill="none" stroke="#18181B" stroke-width="1.5"/><polyline fill="none" stroke="#18181B" stroke-width="1.5" stroke-linecap="round" stroke-linejoin="round" points="1884.0,205.5 1884.0,209.0 1880.5,209.0"/></g></g><g id="DropdownMenuTrigger · 열 표시 (View options)"><rect x="1787.4" y="196.0" width="68.6" height="32.0" rx="8" fill="#FFFFFF" stroke="#D4D4D8" stroke-width="1"/><g id="Icon · lucide/settings-2"><rect x="1799.4" y="206.0" width="12.0" height="12.0" rx="3" fill="none" stroke="#18181B" stroke-width="1.5"/><circle cx="1805.4" cy="212.0" r="2.0" fill="#18181B"/></g><text x="1819" y="217" font-family="Noto Sans KR" font-size="14" font-weight="500" fill="#18181B" text-anchor="start">보기</text></g></g><g id="Tabs"><g id="TabsList"><rect x="72.0" y="244.0" width="347.0" height="32.0" rx="8" fill="#F4F4F5" stroke="none"/><g id="TabsTrigger · 내 담당 미처리 — · active"><rect x="75.0" y="247.0" width="121.9" height="26.0" rx="6" fill="#FFFFFF" stroke="#E4E4E7" stroke-width="1"/><text x="136" y="265" font-family="Noto Sans KR" font-size="14" font-weight="500" fill="#18181B" text-anchor="middle">내 담당 미처리 —</text></g><g id="TabsTrigger · 미열람 —"><text x="233" y="265" font-family="Noto Sans KR" font-size="14" font-weight="500" fill="#71717A" text-anchor="middle">미열람 —</text></g><g id="TabsTrigger · 3일 이상 —"><text x="313" y="265" font-family="Noto Sans KR" font-size="14" font-weight="500" fill="#71717A" text-anchor="middle">3일 이상 —</text></g><g id="TabsTrigger · 전체 —"><text x="386" y="265" font-family="Noto Sans KR" font-size="14" font-weight="500" fill="#71717A" text-anchor="middle">전체 —</text></g></g><g id="Button · variant=ghost · size=default · 현재 조건을 보기로 저장"><text x="1740" y="265" font-family="Noto Sans KR" font-size="14" font-weight="500" fill="#18181B" text-anchor="start">현재 조건을 보기로 저장</text></g></g><g id="Alert · variant=destructive"><rect x="72.0" y="288.0" width="1824.0" height="64.0" rx="10" fill="#FFFFFF" stroke="#18181B" stroke-width="1"/><g id="Icon · lucide/circle-alert"><circle cx="92.0" cy="308.0" r="6.5" fill="none" stroke="#18181B" stroke-width="1.5"/><polyline fill="none" stroke="#18181B" stroke-width="1.5" stroke-linecap="round" stroke-linejoin="round" points="92.0,304.5 92.0,308.5"/><polyline fill="none" stroke="#18181B" stroke-width="1.5" stroke-linecap="round" stroke-linejoin="round" points="92.0,311.0 92.0,311.2"/></g><text x="110" y="313" font-family="Noto Sans KR" font-size="14" font-weight="500" fill="#18181B" text-anchor="start">Alert 목록을 불러오지 못했습니다 (500)</text><text x="110" y="335" font-family="Noto Sans KR" font-size="14" font-weight="400" fill="#71717A" text-anchor="start">서버 오류입니다. 잠시 후 다시 시도하세요. 요청 ID req-7f3a21</text></g><g id="Button · variant=outline · size=default · 다시 시도"><rect x="1780.3" y="304.0" width="99.7" height="32.0" rx="8" fill="#FFFFFF" stroke="#D4D4D8" stroke-width="1"/><g id="Icon · lucide/refresh-cw"><path d="M1803.3,320.0 A5.0,5.0 0 1 1 1801.8,316.5" fill="none" stroke="#18181B" stroke-width="1.5"/><polyline fill="none" stroke="#18181B" stroke-width="1.5" stroke-linecap="round" stroke-linejoin="round" points="1802.3,313.5 1802.3,317.0 1798.8,317.0"/></g><text x="1812" y="325" font-family="Noto Sans KR" font-size="14" font-weight="500" fill="#18181B" text-anchor="start">다시 시도</text></g><g id="Empty · 오류로 비어 있음"><rect x="72.0" y="368.0" width="1824.0" height="420.0" rx="12" fill="#FFFFFF" stroke="#A1A1AA" stroke-width="1" stroke-dasharray="5 4"/><rect id="EmptyMedia · icon" x="964.0" y="514.0" width="40.0" height="40.0" rx="8" fill="#F4F4F5" stroke="none"/><g id="Icon · lucide/server-off"><rect x="975.0" y="525.0" width="18.0" height="18.0" rx="3" fill="none" stroke="#18181B" stroke-width="1.5"/><circle cx="984.0" cy="534.0" r="3.0" fill="#18181B"/></g><text x="984" y="580" font-family="Noto Sans KR" font-size="14" font-weight="500" fill="#18181B" text-anchor="middle">표시할 데이터가 없습니다</text><text x="984" y="604" font-family="Noto Sans KR" font-size="14" font-weight="400" fill="#71717A" text-anchor="middle">다시 시도하거나 새로고침하세요.</text></g><g id="Sonner · toast · error"><rect id="shadow-md" x="1542.0" y="996.0" width="356.0" height="64.0" rx="8" fill="#000000" fill-opacity="0.06" stroke="none"/><rect id="Toast" x="1540.0" y="992.0" width="356.0" height="64.0" rx="8" fill="#FFFFFF" stroke="#E4E4E7" stroke-width="1"/><g id="Icon · lucide/circle-alert"><circle cx="1562.0" cy="1014.0" r="6.5" fill="none" stroke="#18181B" stroke-width="1.5"/><polyline fill="none" stroke="#18181B" stroke-width="1.5" stroke-linecap="round" stroke-linejoin="round" points="1562.0,1010.5 1562.0,1014.5"/><polyline fill="none" stroke="#18181B" stroke-width="1.5" stroke-linecap="round" stroke-linejoin="round" points="1562.0,1017.0 1562.0,1017.2"/></g><text x="1578" y="1019" font-family="Noto Sans KR" font-size="14" font-weight="500" fill="#18181B" text-anchor="start">요청 실패</text><text x="1578" y="1039" font-family="Noto Sans KR" font-size="13" font-weight="400" fill="#71717A" text-anchor="start">GET /api/alerts · 500 Internal Server Error</text><g id="Button · variant=default · size=sm · 다시 시도"><rect x="1810.4" y="1008.0" width="73.6" height="28.0" rx="8" fill="#27272A" stroke="#27272A" stroke-width="1"/><text x="1820" y="1027" font-family="Noto Sans KR" font-size="13" font-weight="500" fill="#FFFFFF" text-anchor="start">다시 시도</text></g></g><text x="72" y="820" font-family="Noto Sans KR" font-size="12" font-weight="400" fill="#A1A1AA" text-anchor="start">403(권한 없음)·404(없는 항목)는 22번 화면 · 401(세션 만료)은 23번 · 409(동시 처리)는 24번</text></svg>