<svg id="Wireframe / Alerts" xmlns="http://www.w3.org/2000/svg" width="1920" height="1080" viewBox="0 0 1920 1080"><rect id="Background" x="0" y="0" width="1920" height="1080" fill="#FFFFFF" stroke="#FFFFFF" stroke-width="1"/><g id="Header"><rect x="0" y="0" width="1920" height="56" fill="#E6E6E6" stroke="#C8C8C8" stroke-width="1"/><text x="24" y="35" font-family="Noto Sans KR" font-size="16" font-weight="700" fill="#333333" text-anchor="start">AML RADAR</text><text x="1896" y="35" font-family="Noto Sans KR" font-size="13" font-weight="400" fill="#333333" text-anchor="end">대기 53 · 김검토 (L1) · 계정</text></g><g id="Sidebar"><rect x="0" y="56" width="200" height="1024" fill="#F7F7F7" stroke="#C8C8C8" stroke-width="1"/><rect x="12" y="72" width="176" height="36" fill="#F7F7F7" stroke="#F7F7F7" stroke-width="1"/><text x="28" y="95" font-family="Noto Sans KR" font-size="12" font-weight="400" fill="#333333" text-anchor="start">DASHBOARD</text><rect x="12" y="116" width="176" height="36" fill="#BDBDBD" stroke="#BDBDBD" stroke-width="1"/><text x="28" y="139" font-family="Noto Sans KR" font-size="12" font-weight="700" fill="#333333" text-anchor="start">ALERTS</text><rect x="12" y="160" width="176" height="36" fill="#F7F7F7" stroke="#F7F7F7" stroke-width="1"/><text x="28" y="183" font-family="Noto Sans KR" font-size="12" font-weight="400" fill="#333333" text-anchor="start">EPISODES</text><rect x="12" y="924" width="176" height="36" fill="#F7F7F7" stroke="#F7F7F7" stroke-width="1"/><text x="28" y="947" font-family="Noto Sans KR" font-size="12" font-weight="400" fill="#333333" text-anchor="start">NOTIFICATIONS</text><rect x="12" y="968" width="176" height="36" fill="#F7F7F7" stroke="#F7F7F7" stroke-width="1"/><text x="28" y="991" font-family="Noto Sans KR" font-size="12" font-weight="400" fill="#333333" text-anchor="start">SETTINGS</text><rect x="12" y="1012" width="176" height="36" fill="#F7F7F7" stroke="#F7F7F7" stroke-width="1"/><text x="28" y="1035" font-family="Noto Sans KR" font-size="12" font-weight="400" fill="#333333" text-anchor="start">ACCOUNT</text></g><g id="PageHeader"><text x="224" y="86" font-family="Noto Sans KR" font-size="11" font-weight="400" fill="#777777" text-anchor="start">ALERTS › 내 담당</text><text x="224" y="116" font-family="Noto Sans KR" font-size="24" font-weight="700" fill="#333333" text-anchor="start">Alert 목록</text><text x="224" y="140" font-family="Noto Sans KR" font-size="13" font-weight="400" fill="#555555" text-anchor="start">전체 135건 · 미처리 53건 (미열람 41) · L1 기본 뷰 = 내 담당 · 기본 정렬 위험도</text></g><rect x="1636" y="100" width="99" height="24" fill="#EEEEEE" stroke="#C8C8C8" stroke-width="1"/><text x="1646" y="116" font-family="Noto Sans KR" font-size="11" font-weight="400" fill="#333333" text-anchor="start">3일 이상 미처리 7</text><rect x="1800" y="96" width="96" height="32" fill="#FFFFFF" stroke="#9E9E9E" stroke-width="1"/><text x="1848" y="117" font-family="Noto Sans KR" font-size="12" font-weight="400" fill="#333333" text-anchor="middle">내보내기</text><g id="FilterBar"><rect x="224" y="160" width="360" height="36" fill="#FFFFFF" stroke="#C8C8C8" stroke-width="1"/><text x="236" y="183" font-family="Noto Sans KR" font-size="12" font-weight="400" fill="#888888" text-anchor="start">검색: 계좌 · 은행 코드 · Alert ID</text><rect x="600" y="160" width="160" height="36" fill="#FFFFFF" stroke="#C8C8C8" stroke-width="1"/><text x="612" y="183" font-family="Noto Sans KR" font-size="12" font-weight="400" fill="#333333" text-anchor="start">상태: 전체  ▾</text><rect x="772" y="160" width="160" height="36" fill="#FFFFFF" stroke="#C8C8C8" stroke-width="1"/><text x="784" y="183" font-family="Noto Sans KR" font-size="12" font-weight="400" fill="#333333" text-anchor="start">유형: 전체  ▾</text><rect x="944" y="160" width="160" height="36" fill="#FFFFFF" stroke="#C8C8C8" stroke-width="1"/><text x="956" y="183" font-family="Noto Sans KR" font-size="12" font-weight="400" fill="#333333" text-anchor="start">은행: 전체  ▾</text><rect x="1116" y="160" width="160" height="36" fill="#FFFFFF" stroke="#C8C8C8" stroke-width="1"/><text x="1128" y="183" font-family="Noto Sans KR" font-size="12" font-weight="400" fill="#333333" text-anchor="start">분석일: 전체  ▾</text><rect x="1288" y="160" width="160" height="36" fill="#FFFFFF" stroke="#C8C8C8" stroke-width="1"/><text x="1300" y="183" font-family="Noto Sans KR" font-size="12" font-weight="400" fill="#333333" text-anchor="start">정렬: 위험도 ↓  ▾</text></g><g id="Table / Alerts"><rect x="224" y="212" width="1672" height="36" fill="#E6E6E6" stroke="#C8C8C8" stroke-width="1"/><text x="234" y="235" font-family="Noto Sans KR" font-size="11" font-weight="700" fill="#555555" text-anchor="start">ID · 생성</text><text x="379" y="235" font-family="Noto Sans KR" font-size="11" font-weight="700" fill="#555555" text-anchor="start">위험도</text><text x="484" y="235" font-family="Noto Sans KR" font-size="11" font-weight="700" fill="#555555" text-anchor="start">요약</text><text x="826" y="235" font-family="Noto Sans KR" font-size="11" font-weight="700" fill="#555555" text-anchor="start">대표 계좌</text><text x="998" y="235" font-family="Noto Sans KR" font-size="11" font-weight="700" fill="#555555" text-anchor="start">유형</text><text x="1116" y="235" font-family="Noto Sans KR" font-size="11" font-weight="700" fill="#555555" text-anchor="start">거래</text><text x="1188" y="235" font-family="Noto Sans KR" font-size="11" font-weight="700" fill="#555555" text-anchor="start">총액 USD</text><text x="1320" y="235" font-family="Noto Sans KR" font-size="11" font-weight="700" fill="#555555" text-anchor="start">점수 통계</text><text x="1518" y="235" font-family="Noto Sans KR" font-size="11" font-weight="700" fill="#555555" text-anchor="start">기간</text><text x="1662" y="235" font-family="Noto Sans KR" font-size="11" font-weight="700" fill="#555555" text-anchor="start">경과</text><text x="1735" y="235" font-family="Noto Sans KR" font-size="11" font-weight="700" fill="#555555" text-anchor="start">상태 · 담당</text><rect x="224" y="248" width="1672" height="44" fill="#FFFFFF" stroke="#E0E0E0" stroke-width="1"/><text x="234" y="275" font-family="Noto Sans KR" font-size="12" font-weight="400" fill="#333333" text-anchor="start">AL-000241</text><text x="379" y="275" font-family="Noto Sans KR" font-size="12" font-weight="400" fill="#333333" text-anchor="start">93 상위 0.2%</text><text x="484" y="275" font-family="Noto Sans KR" font-size="12" font-weight="400" fill="#333333" text-anchor="start">FAN-OUT · 계좌 17 · 은행 12 · 4일</text><text x="826" y="275" font-family="Noto Sans KR" font-size="12" font-weight="400" fill="#333333" text-anchor="start">021174 · 800737690</text><text x="998" y="275" font-family="Noto Sans KR" font-size="12" font-weight="400" fill="#333333" text-anchor="start">분산 송금</text><text x="1116" y="275" font-family="Noto Sans KR" font-size="12" font-weight="400" fill="#333333" text-anchor="start">16</text><text x="1188" y="275" font-family="Noto Sans KR" font-size="12" font-weight="400" fill="#333333" text-anchor="start">5,942,113</text><text x="1320" y="275" font-family="Noto Sans KR" font-size="12" font-weight="400" fill="#333333" text-anchor="start">최고 .97 · 평균 .81</text><text x="1518" y="275" font-family="Noto Sans KR" font-size="12" font-weight="400" fill="#333333" text-anchor="start">09-01 ~ 09-04</text><text x="1662" y="275" font-family="Noto Sans KR" font-size="12" font-weight="400" fill="#333333" text-anchor="start">1일</text><text x="1735" y="275" font-family="Noto Sans KR" font-size="12" font-weight="400" fill="#333333" text-anchor="start">미처리 · 김검토</text><rect x="224" y="292" width="1672" height="44" fill="#FFFFFF" stroke="#E0E0E0" stroke-width="1"/><text x="234" y="319" font-family="Noto Sans KR" font-size="12" font-weight="400" fill="#333333" text-anchor="start">AL-000238</text><text x="379" y="319" font-family="Noto Sans KR" font-size="12" font-weight="400" fill="#333333" text-anchor="start">88 상위 0.5%</text><text x="484" y="319" font-family="Noto Sans KR" font-size="12" font-weight="400" fill="#333333" text-anchor="start">CYCLE · 계좌 10 · 은행 10 · 4일</text><text x="826" y="319" font-family="Noto Sans KR" font-size="12" font-weight="400" fill="#333333" text-anchor="start">01467 · 8013C4030</text><text x="998" y="319" font-family="Noto Sans KR" font-size="12" font-weight="400" fill="#333333" text-anchor="start">순환 거래</text><text x="1116" y="319" font-family="Noto Sans KR" font-size="12" font-weight="400" fill="#333333" text-anchor="start">10</text><text x="1188" y="319" font-family="Noto Sans KR" font-size="12" font-weight="400" fill="#333333" text-anchor="start">2,306,480</text><text x="1320" y="319" font-family="Noto Sans KR" font-size="12" font-weight="400" fill="#333333" text-anchor="start">최고 .94 · 평균 .77</text><text x="1518" y="319" font-family="Noto Sans KR" font-size="12" font-weight="400" fill="#333333" text-anchor="start">09-01 ~ 09-04</text><text x="1662" y="319" font-family="Noto Sans KR" font-size="12" font-weight="400" fill="#333333" text-anchor="start">1일</text><text x="1735" y="319" font-family="Noto Sans KR" font-size="12" font-weight="400" fill="#333333" text-anchor="start">미처리 · 미열람</text><rect x="224" y="336" width="1672" height="44" fill="#FFFFFF" stroke="#E0E0E0" stroke-width="1"/><text x="234" y="363" font-family="Noto Sans KR" font-size="12" font-weight="400" fill="#333333" text-anchor="start">AL-000229</text><text x="379" y="363" font-family="Noto Sans KR" font-size="12" font-weight="400" fill="#333333" text-anchor="start">71 상위 2.8%</text><text x="484" y="363" font-family="Noto Sans KR" font-size="12" font-weight="400" fill="#333333" text-anchor="start">FAN-IN · 계좌 12 · 은행 9 · 3일</text><text x="826" y="363" font-family="Noto Sans KR" font-size="12" font-weight="400" fill="#333333" text-anchor="start">00220 · 8007A5B70</text><text x="998" y="363" font-family="Noto Sans KR" font-size="12" font-weight="400" fill="#333333" text-anchor="start">집중 수취</text><text x="1116" y="363" font-family="Noto Sans KR" font-size="12" font-weight="400" fill="#333333" text-anchor="start">11</text><text x="1188" y="363" font-family="Noto Sans KR" font-size="12" font-weight="400" fill="#333333" text-anchor="start">688,420</text><text x="1320" y="363" font-family="Noto Sans KR" font-size="12" font-weight="400" fill="#333333" text-anchor="start">최고 .86 · 평균 .69</text><text x="1518" y="363" font-family="Noto Sans KR" font-size="12" font-weight="400" fill="#333333" text-anchor="start">08-31 ~ 09-02</text><text x="1662" y="363" font-family="Noto Sans KR" font-size="12" font-weight="400" fill="#333333" text-anchor="start">3일</text><text x="1735" y="363" font-family="Noto Sans KR" font-size="12" font-weight="400" fill="#333333" text-anchor="start">심층 조사 중 · EP-000012</text><rect x="224" y="380" width="1672" height="44" fill="#FFFFFF" stroke="#E0E0E0" stroke-width="1"/><rect x="234" y="397" width="80" height="10" fill="#EAEAEA" stroke="#EAEAEA" stroke-width="1"/><rect x="379" y="397" width="58" height="10" fill="#EAEAEA" stroke="#EAEAEA" stroke-width="1"/><rect x="484" y="397" width="188" height="10" fill="#EAEAEA" stroke="#EAEAEA" stroke-width="1"/><rect x="826" y="397" width="94" height="10" fill="#EAEAEA" stroke="#EAEAEA" stroke-width="1"/><rect x="998" y="397" width="65" height="10" fill="#EAEAEA" stroke="#EAEAEA" stroke-width="1"/><rect x="1116" y="397" width="40" height="10" fill="#EAEAEA" stroke="#EAEAEA" stroke-width="1"/><rect x="1188" y="397" width="72" height="10" fill="#EAEAEA" stroke="#EAEAEA" stroke-width="1"/><rect x="1320" y="397" width="109" height="10" fill="#EAEAEA" stroke="#EAEAEA" stroke-width="1"/><rect x="1518" y="397" width="80" height="10" fill="#EAEAEA" stroke="#EAEAEA" stroke-width="1"/><rect x="1662" y="397" width="40" height="10" fill="#EAEAEA" stroke="#EAEAEA" stroke-width="1"/><rect x="1735" y="397" width="94" height="10" fill="#EAEAEA" stroke="#EAEAEA" stroke-width="1"/><rect x="224" y="424" width="1672" height="44" fill="#FFFFFF" stroke="#E0E0E0" stroke-width="1"/><rect x="234" y="441" width="80" height="10" fill="#EAEAEA" stroke="#EAEAEA" stroke-width="1"/><rect x="379" y="441" width="58" height="10" fill="#EAEAEA" stroke="#EAEAEA" stroke-width="1"/><rect x="484" y="441" width="188" height="10" fill="#EAEAEA" stroke="#EAEAEA" stroke-width="1"/><rect x="826" y="441" width="94" height="10" fill="#EAEAEA" stroke="#EAEAEA" stroke-width="1"/><rect x="998" y="441" width="65" height="10" fill="#EAEAEA" stroke="#EAEAEA" stroke-width="1"/><rect x="1116" y="441" width="40" height="10" fill="#EAEAEA" stroke="#EAEAEA" stroke-width="1"/><rect x="1188" y="441" width="72" height="10" fill="#EAEAEA" stroke="#EAEAEA" stroke-width="1"/><rect x="1320" y="441" width="109" height="10" fill="#EAEAEA" stroke="#EAEAEA" stroke-width="1"/><rect x="1518" y="441" width="80" height="10" fill="#EAEAEA" stroke="#EAEAEA" stroke-width="1"/><rect x="1662" y="441" width="40" height="10" fill="#EAEAEA" stroke="#EAEAEA" stroke-width="1"/><rect x="1735" y="441" width="94" height="10" fill="#EAEAEA" stroke="#EAEAEA" stroke-width="1"/><rect x="224" y="468" width="1672" height="44" fill="#FFFFFF" stroke="#E0E0E0" stroke-width="1"/><rect x="234" y="485" width="80" height="10" fill="#EAEAEA" stroke="#EAEAEA" stroke-width="1"/><rect x="379" y="485" width="58" height="10" fill="#EAEAEA" stroke="#EAEAEA" stroke-width="1"/><rect x="484" y="485" width="188" height="10" fill="#EAEAEA" stroke="#EAEAEA" stroke-width="1"/><rect x="826" y="485" width="94" height="10" fill="#EAEAEA" stroke="#EAEAEA" stroke-width="1"/><rect x="998" y="485" width="65" height="10" fill="#EAEAEA" stroke="#EAEAEA" stroke-width="1"/><rect x="1116" y="485" width="40" height="10" fill="#EAEAEA" stroke="#EAEAEA" stroke-width="1"/><rect x="1188" y="485" width="72" height="10" fill="#EAEAEA" stroke="#EAEAEA" stroke-width="1"/><rect x="1320" y="485" width="109" height="10" fill="#EAEAEA" stroke="#EAEAEA" stroke-width="1"/><rect x="1518" y="485" width="80" height="10" fill="#EAEAEA" stroke="#EAEAEA" stroke-width="1"/><rect x="1662" y="485" width="40" height="10" fill="#EAEAEA" stroke="#EAEAEA" stroke-width="1"/><rect x="1735" y="485" width="94" height="10" fill="#EAEAEA" stroke="#EAEAEA" stroke-width="1"/><rect x="224" y="512" width="1672" height="44" fill="#FFFFFF" stroke="#E0E0E0" stroke-width="1"/><rect x="234" y="529" width="80" height="10" fill="#EAEAEA" stroke="#EAEAEA" stroke-width="1"/><rect x="379" y="529" width="58" height="10" fill="#EAEAEA" stroke="#EAEAEA" stroke-width="1"/><rect x="484" y="529" width="188" height="10" fill="#EAEAEA" stroke="#EAEAEA" stroke-width="1"/><rect x="826" y="529" width="94" height="10" fill="#EAEAEA" stroke="#EAEAEA" stroke-width="1"/><rect x="998" y="529" width="65" height="10" fill="#EAEAEA" stroke="#EAEAEA" stroke-width="1"/><rect x="1116" y="529" width="40" height="10" fill="#EAEAEA" stroke="#EAEAEA" stroke-width="1"/><rect x="1188" y="529" width="72" height="10" fill="#EAEAEA" stroke="#EAEAEA" stroke-width="1"/><rect x="1320" y="529" width="109" height="10" fill="#EAEAEA" stroke="#EAEAEA" stroke-width="1"/><rect x="1518" y="529" width="80" height="10" fill="#EAEAEA" stroke="#EAEAEA" stroke-width="1"/><rect x="1662" y="529" width="40" height="10" fill="#EAEAEA" stroke="#EAEAEA" stroke-width="1"/><rect x="1735" y="529" width="94" height="10" fill="#EAEAEA" stroke="#EAEAEA" stroke-width="1"/><rect x="224" y="556" width="1672" height="44" fill="#FFFFFF" stroke="#E0E0E0" stroke-width="1"/><rect x="234" y="573" width="80" height="10" fill="#EAEAEA" stroke="#EAEAEA" stroke-width="1"/><rect x="379" y="573" width="58" height="10" fill="#EAEAEA" stroke="#EAEAEA" stroke-width="1"/><rect x="484" y="573" width="188" height="10" fill="#EAEAEA" stroke="#EAEAEA" stroke-width="1"/><rect x="826" y="573" width="94" height="10" fill="#EAEAEA" stroke="#EAEAEA" stroke-width="1"/><rect x="998" y="573" width="65" height="10" fill="#EAEAEA" stroke="#EAEAEA" stroke-width="1"/><rect x="1116" y="573" width="40" height="10" fill="#EAEAEA" stroke="#EAEAEA" stroke-width="1"/><rect x="1188" y="573" width="72" height="10" fill="#EAEAEA" stroke="#EAEAEA" stroke-width="1"/><rect x="1320" y="573" width="109" height="10" fill="#EAEAEA" stroke="#EAEAEA" stroke-width="1"/><rect x="1518" y="573" width="80" height="10" fill="#EAEAEA" stroke="#EAEAEA" stroke-width="1"/><rect x="1662" y="573" width="40" height="10" fill="#EAEAEA" stroke="#EAEAEA" stroke-width="1"/><rect x="1735" y="573" width="94" height="10" fill="#EAEAEA" stroke="#EAEAEA" stroke-width="1"/><rect x="224" y="600" width="1672" height="44" fill="#FFFFFF" stroke="#E0E0E0" stroke-width="1"/><rect x="234" y="617" width="80" height="10" fill="#EAEAEA" stroke="#EAEAEA" stroke-width="1"/><rect x="379" y="617" width="58" height="10" fill="#EAEAEA" stroke="#EAEAEA" stroke-width="1"/><rect x="484" y="617" width="188" height="10" fill="#EAEAEA" stroke="#EAEAEA" stroke-width="1"/><rect x="826" y="617" width="94" height="10" fill="#EAEAEA" stroke="#EAEAEA" stroke-width="1"/><rect x="998" y="617" width="65" height="10" fill="#EAEAEA" stroke="#EAEAEA" stroke-width="1"/><rect x="1116" y="617" width="40" height="10" fill="#EAEAEA" stroke="#EAEAEA" stroke-width="1"/><rect x="1188" y="617" width="72" height="10" fill="#EAEAEA" stroke="#EAEAEA" stroke-width="1"/><rect x="1320" y="617" width="109" height="10" fill="#EAEAEA" stroke="#EAEAEA" stroke-width="1"/><rect x="1518" y="617" width="80" height="10" fill="#EAEAEA" stroke="#EAEAEA" stroke-width="1"/><rect x="1662" y="617" width="40" height="10" fill="#EAEAEA" stroke="#EAEAEA" stroke-width="1"/><rect x="1735" y="617" width="94" height="10" fill="#EAEAEA" stroke="#EAEAEA" stroke-width="1"/><rect x="224" y="644" width="1672" height="44" fill="#FFFFFF" stroke="#E0E0E0" stroke-width="1"/><rect x="234" y="661" width="80" height="10" fill="#EAEAEA" stroke="#EAEAEA" stroke-width="1"/><rect x="379" y="661" width="58" height="10" fill="#EAEAEA" stroke="#EAEAEA" stroke-width="1"/><rect x="484" y="661" width="188" height="10" fill="#EAEAEA" stroke="#EAEAEA" stroke-width="1"/><rect x="826" y="661" width="94" height="10" fill="#EAEAEA" stroke="#EAEAEA" stroke-width="1"/><rect x="998" y="661" width="65" height="10" fill="#EAEAEA" stroke="#EAEAEA" stroke-width="1"/><rect x="1116" y="661" width="40" height="10" fill="#EAEAEA" stroke="#EAEAEA" stroke-width="1"/><rect x="1188" y="661" width="72" height="10" fill="#EAEAEA" stroke="#EAEAEA" stroke-width="1"/><rect x="1320" y="661" width="109" height="10" fill="#EAEAEA" stroke="#EAEAEA" stroke-width="1"/><rect x="1518" y="661" width="80" height="10" fill="#EAEAEA" stroke="#EAEAEA" stroke-width="1"/><rect x="1662" y="661" width="40" height="10" fill="#EAEAEA" stroke="#EAEAEA" stroke-width="1"/><rect x="1735" y="661" width="94" height="10" fill="#EAEAEA" stroke="#EAEAEA" stroke-width="1"/><rect x="224" y="688" width="1672" height="44" fill="#FFFFFF" stroke="#E0E0E0" stroke-width="1"/><rect x="234" y="705" width="80" height="10" fill="#EAEAEA" stroke="#EAEAEA" stroke-width="1"/><rect x="379" y="705" width="58" height="10" fill="#EAEAEA" stroke="#EAEAEA" stroke-width="1"/><rect x="484" y="705" width="188" height="10" fill="#EAEAEA" stroke="#EAEAEA" stroke-width="1"/><rect x="826" y="705" width="94" height="10" fill="#EAEAEA" stroke="#EAEAEA" stroke-width="1"/><rect x="998" y="705" width="65" height="10" fill="#EAEAEA" stroke="#EAEAEA" stroke-width="1"/><rect x="1116" y="705" width="40" height="10" fill="#EAEAEA" stroke="#EAEAEA" stroke-width="1"/><rect x="1188" y="705" width="72" height="10" fill="#EAEAEA" stroke="#EAEAEA" stroke-width="1"/><rect x="1320" y="705" width="109" height="10" fill="#EAEAEA" stroke="#EAEAEA" stroke-width="1"/><rect x="1518" y="705" width="80" height="10" fill="#EAEAEA" stroke="#EAEAEA" stroke-width="1"/><rect x="1662" y="705" width="40" height="10" fill="#EAEAEA" stroke="#EAEAEA" stroke-width="1"/><rect x="1735" y="705" width="94" height="10" fill="#EAEAEA" stroke="#EAEAEA" stroke-width="1"/><rect x="224" y="732" width="1672" height="44" fill="#FFFFFF" stroke="#E0E0E0" stroke-width="1"/><rect x="234" y="749" width="80" height="10" fill="#EAEAEA" stroke="#EAEAEA" stroke-width="1"/><rect x="379" y="749" width="58" height="10" fill="#EAEAEA" stroke="#EAEAEA" stroke-width="1"/><rect x="484" y="749" width="188" height="10" fill="#EAEAEA" stroke="#EAEAEA" stroke-width="1"/><rect x="826" y="749" width="94" height="10" fill="#EAEAEA" stroke="#EAEAEA" stroke-width="1"/><rect x="998" y="749" width="65" height="10" fill="#EAEAEA" stroke="#EAEAEA" stroke-width="1"/><rect x="1116" y="749" width="40" height="10" fill="#EAEAEA" stroke="#EAEAEA" stroke-width="1"/><rect x="1188" y="749" width="72" height="10" fill="#EAEAEA" stroke="#EAEAEA" stroke-width="1"/><rect x="1320" y="749" width="109" height="10" fill="#EAEAEA" stroke="#EAEAEA" stroke-width="1"/><rect x="1518" y="749" width="80" height="10" fill="#EAEAEA" stroke="#EAEAEA" stroke-width="1"/><rect x="1662" y="749" width="40" height="10" fill="#EAEAEA" stroke="#EAEAEA" stroke-width="1"/><rect x="1735" y="749" width="94" height="10" fill="#EAEAEA" stroke="#EAEAEA" stroke-width="1"/><rect x="224" y="776" width="1672" height="44" fill="#FFFFFF" stroke="#E0E0E0" stroke-width="1"/><rect x="234" y="793" width="80" height="10" fill="#EAEAEA" stroke="#EAEAEA" stroke-width="1"/><rect x="379" y="793" width="58" height="10" fill="#EAEAEA" stroke="#EAEAEA" stroke-width="1"/><rect x="484" y="793" width="188" height="10" fill="#EAEAEA" stroke="#EAEAEA" stroke-width="1"/><rect x="826" y="793" width="94" height="10" fill="#EAEAEA" stroke="#EAEAEA" stroke-width="1"/><rect x="998" y="793" width="65" height="10" fill="#EAEAEA" stroke="#EAEAEA" stroke-width="1"/><rect x="1116" y="793" width="40" height="10" fill="#EAEAEA" stroke="#EAEAEA" stroke-width="1"/><rect x="1188" y="793" width="72" height="10" fill="#EAEAEA" stroke="#EAEAEA" stroke-width="1"/><rect x="1320" y="793" width="109" height="10" fill="#EAEAEA" stroke="#EAEAEA" stroke-width="1"/><rect x="1518" y="793" width="80" height="10" fill="#EAEAEA" stroke="#EAEAEA" stroke-width="1"/><rect x="1662" y="793" width="40" height="10" fill="#EAEAEA" stroke="#EAEAEA" stroke-width="1"/><rect x="1735" y="793" width="94" height="10" fill="#EAEAEA" stroke="#EAEAEA" stroke-width="1"/><rect x="224" y="820" width="1672" height="44" fill="#FFFFFF" stroke="#E0E0E0" stroke-width="1"/><rect x="234" y="837" width="80" height="10" fill="#EAEAEA" stroke="#EAEAEA" stroke-width="1"/><rect x="379" y="837" width="58" height="10" fill="#EAEAEA" stroke="#EAEAEA" stroke-width="1"/><rect x="484" y="837" width="188" height="10" fill="#EAEAEA" stroke="#EAEAEA" stroke-width="1"/><rect x="826" y="837" width="94" height="10" fill="#EAEAEA" stroke="#EAEAEA" stroke-width="1"/><rect x="998" y="837" width="65" height="10" fill="#EAEAEA" stroke="#EAEAEA" stroke-width="1"/><rect x="1116" y="837" width="40" height="10" fill="#EAEAEA" stroke="#EAEAEA" stroke-width="1"/><rect x="1188" y="837" width="72" height="10" fill="#EAEAEA" stroke="#EAEAEA" stroke-width="1"/><rect x="1320" y="837" width="109" height="10" fill="#EAEAEA" stroke="#EAEAEA" stroke-width="1"/><rect x="1518" y="837" width="80" height="10" fill="#EAEAEA" stroke="#EAEAEA" stroke-width="1"/><rect x="1662" y="837" width="40" height="10" fill="#EAEAEA" stroke="#EAEAEA" stroke-width="1"/><rect x="1735" y="837" width="94" height="10" fill="#EAEAEA" stroke="#EAEAEA" stroke-width="1"/><rect x="224" y="864" width="1672" height="44" fill="#FFFFFF" stroke="#E0E0E0" stroke-width="1"/><rect x="234" y="881" width="80" height="10" fill="#EAEAEA" stroke="#EAEAEA" stroke-width="1"/><rect x="379" y="881" width="58" height="10" fill="#EAEAEA" stroke="#EAEAEA" stroke-width="1"/><rect x="484" y="881" width="188" height="10" fill="#EAEAEA" stroke="#EAEAEA" stroke-width="1"/><rect x="826" y="881" width="94" height="10" fill="#EAEAEA" stroke="#EAEAEA" stroke-width="1"/><rect x="998" y="881" width="65" height="10" fill="#EAEAEA" stroke="#EAEAEA" stroke-width="1"/><rect x="1116" y="881" width="40" height="10" fill="#EAEAEA" stroke="#EAEAEA" stroke-width="1"/><rect x="1188" y="881" width="72" height="10" fill="#EAEAEA" stroke="#EAEAEA" stroke-width="1"/><rect x="1320" y="881" width="109" height="10" fill="#EAEAEA" stroke="#EAEAEA" stroke-width="1"/><rect x="1518" y="881" width="80" height="10" fill="#EAEAEA" stroke="#EAEAEA" stroke-width="1"/><rect x="1662" y="881" width="40" height="10" fill="#EAEAEA" stroke="#EAEAEA" stroke-width="1"/><rect x="1735" y="881" width="94" height="10" fill="#EAEAEA" stroke="#EAEAEA" stroke-width="1"/><rect x="224" y="908" width="1672" height="44" fill="#FFFFFF" stroke="#E0E0E0" stroke-width="1"/><rect x="234" y="925" width="80" height="10" fill="#EAEAEA" stroke="#EAEAEA" stroke-width="1"/><rect x="379" y="925" width="58" height="10" fill="#EAEAEA" stroke="#EAEAEA" stroke-width="1"/><rect x="484" y="925" width="188" height="10" fill="#EAEAEA" stroke="#EAEAEA" stroke-width="1"/><rect x="826" y="925" width="94" height="10" fill="#EAEAEA" stroke="#EAEAEA" stroke-width="1"/><rect x="998" y="925" width="65" height="10" fill="#EAEAEA" stroke="#EAEAEA" stroke-width="1"/><rect x="1116" y="925" width="40" height="10" fill="#EAEAEA" stroke="#EAEAEA" stroke-width="1"/><rect x="1188" y="925" width="72" height="10" fill="#EAEAEA" stroke="#EAEAEA" stroke-width="1"/><rect x="1320" y="925" width="109" height="10" fill="#EAEAEA" stroke="#EAEAEA" stroke-width="1"/><rect x="1518" y="925" width="80" height="10" fill="#EAEAEA" stroke="#EAEAEA" stroke-width="1"/><rect x="1662" y="925" width="40" height="10" fill="#EAEAEA" stroke="#EAEAEA" stroke-width="1"/><rect x="1735" y="925" width="94" height="10" fill="#EAEAEA" stroke="#EAEAEA" stroke-width="1"/></g><text x="224" y="982" font-family="Noto Sans KR" font-size="12" font-weight="400" fill="#555555" text-anchor="start">1–20 / 135 · 20건씩 · 행 클릭 → Alert 상세</text><text x="1896" y="982" font-family="Noto Sans KR" font-size="12" font-weight="400" fill="#555555" text-anchor="end">‹  1  2  …  7  ›</text><text x="224" y="1008" font-family="Noto Sans KR" font-size="11" font-weight="400" fill="#888888" text-anchor="start">상태: 미처리(OPEN) · 심층 조사 중(ESCALATED) · 종결(CLOSED + resolution) · 미열람 = 담당자가 아직 안 엶</text></svg>