<svg id="Wireframe v5 / Alert Detail · 개요" xmlns="http://www.w3.org/2000/svg" width="1920" height="1080" viewBox="0 0 1920 1080"><rect id="Background" x="0" y="0" width="1920" height="1080" fill="#FFFFFF" stroke="#FFFFFF" stroke-width="1"/><g id="AppShell/Sidebar (Collapsed)"><rect x="0" y="0" width="64" height="1080" fill="#E4E4E4" stroke="#C8C8C8" stroke-width="1"/><rect x="20" y="20" width="24" height="24" fill="#FFFFFF" stroke="#9A9A9A" stroke-width="1"/><text x="32" y="37" font-family="Noto Sans KR" font-size="12" font-weight="700" fill="#666666" text-anchor="middle">≡</text><rect x="20" y="84" width="24" height="24" fill="#FFFFFF" stroke="#9A9A9A" stroke-width="1"/><text x="32" y="101" font-family="Noto Sans KR" font-size="12" font-weight="700" fill="#666666" text-anchor="middle">D</text><rect x="0" y="128" width="64" height="64" fill="#D0D0D0" stroke="#D0D0D0" stroke-width="1"/><rect x="20" y="148" width="24" height="24" fill="#9A9A9A" stroke="#222222" stroke-width="1"/><text x="32" y="165" font-family="Noto Sans KR" font-size="12" font-weight="700" fill="#FFFFFF" text-anchor="middle">A</text><rect x="20" y="212" width="24" height="24" fill="#FFFFFF" stroke="#9A9A9A" stroke-width="1"/><text x="32" y="229" font-family="Noto Sans KR" font-size="12" font-weight="700" fill="#666666" text-anchor="middle">E</text><line x1="8" y1="888" x2="56" y2="888" stroke="#9A9A9A" stroke-width="1"/><rect x="20" y="908" width="24" height="24" fill="#FFFFFF" stroke="#9A9A9A" stroke-width="1"/><text x="32" y="925" font-family="Noto Sans KR" font-size="12" font-weight="700" fill="#666666" text-anchor="middle">N</text><rect x="20" y="972" width="24" height="24" fill="#FFFFFF" stroke="#9A9A9A" stroke-width="1"/><text x="32" y="989" font-family="Noto Sans KR" font-size="12" font-weight="700" fill="#666666" text-anchor="middle">S</text><rect x="20" y="1036" width="24" height="24" fill="#FFFFFF" stroke="#9A9A9A" stroke-width="1"/><text x="32" y="1053" font-family="Noto Sans KR" font-size="12" font-weight="700" fill="#666666" text-anchor="middle">U</text></g><g id="AppShell/Header"><rect x="64" y="0" width="1856" height="64" fill="#E4E4E4" stroke="#C8C8C8" stroke-width="1"/><text x="92" y="41" font-family="Noto Sans KR" font-size="22" font-weight="700" fill="#222222" text-anchor="start">AML RADAR</text><g id="Clock"><rect x="784" y="0" width="352" height="64" fill="#D0D0D0" stroke="#9A9A9A" stroke-width="1"/><text x="960" y="40" font-family="Noto Sans KR" font-size="18" font-weight="700" fill="#222222" text-anchor="middle">YYYY-MM-DD  HH:MM:SS</text></g><g id="TaskCount"><text x="1600" y="38" font-family="Noto Sans KR" font-size="13" font-weight="400" fill="#666666" text-anchor="end">TaskCount</text><rect x="1608" y="22" width="36" height="22" fill="#9A9A9A" stroke="#9A9A9A" stroke-width="1"/><text x="1626" y="38" font-family="Noto Sans KR" font-size="12" font-weight="700" fill="#FFFFFF" text-anchor="middle">53</text></g><rect x="1660" y="22" width="32" height="22" fill="#FFFFFF" stroke="#9A9A9A" stroke-width="1"/><text x="1676" y="38" font-family="Noto Sans KR" font-size="12" font-weight="700" fill="#222222" text-anchor="middle">L1</text><g id="UserProfile"><circle cx="1716" cy="33" r="10" fill="#9A9A9A"/><text x="1734" y="38" font-family="Noto Sans KR" font-size="13" font-weight="400" fill="#222222" text-anchor="start">김검토</text></g><rect x="1856" y="0" width="64" height="64" fill="#D0D0D0" stroke="#9A9A9A" stroke-width="1"/><text x="1888" y="38" font-family="Noto Sans KR" font-size="16" font-weight="700" fill="#222222" text-anchor="middle">⤢</text></g><g id="ScrollBar"><rect x="1896" y="72" width="8" height="1000" fill="#EFEFEF" stroke="#EFEFEF" stroke-width="1"/><rect x="1896" y="72" width="8" height="260" fill="#9A9A9A" stroke="#9A9A9A" stroke-width="1"/></g><g id="GlobalSearch (⌘K)"><rect x="280" y="12" width="460" height="40" fill="#FFFFFF" stroke="#9A9A9A" stroke-width="1"/><text x="296" y="38" font-family="Noto Sans KR" font-size="13" font-weight="400" fill="#999999" text-anchor="start">⌕  Alert ID · Episode ID · 계좌 검색</text><rect x="688" y="20" width="40" height="24" fill="#E4E4E4" stroke="#C8C8C8" stroke-width="1"/><text x="708" y="37" font-family="Noto Sans KR" font-size="11" font-weight="700" fill="#666666" text-anchor="middle">⌘K</text></g><g id="PageHeader"><text x="128" y="106" font-family="Noto Sans KR" font-size="12" font-weight="400" fill="#666666" text-anchor="start">ALERTS / 내 담당 / AL-000241 /</text><text x="128" y="190" font-family="Noto Sans KR" font-size="56" font-weight="700" fill="#222222" text-anchor="start">AL-000241</text><text x="128" y="246" font-family="Noto Sans KR" font-size="22" font-weight="700" fill="#222222" text-anchor="start">미처리 1일</text><rect x="248" y="230" width="68" height="22" fill="#FFFFFF" stroke="#9A9A9A" stroke-width="1"/><text x="258" y="246" font-family="Noto Sans KR" font-size="12" font-weight="400" fill="#222222" text-anchor="start">위험도 93</text><rect x="322" y="230" width="76" height="22" fill="#FFFFFF" stroke="#9A9A9A" stroke-width="1"/><text x="332" y="246" font-family="Noto Sans KR" font-size="12" font-weight="400" fill="#222222" text-anchor="start">상위 0.2%</text><rect x="404" y="230" width="76" height="22" fill="#FFFFFF" stroke="#9A9A9A" stroke-width="1"/><text x="414" y="246" font-family="Noto Sans KR" font-size="12" font-weight="400" fill="#222222" text-anchor="start">FAN_OUT</text><rect x="486" y="230" width="140" height="22" fill="#FFFFFF" stroke="#9A9A9A" stroke-width="1"/><text x="496" y="246" font-family="Noto Sans KR" font-size="12" font-weight="400" fill="#222222" text-anchor="start">대표 계좌 800737690</text><rect x="632" y="230" width="108" height="22" fill="#FFFFFF" stroke="#9A9A9A" stroke-width="1"/><text x="642" y="246" font-family="Noto Sans KR" font-size="12" font-weight="400" fill="#222222" text-anchor="start">담당 김검토 (자동)</text><rect x="1648" y="137" width="184" height="64" fill="#9A9A9A" stroke="#9A9A9A" stroke-width="1"/><text x="1732" y="175" font-family="Noto Sans KR" font-size="16" font-weight="700" fill="#FFFFFF" text-anchor="middle">심층 요청 ▾</text><text x="1808" y="175" font-family="Noto Sans KR" font-size="14" font-weight="700" fill="#FFFFFF" text-anchor="middle">↗</text><rect x="1480" y="137" width="160" height="64" fill="#FFFFFF" stroke="#222222" stroke-width="1"/><text x="1552" y="175" font-family="Noto Sans KR" font-size="16" font-weight="700" fill="#222222" text-anchor="middle">오탐 종결</text><text x="1616" y="175" font-family="Noto Sans KR" font-size="14" font-weight="700" fill="#222222" text-anchor="middle">↗</text><rect x="1312" y="137" width="160" height="64" fill="#FFFFFF" stroke="#C8C8C8" stroke-width="1"/><text x="1384" y="175" font-family="Noto Sans KR" font-size="16" font-weight="700" fill="#222222" text-anchor="middle">정상 종결</text><text x="1448" y="175" font-family="Noto Sans KR" font-size="14" font-weight="700" fill="#222222" text-anchor="middle">↗</text><line x1="128" y1="270" x2="1832" y2="270" stroke="#222222" stroke-width="2"/></g><g id="Tabs"><text x="158" y="306" font-family="Noto Sans KR" font-size="15" font-weight="700" fill="#222222" text-anchor="middle">개요</text><rect x="128" y="318" width="60" height="3" fill="#222222" stroke="#222222" stroke-width="1"/><text x="247" y="306" font-family="Noto Sans KR" font-size="15" font-weight="400" fill="#666666" text-anchor="middle">자금 흐름</text><text x="413" y="306" font-family="Noto Sans KR" font-size="15" font-weight="400" fill="#666666" text-anchor="middle">거래 16 · 계좌 17</text><text x="558" y="306" font-family="Noto Sans KR" font-size="15" font-weight="400" fill="#666666" text-anchor="middle">이력</text><text x="1788" y="306" font-family="Noto Sans KR" font-size="14" font-weight="400" fill="#666666" text-anchor="middle">감사 로그</text><text x="1600" y="306" font-family="Noto Sans KR" font-size="14" font-weight="400" fill="#666666" text-anchor="middle">AI 어시스턴트 ▸ (FUTURE)</text><line x1="128" y1="321" x2="1832" y2="321" stroke="#C8C8C8" stroke-width="1"/></g><rect x="128" y="348" width="557" height="270" fill="#F2F2F2" stroke="#C8C8C8" stroke-width="1"/><text x="144" y="376" font-family="Noto Sans KR" font-size="13" font-weight="700" fill="#666666" text-anchor="start">의심 활동</text><line x1="144" y1="388" x2="669" y2="388" stroke="#C8C8C8" stroke-width="1"/><text x="144" y="434" font-family="Noto Sans KR" font-size="30" font-weight="700" fill="#222222" text-anchor="start">USD 5,942,113</text><text x="144" y="458" font-family="Noto Sans KR" font-size="12" font-weight="400" fill="#666666" text-anchor="start">거래 16 · 4일 · 송금만 발생</text><rect x="144" y="524" width="18" height="10" fill="#7A7A7A" stroke="#7A7A7A" stroke-width="1"/><rect x="144" y="534" width="18" height="17" fill="#C4C4C4" stroke="#C4C4C4" stroke-width="1"/><rect x="173" y="504" width="18" height="30" fill="#7A7A7A" stroke="#7A7A7A" stroke-width="1"/><rect x="173" y="534" width="18" height="26" fill="#C4C4C4" stroke="#C4C4C4" stroke-width="1"/><rect x="202" y="484" width="18" height="50" fill="#7A7A7A" stroke="#7A7A7A" stroke-width="1"/><rect x="232" y="514" width="18" height="20" fill="#7A7A7A" stroke="#7A7A7A" stroke-width="1"/><rect x="232" y="534" width="18" height="8" fill="#C4C4C4" stroke="#C4C4C4" stroke-width="1"/><rect x="261" y="494" width="18" height="40" fill="#7A7A7A" stroke="#7A7A7A" stroke-width="1"/><rect x="261" y="534" width="18" height="17" fill="#C4C4C4" stroke="#C4C4C4" stroke-width="1"/><rect x="290" y="524" width="18" height="10" fill="#7A7A7A" stroke="#7A7A7A" stroke-width="1"/><rect x="290" y="534" width="18" height="26" fill="#C4C4C4" stroke="#C4C4C4" stroke-width="1"/><rect x="319" y="504" width="18" height="30" fill="#7A7A7A" stroke="#7A7A7A" stroke-width="1"/><rect x="348" y="484" width="18" height="50" fill="#7A7A7A" stroke="#7A7A7A" stroke-width="1"/><rect x="348" y="534" width="18" height="8" fill="#C4C4C4" stroke="#C4C4C4" stroke-width="1"/><rect x="377" y="514" width="18" height="20" fill="#7A7A7A" stroke="#7A7A7A" stroke-width="1"/><rect x="377" y="534" width="18" height="17" fill="#C4C4C4" stroke="#C4C4C4" stroke-width="1"/><rect x="407" y="494" width="18" height="40" fill="#7A7A7A" stroke="#7A7A7A" stroke-width="1"/><rect x="407" y="534" width="18" height="26" fill="#C4C4C4" stroke="#C4C4C4" stroke-width="1"/><rect x="436" y="524" width="18" height="10" fill="#7A7A7A" stroke="#7A7A7A" stroke-width="1"/><rect x="465" y="504" width="18" height="30" fill="#7A7A7A" stroke="#7A7A7A" stroke-width="1"/><rect x="465" y="534" width="18" height="8" fill="#C4C4C4" stroke="#C4C4C4" stroke-width="1"/><rect x="494" y="484" width="18" height="50" fill="#7A7A7A" stroke="#7A7A7A" stroke-width="1"/><rect x="494" y="534" width="18" height="17" fill="#C4C4C4" stroke="#C4C4C4" stroke-width="1"/><rect x="523" y="514" width="18" height="20" fill="#7A7A7A" stroke="#7A7A7A" stroke-width="1"/><rect x="523" y="534" width="18" height="26" fill="#C4C4C4" stroke="#C4C4C4" stroke-width="1"/><rect x="553" y="494" width="18" height="40" fill="#7A7A7A" stroke="#7A7A7A" stroke-width="1"/><rect x="582" y="524" width="18" height="10" fill="#7A7A7A" stroke="#7A7A7A" stroke-width="1"/><rect x="582" y="534" width="18" height="8" fill="#C4C4C4" stroke="#C4C4C4" stroke-width="1"/><rect x="611" y="504" width="18" height="30" fill="#7A7A7A" stroke="#7A7A7A" stroke-width="1"/><rect x="611" y="534" width="18" height="17" fill="#C4C4C4" stroke="#C4C4C4" stroke-width="1"/><rect x="640" y="484" width="18" height="50" fill="#7A7A7A" stroke="#7A7A7A" stroke-width="1"/><rect x="640" y="534" width="18" height="26" fill="#C4C4C4" stroke="#C4C4C4" stroke-width="1"/><line x1="144" y1="534" x2="669" y2="534" stroke="#9A9A9A" stroke-width="1"/><rect x="144" y="586" width="10" height="10" fill="#7A7A7A" stroke="#7A7A7A" stroke-width="1"/><text x="160" y="595" font-family="Noto Sans KR" font-size="11" font-weight="400" fill="#666666" text-anchor="start">유입</text><rect x="204" y="586" width="10" height="10" fill="#C4C4C4" stroke="#C4C4C4" stroke-width="1"/><text x="220" y="595" font-family="Noto Sans KR" font-size="11" font-weight="400" fill="#666666" text-anchor="start">유출</text><rect x="701" y="348" width="557" height="270" fill="#F2F2F2" stroke="#C8C8C8" stroke-width="1"/><text x="717" y="376" font-family="Noto Sans KR" font-size="13" font-weight="700" fill="#666666" text-anchor="start">요약 (API 필드 값 · 판단 문장 없음)</text><line x1="717" y1="388" x2="1243" y2="388" stroke="#C8C8C8" stroke-width="1"/><g id="Badge/PatternType · FAN_OUT"><rect x="721" y="406" width="75" height="22" fill="#C9C9C9" stroke="#C9C9C9" stroke-width="1"/><text x="730" y="421" font-family="Noto Sans KR" font-size="11" font-weight="700" fill="#222222" text-anchor="start">FAN_OUT</text></g><text x="811" y="422" font-family="Noto Sans KR" font-size="12" font-weight="400" fill="#666666" text-anchor="start">유형 점수 0.82 · 순도 0.31</text><circle cx="725.3333333333334" cy="462" r="4" fill="#9A9A9A"/><text x="739" y="466" font-family="Noto Sans KR" font-size="13" font-weight="400" fill="#222222" text-anchor="start">송신 1 → 수신 16계좌 · 12개 은행</text><circle cx="725.3333333333334" cy="496" r="4" fill="#9A9A9A"/><text x="739" y="500" font-family="Noto Sans KR" font-size="13" font-weight="400" fill="#222222" text-anchor="start">96시간 창 · 임계 0.70 초과 12/16 · 최고 .97</text><circle cx="725.3333333333334" cy="530" r="4" fill="#9A9A9A"/><text x="739" y="534" font-family="Noto Sans KR" font-size="13" font-weight="400" fill="#222222" text-anchor="start">두 모델 합의 STRONG · 점수 가중 USD 5.61M</text><circle cx="725.3333333333334" cy="564" r="4" fill="#9A9A9A"/><text x="739" y="568" font-family="Noto Sans KR" font-size="13" font-weight="400" fill="#222222" text-anchor="start">계좌 연령 32일 · 30일 신규 상대방 9</text><rect x="1275" y="348" width="557" height="270" fill="#F2F2F2" stroke="#C8C8C8" stroke-width="1"/><text x="1291" y="376" font-family="Noto Sans KR" font-size="13" font-weight="700" fill="#666666" text-anchor="start">연결 가능한 Episode</text><line x1="1291" y1="388" x2="1816" y2="388" stroke="#C8C8C8" stroke-width="1"/><rect x="1291" y="404" width="525" height="72" fill="#FFFFFF" stroke="#C8C8C8" stroke-width="1"/><text x="1307" y="430" font-family="Noto Sans KR" font-size="13" font-weight="700" fill="#222222" text-anchor="start">EP-000012 · 조사 중 · 담당 이분석</text><g id="Badge/PatternType · FAN_IN"><rect x="1307" y="442" width="67" height="22" fill="#C9C9C9" stroke="#C9C9C9" stroke-width="1"/><text x="1316" y="457" font-family="Noto Sans KR" font-size="11" font-weight="700" fill="#222222" text-anchor="start">FAN_IN</text></g><g id="Badge/PatternType · CYCLE"><rect x="1379" y="442" width="59" height="22" fill="#C9C9C9" stroke="#C9C9C9" stroke-width="1"/><text x="1388" y="457" font-family="Noto Sans KR" font-size="11" font-weight="700" fill="#222222" text-anchor="start">CYCLE</text></g><text x="1451" y="458" font-family="Noto Sans KR" font-size="12" font-weight="400" fill="#666666" text-anchor="start">공통 계좌 8007A5B70</text><rect x="1291" y="494" width="525" height="44" fill="#FFFFFF" stroke="#222222" stroke-width="1"/><text x="1553" y="521" font-family="Noto Sans KR" font-size="14" font-weight="700" fill="#222222" text-anchor="middle">+ 이 Episode에 연결</text><text x="1291" y="570" font-family="Noto Sans KR" font-size="12" font-weight="400" fill="#666666" text-anchor="start">또는 심층 요청 ▾ → 신규 Episode 생성 (L2 자동 배정)</text><text x="128" y="660" font-family="Noto Sans KR" font-size="16" font-weight="700" fill="#222222" text-anchor="start">대표 계좌 · 800737690</text><text x="440" y="660" font-family="Noto Sans KR" font-size="12" font-weight="400" fill="#999999" text-anchor="start">021174 Portugal Bank #4507 · SUBJECT · HUB</text><rect x="128" y="676" width="414" height="120" fill="#F2F2F2" stroke="#C8C8C8" stroke-width="1"/><text x="144" y="704" font-family="Noto Sans KR" font-size="13" font-weight="700" fill="#666666" text-anchor="start">72시간 송금 건수</text><text x="144" y="756" font-family="Noto Sans KR" font-size="34" font-weight="700" fill="#222222" text-anchor="start">14 · ×6.7</text><polyline fill="none" stroke="#9A9A9A" stroke-width="2" points="392,744 404,736 416,745 427,762 439,755 451,738 463,739 475,750 487,759 498,755 510,738 522,736"/><rect x="558" y="676" width="414" height="120" fill="#F2F2F2" stroke="#C8C8C8" stroke-width="1"/><text x="574" y="704" font-family="Noto Sans KR" font-size="13" font-weight="700" fill="#666666" text-anchor="start">30일 신규 상대방</text><text x="574" y="756" font-family="Noto Sans KR" font-size="34" font-weight="700" fill="#222222" text-anchor="start">9 / 1.2</text><polyline fill="none" stroke="#9A9A9A" stroke-width="2" points="822,737 834,744 846,756 857,760 869,743 881,734 893,748 905,760 917,754 928,743 940,736 952,747"/><rect x="988" y="676" width="414" height="120" fill="#F2F2F2" stroke="#C8C8C8" stroke-width="1"/><text x="1004" y="704" font-family="Noto Sans KR" font-size="13" font-weight="700" fill="#666666" text-anchor="start">24시간 송신 차수</text><text x="1004" y="756" font-family="Noto Sans KR" font-size="34" font-weight="700" fill="#222222" text-anchor="start">7 / 1</text><polyline fill="none" stroke="#9A9A9A" stroke-width="2" points="1252,742 1264,756 1276,758 1287,749 1299,736 1311,741 1323,760 1335,758 1347,742 1358,737 1370,745 1382,757"/><rect x="1418" y="676" width="414" height="120" fill="#F2F2F2" stroke="#C8C8C8" stroke-width="1"/><text x="1434" y="704" font-family="Noto Sans KR" font-size="13" font-weight="700" fill="#666666" text-anchor="start">Alert 점수 vs 임계</text><text x="1434" y="746" font-family="Noto Sans KR" font-size="28" font-weight="700" fill="#222222" text-anchor="start">.97 / .70</text><rect x="1434" y="762" width="382" height="8" fill="#DDDDDD" stroke="#DDDDDD" stroke-width="1"/><rect x="1434" y="762" width="371" height="8" fill="#9A9A9A" stroke="#9A9A9A" stroke-width="1"/><polygon points="1799,752 1811,752 1805,761" fill="#222222"/><text x="1434" y="784" font-family="Noto Sans KR" font-size="11" font-weight="400" fill="#999999" text-anchor="start">임계 대비 1.39×</text><text x="128" y="836" font-family="Noto Sans KR" font-size="16" font-weight="700" fill="#222222" text-anchor="start">설명 요인</text><text x="248" y="836" font-family="Noto Sans KR" font-size="12" font-weight="400" fill="#999999" text-anchor="start">대표 계좌의 30일 기준선 대비</text><rect x="128" y="852" width="1704" height="176" fill="#FAFAFA" stroke="#9A9A9A" stroke-width="1" stroke-dasharray="6 4"/><rect x="136" y="860" width="112" height="22" fill="#FFFFFF" stroke="#9A9A9A" stroke-width="1" stroke-dasharray="6 4"/><text x="144" y="876" font-family="Noto Sans KR" font-size="12" font-weight="700" fill="#666666" text-anchor="start">생성 주체 미결</text><rect x="144" y="884" width="320" height="112" fill="#F2F2F2" stroke="#C8C8C8" stroke-width="1"/><text x="160" y="912" font-family="Noto Sans KR" font-size="14" font-weight="700" fill="#222222" text-anchor="start">72시간 송금 건수</text><text x="160" y="938" font-family="Noto Sans KR" font-size="12" font-weight="400" fill="#666666" text-anchor="start">14 · ×6.7</text><rect x="480" y="884" width="320" height="112" fill="#F2F2F2" stroke="#C8C8C8" stroke-width="1"/><text x="496" y="912" font-family="Noto Sans KR" font-size="14" font-weight="700" fill="#222222" text-anchor="start">30일 신규 상대방 수</text><text x="496" y="938" font-family="Noto Sans KR" font-size="12" font-weight="400" fill="#666666" text-anchor="start">9 / 1.2</text><rect x="816" y="884" width="320" height="112" fill="#F2F2F2" stroke="#C8C8C8" stroke-width="1"/><text x="832" y="912" font-family="Noto Sans KR" font-size="14" font-weight="700" fill="#222222" text-anchor="start">24시간 송신 차수</text><text x="832" y="938" font-family="Noto Sans KR" font-size="12" font-weight="400" fill="#666666" text-anchor="start">7 / 1</text><rect x="1152" y="884" width="664" height="112" fill="#FFFFFF" stroke="#C8C8C8" stroke-width="1"/><text x="1168" y="918" font-family="Noto Sans KR" font-size="14" font-weight="400" fill="#222222" text-anchor="start">"직전 72시간 송금 14건 — 7일 평균 2.1건의 6.7배. 30일 내 처음 보는 상대방 9곳. 계좌 연령 32일."</text><text x="1168" y="948" font-family="Noto Sans KR" font-size="11" font-weight="400" fill="#999999" text-anchor="start">피처 편차 상위 3에서 조립한 문장 — 생성 주체 팀 결정 전</text></svg>