<svg id="Wireframe v8 / Alert to Episode · existing" xmlns="http://www.w3.org/2000/svg" width="1920" height="1080" viewBox="0 0 1920 1080"><rect id="Background" x="0.0" y="0.0" width="1920.0" height="1080.0" rx="0" fill="#FFFFFF" stroke="none"/><g id="Sidebar · collapsible=icon · state=collapsed"><rect x="0.0" y="0.0" width="48.0" height="1080.0" rx="0" fill="#FAFAFA" stroke="none"/><line x1="48.0" y1="0.0" x2="48.0" y2="1080.0" stroke="#E4E4E7" stroke-width="1"/><g id="SidebarHeader · SidebarTrigger"><g id="SidebarTrigger · Button ghost icon"><g id="Icon · lucide/panel-left"><rect x="18.0" y="18.0" width="12.0" height="12.0" rx="2.0" fill="none" stroke="#18181B" stroke-width="1.5"/><line x1="22.0" y1="18.0" x2="22.0" y2="30.0" stroke="#18181B" stroke-width="1.5" stroke-linecap="round"/></g></g></g><g id="SidebarMenuButton · DASHBOARD"><g id="Icon · lucide/layout-dashboard"><rect x="18.0" y="66.0" width="5.0" height="5.0" rx="1.0" fill="none" stroke="#71717A" stroke-width="1.5"/><rect x="25.0" y="66.0" width="5.0" height="3.0" rx="1.0" fill="none" stroke="#71717A" stroke-width="1.5"/><rect x="18.0" y="73.0" width="5.0" height="5.0" rx="1.0" fill="none" stroke="#71717A" stroke-width="1.5"/><rect x="25.0" y="71.0" width="5.0" height="7.0" rx="1.0" fill="none" stroke="#71717A" stroke-width="1.5"/></g></g><g id="SidebarMenuButton · ALERTS · isActive"><rect x="8.0" y="92.0" width="32.0" height="32.0" rx="6" fill="#E4E4E7" stroke="none"/><g id="Icon · lucide/siren"><polyline points="20.0,111.0 20.0,108.0 21.0,104.0 24.0,102.0 27.0,104.0 28.0,108.0 28.0,111.0" fill="none" stroke="#18181B" stroke-width="1.5" stroke-linecap="round" stroke-linejoin="round"/><line x1="18.0" y1="113.0" x2="30.0" y2="113.0" stroke="#18181B" stroke-width="1.5" stroke-linecap="round"/><line x1="18.0" y1="106.0" x2="16.5" y2="105.0" stroke="#18181B" stroke-width="1.5" stroke-linecap="round"/><line x1="30.0" y1="106.0" x2="31.5" y2="105.0" stroke="#18181B" stroke-width="1.5" stroke-linecap="round"/></g></g><g id="SidebarMenuButton · EPISODES"><g id="Icon · lucide/folder-search"><polyline points="18.0,141.0 18.0,139.0 23.0,139.0 25.0,141.0 30.0,141.0 30.0,149.0 18.0,149.0 18.0,141.0" fill="none" stroke="#71717A" stroke-width="1.5" stroke-linecap="round" stroke-linejoin="round"/><circle cx="24.0" cy="145.0" r="2.3" fill="none" stroke="#71717A" stroke-width="1.5"/><line x1="25.7" y1="146.7" x2="27.5" y2="148.5" stroke="#71717A" stroke-width="1.5" stroke-linecap="round"/></g></g><g id="SidebarMenuButton · NOTIFICATIONS"><g id="Icon · lucide/bell"><polyline points="19.0,983.0 21.0,981.0 21.0,978.0 22.0,975.5 24.0,974.5 26.0,975.5 27.0,978.0 27.0,981.0 29.0,983.0 19.0,983.0" fill="none" stroke="#71717A" stroke-width="1.5" stroke-linecap="round" stroke-linejoin="round"/><polyline points="22.5,985.0 24.0,986.0 25.5,985.0" fill="none" stroke="#71717A" stroke-width="1.5" stroke-linecap="round" stroke-linejoin="round"/></g></g><g id="SidebarMenuButton · SETTINGS"><g id="Icon · lucide/settings"><circle cx="24.0" cy="1016.0" r="2.2" fill="none" stroke="#71717A" stroke-width="1.5"/><circle cx="24.0" cy="1016.0" r="5.5" fill="none" stroke="#71717A" stroke-width="1.5"/><line x1="24.0" y1="1008.5" x2="24.0" y2="1010.5" stroke="#71717A" stroke-width="1.5" stroke-linecap="round"/><line x1="24.0" y1="1021.5" x2="24.0" y2="1023.5" stroke="#71717A" stroke-width="1.5" stroke-linecap="round"/><line x1="16.5" y1="1016.0" x2="18.5" y2="1016.0" stroke="#71717A" stroke-width="1.5" stroke-linecap="round"/><line x1="29.5" y1="1016.0" x2="31.5" y2="1016.0" stroke="#71717A" stroke-width="1.5" stroke-linecap="round"/></g></g><g id="SidebarMenuButton · ACCOUNT"><g id="Icon · lucide/user"><circle cx="24.0" cy="1049.0" r="3.0" fill="none" stroke="#71717A" stroke-width="1.5"/><polyline points="18.5,1058.0 19.5,1055.0 22.0,1053.5 26.0,1053.5 28.5,1055.0 29.5,1058.0" fill="none" stroke="#71717A" stroke-width="1.5" stroke-linecap="round" stroke-linejoin="round"/></g></g></g><g id="Header · SidebarInset"><line x1="48.0" y1="48.0" x2="1920.0" y2="48.0" stroke="#E4E4E7" stroke-width="1"/><g id="Brand"><rect x="60.0" y="8.0" width="32.0" height="32.0" rx="8" fill="#27272A" stroke="none"/><g id="Icon · lucide/radar"><circle cx="76.0" cy="24.0" r="6.0" fill="none" stroke="#FFFFFF" stroke-width="1.5"/><circle cx="76.0" cy="24.0" r="3.0" fill="none" stroke="#FFFFFF" stroke-width="1.5"/><circle cx="76.0" cy="24.0" r="0.8" fill="none" stroke="#FFFFFF" stroke-width="1.5"/><line x1="76.0" y1="24.0" x2="81.0" y2="19.0" stroke="#FFFFFF" stroke-width="1.5" stroke-linecap="round"/><circle cx="80.0" cy="20.0" r="1.0" fill="none" stroke="#FFFFFF" stroke-width="1.5"/></g><text x="100" y="29" font-family="Noto Sans KR" font-size="14" font-weight="600" fill="#18181B" text-anchor="start">AML RADAR</text></g><g id="CommandDialogTrigger · GlobalSearch"><g id="Button/Input · CommandDialogTrigger"><rect x="700.0" y="8.0" width="520.0" height="32.0" rx="8" fill="#FFFFFF" stroke="#D4D4D8" stroke-width="1"/><g id="Icon · lucide/search"><circle cx="717.0" cy="23.0" r="5.0" fill="none" stroke="#71717A" stroke-width="1.5"/><polyline fill="none" stroke="#71717A" stroke-width="1.5" stroke-linecap="round" stroke-linejoin="round" points="721.0,27.0 724.5,30.5"/></g><text x="734" y="29" font-family="Noto Sans KR" font-size="14" font-weight="400" fill="#71717A" text-anchor="start">전역 검색</text></g><rect id="Kbd · Windows" x="1178.0" y="14.0" width="30.0" height="20.0" rx="5" fill="#F4F4F5" stroke="#E4E4E7" stroke-width="1"/><text x="1193" y="28" font-family="Noto Sans KR" font-size="11" font-weight="600" fill="#71717A" text-anchor="middle">/</text></g><g id="FullscreenControl · Fullscreen API + F11"><rect x="1812.0" y="8.0" width="84.0" height="32.0" rx="8" fill="#FFFFFF" stroke="#D4D4D8" stroke-width="1"/><g id="Icon · lucide/maximize"><polyline points="1822.0,22.0 1822.0,18.0 1826.0,18.0" fill="none" stroke="#18181B" stroke-width="1.5" stroke-linecap="round" stroke-linejoin="round"/><polyline points="1830.0,18.0 1834.0,18.0 1834.0,22.0" fill="none" stroke="#18181B" stroke-width="1.5" stroke-linecap="round" stroke-linejoin="round"/><polyline points="1834.0,26.0 1834.0,30.0 1830.0,30.0" fill="none" stroke="#18181B" stroke-width="1.5" stroke-linecap="round" stroke-linejoin="round"/><polyline points="1826.0,30.0 1822.0,30.0 1822.0,26.0" fill="none" stroke="#18181B" stroke-width="1.5" stroke-linecap="round" stroke-linejoin="round"/></g><rect x="1846.0" y="14.0" width="38.0" height="20.0" rx="5" fill="#F4F4F5" stroke="#E4E4E7" stroke-width="1"/><text x="1865" y="28" font-family="Noto Sans KR" font-size="11" font-weight="500" fill="#71717A" text-anchor="middle">F11</text></g><g id="NavUser · separate role account"><text x="1796" y="29" font-family="Noto Sans KR" font-size="14" font-weight="500" fill="#18181B" text-anchor="end">오검토</text><g id="Avatar"><circle cx="1734.1" cy="24.0" r="14.0" fill="#E4E4E7"/><text x="1734" y="28" font-family="Noto Sans KR" font-size="12" font-weight="500" fill="#18181B" text-anchor="middle">오</text></g></g><g id="Badge · Role=L1"><rect x="1678.8" y="14.0" width="27.3" height="20.0" rx="10" fill="#FFFFFF" stroke="#D4D4D8" stroke-width="1"/><text x="1687" y="28" font-family="Noto Sans KR" font-size="12" font-weight="500" fill="#18181B" text-anchor="start">L1</text></g><text x="1671" y="29" font-family="Noto Sans KR" font-size="14" font-weight="400" fill="#71717A" text-anchor="end">역할</text><g id="Badge · TaskCount"><rect x="1591.9" y="14.0" width="30.9" height="20.0" rx="10" fill="#27272A" stroke="#27272A" stroke-width="1"/><text x="1600" y="28" font-family="Noto Sans KR" font-size="12" font-weight="500" fill="#FFFFFF" text-anchor="start">53</text></g><text x="1584" y="29" font-family="Noto Sans KR" font-size="14" font-weight="400" fill="#71717A" text-anchor="end">내 할 일</text></g><g id="PageHeader"><g id="Breadcrumb"><text x="72" y="87" font-family="Noto Sans KR" font-size="14" font-weight="400" fill="#71717A" text-anchor="start">ALERTS</text><g id="Icon · lucide/chevron-right"><polyline fill="none" stroke="#71717A" stroke-width="1.5" stroke-linecap="round" stroke-linejoin="round" points="135.3,78.5 138.8,82.0 135.3,85.5"/></g><text x="150" y="87" font-family="Noto Sans KR" font-size="14" font-weight="400" fill="#18181B" text-anchor="start">AL-000241</text></g><text x="72" y="128" font-family="Noto Sans KR" font-size="26" font-weight="600" fill="#18181B" text-anchor="start">AL-000241</text><text x="72" y="160" font-family="Noto Sans KR" font-size="14" font-weight="400" fill="#71717A" text-anchor="start">탐지 근거와 자금 흐름 검토</text><g id="Badge · variant=outline · 미처리"><rect x="248.2" y="146.0" width="50.2" height="20.0" rx="10" fill="#FFFFFF" stroke="#D4D4D8" stroke-width="1"/><text x="256" y="160" font-family="Noto Sans KR" font-size="12" font-weight="500" fill="#18181B" text-anchor="start">미처리</text></g><g id="Button · variant=default · size=default · Episode로 조사"><rect x="1780.7" y="100.0" width="115.3" height="32.0" rx="8" fill="#27272A" stroke="#27272A" stroke-width="1"/><text x="1791" y="121" font-family="Noto Sans KR" font-size="14" font-weight="500" fill="#FFFFFF" text-anchor="start">Episode로 조사</text></g><g id="Button · variant=outline · size=default · 오탐 종결"><rect x="1695.0" y="100.0" width="77.7" height="32.0" rx="8" fill="#FFFFFF" stroke="#D4D4D8" stroke-width="1"/><text x="1705" y="121" font-family="Noto Sans KR" font-size="14" font-weight="500" fill="#18181B" text-anchor="start">오탐 종결</text></g><g id="Button · variant=outline · size=default · 정상 종결"><rect x="1609.3" y="100.0" width="77.7" height="32.0" rx="8" fill="#FFFFFF" stroke="#D4D4D8" stroke-width="1"/><text x="1619" y="121" font-family="Noto Sans KR" font-size="14" font-weight="500" fill="#18181B" text-anchor="start">정상 종결</text></g><line x1="72.0" y1="180.0" x2="1896.0" y2="180.0" stroke="#E4E4E7" stroke-width="1"/></g><g id="Tabs · underline · Alert detail · rationale=content hierarchy"><text x="115" y="206" font-family="Noto Sans KR" font-size="13" font-weight="600" fill="#18181B" text-anchor="middle">개요</text><rect x="84.0" y="223.0" width="62.0" height="3.0" rx="1" fill="#18181B" stroke="none"/><text x="202" y="206" font-family="Noto Sans KR" font-size="13" font-weight="400" fill="#71717A" text-anchor="middle">자금 흐름</text><text x="289" y="206" font-family="Noto Sans KR" font-size="13" font-weight="400" fill="#71717A" text-anchor="middle">거래</text><text x="375" y="206" font-family="Noto Sans KR" font-size="13" font-weight="400" fill="#71717A" text-anchor="middle">이력</text><line x1="72.0" y1="226.0" x2="1896.0" y2="226.0" stroke="#E4E4E7" stroke-width="1"/></g><g id="Card · evidence summary · rationale=answer why flagged"><rect x="72.0" y="244.0" width="1116.0" height="154.0" rx="12" fill="#FFFFFF" stroke="#E4E4E7" stroke-width="1"/><text x="88" y="276" font-family="Noto Sans KR" font-size="16" font-weight="500" fill="#18181B" text-anchor="start">탐지 이유</text><text x="88" y="300" font-family="Noto Sans KR" font-size="14" font-weight="400" fill="#71717A" text-anchor="start">관측값과 판정 기준</text></g><g id="Metric · Pattern"><text x="92" y="332" font-family="Noto Sans KR" font-size="12" font-weight="500" fill="#71717A" text-anchor="start">Pattern</text><text x="92" y="358" font-family="Noto Sans KR" font-size="17" font-weight="600" fill="#18181B" text-anchor="start">FAN_OUT</text></g><g id="Metric · 위험도"><text x="308" y="332" font-family="Noto Sans KR" font-size="12" font-weight="500" fill="#71717A" text-anchor="start">위험도</text><text x="308" y="358" font-family="Noto Sans KR" font-size="17" font-weight="600" fill="#18181B" text-anchor="start">93 · 상위 0.2%</text></g><g id="Metric · 분산 계좌"><text x="524" y="332" font-family="Noto Sans KR" font-size="12" font-weight="500" fill="#71717A" text-anchor="start">분산 계좌</text><text x="524" y="358" font-family="Noto Sans KR" font-size="17" font-weight="600" fill="#18181B" text-anchor="start">16</text><text x="524" y="378" font-family="Noto Sans KR" font-size="11" font-weight="400" fill="#71717A" text-anchor="start">기준 5</text></g><g id="Metric · 은행 수"><text x="740" y="332" font-family="Noto Sans KR" font-size="12" font-weight="500" fill="#71717A" text-anchor="start">은행 수</text><text x="740" y="358" font-family="Noto Sans KR" font-size="17" font-weight="600" fill="#18181B" text-anchor="start">12</text><text x="740" y="378" font-family="Noto Sans KR" font-size="11" font-weight="400" fill="#71717A" text-anchor="start">기간 96h</text></g><g id="Metric · 신규 상대방"><text x="956" y="332" font-family="Noto Sans KR" font-size="12" font-weight="500" fill="#71717A" text-anchor="start">신규 상대방</text><text x="956" y="358" font-family="Noto Sans KR" font-size="17" font-weight="600" fill="#18181B" text-anchor="start">9</text><text x="956" y="378" font-family="Noto Sans KR" font-size="11" font-weight="400" fill="#71717A" text-anchor="start">30일</text></g><g id="Card · Alert 범위"><rect x="1204.0" y="244.0" width="692.0" height="154.0" rx="12" fill="#FFFFFF" stroke="#E4E4E7" stroke-width="1"/><text x="1220" y="276" font-family="Noto Sans KR" font-size="16" font-weight="500" fill="#18181B" text-anchor="start">Alert 범위</text><text x="1220" y="300" font-family="Noto Sans KR" font-size="14" font-weight="400" fill="#71717A" text-anchor="start">조사 대상 규모</text></g><g id="Metric · 대표 계좌"><text x="1222" y="332" font-family="Noto Sans KR" font-size="12" font-weight="500" fill="#71717A" text-anchor="start">대표 계좌</text><text x="1222" y="358" font-family="Noto Sans KR" font-size="17" font-weight="600" fill="#18181B" text-anchor="start">***-****-8800</text></g><g id="Metric · 관련"><text x="1412" y="332" font-family="Noto Sans KR" font-size="12" font-weight="500" fill="#71717A" text-anchor="start">관련</text><text x="1412" y="358" font-family="Noto Sans KR" font-size="17" font-weight="600" fill="#18181B" text-anchor="start">계좌 17 · 은행 12</text></g><g id="Metric · 금액"><text x="1602" y="332" font-family="Noto Sans KR" font-size="12" font-weight="500" fill="#71717A" text-anchor="start">금액</text><text x="1602" y="358" font-family="Noto Sans KR" font-size="17" font-weight="600" fill="#18181B" text-anchor="start">USD 5.94M</text></g><g id="Chart Card · rationale=compare direction over time"><rect x="72.0" y="414.0" width="1116.0" height="300.0" rx="12" fill="#FFFFFF" stroke="#E4E4E7" stroke-width="1"/><text x="88" y="446" font-family="Noto Sans KR" font-size="16" font-weight="500" fill="#18181B" text-anchor="start">대표 계좌 일별 유입·유출</text><text x="88" y="470" font-family="Noto Sans KR" font-size="14" font-weight="400" fill="#71717A" text-anchor="start">최근 7일 · USD · 0선</text></g><line x1="136.0" y1="522.0" x2="1164.0" y2="522.0" stroke="#E4E4E7" stroke-width="1"/><text x="126" y="526" font-family="Noto Sans KR" font-size="10" font-weight="400" fill="#71717A" text-anchor="end">+2M</text><line x1="136.0" y1="630.0" x2="1164.0" y2="630.0" stroke="#E4E4E7" stroke-width="1"/><text x="126" y="634" font-family="Noto Sans KR" font-size="10" font-weight="400" fill="#71717A" text-anchor="end">0</text><line x1="136.0" y1="732.0" x2="1164.0" y2="732.0" stroke="#E4E4E7" stroke-width="1"/><text x="126" y="736" font-family="Noto Sans KR" font-size="10" font-weight="400" fill="#71717A" text-anchor="end">−2M</text><rect x="190.0" y="597.6" width="28.0" height="32.4" rx="2" fill="#27272A" stroke="none"/><rect x="224.0" y="630.0" width="28.0" height="21.6" rx="2" fill="#E4E4E7" stroke="none"/><text x="220" y="754" font-family="Noto Sans KR" font-size="10" font-weight="400" fill="#71717A" text-anchor="middle">09/01</text><rect x="328.0" y="572.4" width="28.0" height="57.6" rx="2" fill="#27272A" stroke="none"/><rect x="362.0" y="630.0" width="28.0" height="36.0" rx="2" fill="#E4E4E7" stroke="none"/><text x="358" y="754" font-family="Noto Sans KR" font-size="10" font-weight="400" fill="#71717A" text-anchor="middle">09/02</text><rect x="466.0" y="583.2" width="28.0" height="46.8" rx="2" fill="#27272A" stroke="none"/><rect x="500.0" y="630.0" width="28.0" height="25.2" rx="2" fill="#E4E4E7" stroke="none"/><text x="496" y="754" font-family="Noto Sans KR" font-size="10" font-weight="400" fill="#71717A" text-anchor="middle">09/03</text><rect x="604.0" y="558.0" width="28.0" height="72.0" rx="2" fill="#27272A" stroke="none"/><rect x="638.0" y="630.0" width="28.0" height="54.0" rx="2" fill="#E4E4E7" stroke="none"/><text x="634" y="754" font-family="Noto Sans KR" font-size="10" font-weight="400" fill="#71717A" text-anchor="middle">09/04</text><rect x="742.0" y="578.2" width="28.0" height="51.8" rx="2" fill="#27272A" stroke="none"/><rect x="776.0" y="630.0" width="28.0" height="32.4" rx="2" fill="#E4E4E7" stroke="none"/><text x="772" y="754" font-family="Noto Sans KR" font-size="10" font-weight="400" fill="#71717A" text-anchor="middle">09/05</text><rect x="880.0" y="547.2" width="28.0" height="82.8" rx="2" fill="#27272A" stroke="none"/><rect x="914.0" y="630.0" width="28.0" height="64.8" rx="2" fill="#E4E4E7" stroke="none"/><text x="910" y="754" font-family="Noto Sans KR" font-size="10" font-weight="400" fill="#71717A" text-anchor="middle">09/06</text><rect x="1018.0" y="586.8" width="28.0" height="43.2" rx="2" fill="#27272A" stroke="none"/><rect x="1052.0" y="630.0" width="28.0" height="30.2" rx="2" fill="#E4E4E7" stroke="none"/><text x="1048" y="754" font-family="Noto Sans KR" font-size="10" font-weight="400" fill="#71717A" text-anchor="middle">09/07</text><g id="Card · evidence facts · no duplicate actions"><rect x="1204.0" y="414.0" width="692.0" height="300.0" rx="12" fill="#FFFFFF" stroke="#E4E4E7" stroke-width="1"/><text x="1220" y="446" font-family="Noto Sans KR" font-size="16" font-weight="500" fill="#18181B" text-anchor="start">판정 근거 요약</text><text x="1220" y="470" font-family="Noto Sans KR" font-size="14" font-weight="400" fill="#71717A" text-anchor="start">Alert 생성에 사용한 값</text></g><text x="1222" y="520" font-family="Noto Sans KR" font-size="12" font-weight="500" fill="#71717A" text-anchor="start">수신 계좌</text><text x="1394" y="520" font-family="Noto Sans KR" font-size="13" font-weight="600" fill="#18181B" text-anchor="start">16 / 기준 5</text><line x1="1222.0" y1="536.0" x2="1878.0" y2="536.0" stroke="#E4E4E7" stroke-width="1"/><text x="1222" y="574" font-family="Noto Sans KR" font-size="12" font-weight="500" fill="#71717A" text-anchor="start">은행 분산</text><text x="1394" y="574" font-family="Noto Sans KR" font-size="13" font-weight="600" fill="#18181B" text-anchor="start">12 / 기준 4</text><line x1="1222.0" y1="590.0" x2="1878.0" y2="590.0" stroke="#E4E4E7" stroke-width="1"/><text x="1222" y="628" font-family="Noto Sans KR" font-size="12" font-weight="500" fill="#71717A" text-anchor="start">신규 상대방</text><text x="1394" y="628" font-family="Noto Sans KR" font-size="13" font-weight="600" fill="#18181B" text-anchor="start">9 / 기준 3</text><line x1="1222.0" y1="644.0" x2="1878.0" y2="644.0" stroke="#E4E4E7" stroke-width="1"/><text x="1222" y="682" font-family="Noto Sans KR" font-size="12" font-weight="500" fill="#71717A" text-anchor="start">탐지 기간</text><text x="1394" y="682" font-family="Noto Sans KR" font-size="13" font-weight="600" fill="#18181B" text-anchor="start">96시간</text><line x1="1222.0" y1="698.0" x2="1878.0" y2="698.0" stroke="#E4E4E7" stroke-width="1"/><g id="Data table · evidence"><rect x="72.0" y="730.0" width="1824.0" height="246.0" rx="12" fill="#FFFFFF" stroke="#E4E4E7" stroke-width="1"/><text x="88" y="762" font-family="Noto Sans KR" font-size="16" font-weight="500" fill="#18181B" text-anchor="start">근거 항목</text><text x="88" y="786" font-family="Noto Sans KR" font-size="14" font-weight="400" fill="#71717A" text-anchor="start">관측값 · 기준값 · 차이 · 산정 기간</text></g><g id="Data Table"><rect x="88.0" y="812.0" width="1792.0" height="148.0" rx="8" fill="#FFFFFF" stroke="#E4E4E7" stroke-width="1"/><g id="TableHeader / TableRow"><line x1="88.0" y1="852.0" x2="1880.0" y2="852.0" stroke="#E4E4E7" stroke-width="1"/><g id="TableHead · 요인"><text x="96" y="837" font-family="Noto Sans KR" font-size="14" font-weight="500" fill="#18181B" text-anchor="start">요인</text><g id="Icon · lucide/arrow-up-down"><polyline fill="none" stroke="#A1A1AA" stroke-width="1.5" stroke-linecap="round" stroke-linejoin="round" points="133.0,836.4 133.0,827.6"/><polyline fill="none" stroke="#A1A1AA" stroke-width="1.5" stroke-linecap="round" stroke-linejoin="round" points="130.3,830.2 133.0,827.6 135.6,830.2"/><polyline fill="none" stroke="#A1A1AA" stroke-width="1.5" stroke-linecap="round" stroke-linejoin="round" points="138.2,827.6 138.2,836.4"/><polyline fill="none" stroke="#A1A1AA" stroke-width="1.5" stroke-linecap="round" stroke-linejoin="round" points="135.6,833.8 138.2,836.4 140.8,833.8"/></g></g><g id="TableHead · 관측값"><text x="521" y="837" font-family="Noto Sans KR" font-size="14" font-weight="500" fill="#18181B" text-anchor="start">관측값</text><g id="Icon · lucide/arrow-up-down"><polyline fill="none" stroke="#A1A1AA" stroke-width="1.5" stroke-linecap="round" stroke-linejoin="round" points="571.5,836.4 571.5,827.6"/><polyline fill="none" stroke="#A1A1AA" stroke-width="1.5" stroke-linecap="round" stroke-linejoin="round" points="568.9,830.2 571.5,827.6 574.1,830.2"/><polyline fill="none" stroke="#A1A1AA" stroke-width="1.5" stroke-linecap="round" stroke-linejoin="round" points="576.7,827.6 576.7,836.4"/><polyline fill="none" stroke="#A1A1AA" stroke-width="1.5" stroke-linecap="round" stroke-linejoin="round" points="574.1,833.8 576.7,836.4 579.4,833.8"/></g></g><g id="TableHead · 기준값"><text x="764" y="837" font-family="Noto Sans KR" font-size="14" font-weight="500" fill="#18181B" text-anchor="start">기준값</text><g id="Icon · lucide/arrow-up-down"><polyline fill="none" stroke="#A1A1AA" stroke-width="1.5" stroke-linecap="round" stroke-linejoin="round" points="814.5,836.4 814.5,827.6"/><polyline fill="none" stroke="#A1A1AA" stroke-width="1.5" stroke-linecap="round" stroke-linejoin="round" points="811.9,830.2 814.5,827.6 817.1,830.2"/><polyline fill="none" stroke="#A1A1AA" stroke-width="1.5" stroke-linecap="round" stroke-linejoin="round" points="819.7,827.6 819.7,836.4"/><polyline fill="none" stroke="#A1A1AA" stroke-width="1.5" stroke-linecap="round" stroke-linejoin="round" points="817.1,833.8 819.7,836.4 822.4,833.8"/></g></g><g id="TableHead · 차이"><text x="1007" y="837" font-family="Noto Sans KR" font-size="14" font-weight="500" fill="#18181B" text-anchor="start">차이</text><g id="Icon · lucide/arrow-up-down"><polyline fill="none" stroke="#A1A1AA" stroke-width="1.5" stroke-linecap="round" stroke-linejoin="round" points="1044.2,836.4 1044.2,827.6"/><polyline fill="none" stroke="#A1A1AA" stroke-width="1.5" stroke-linecap="round" stroke-linejoin="round" points="1041.5,830.2 1044.2,827.6 1046.8,830.2"/><polyline fill="none" stroke="#A1A1AA" stroke-width="1.5" stroke-linecap="round" stroke-linejoin="round" points="1049.4,827.6 1049.4,836.4"/><polyline fill="none" stroke="#A1A1AA" stroke-width="1.5" stroke-linecap="round" stroke-linejoin="round" points="1046.8,833.8 1049.4,836.4 1052.0,833.8"/></g></g><g id="TableHead · 산정 기간"><text x="1220" y="837" font-family="Noto Sans KR" font-size="14" font-weight="500" fill="#18181B" text-anchor="start">산정 기간</text><g id="Icon · lucide/arrow-up-down"><polyline fill="none" stroke="#A1A1AA" stroke-width="1.5" stroke-linecap="round" stroke-linejoin="round" points="1287.9,836.4 1287.9,827.6"/><polyline fill="none" stroke="#A1A1AA" stroke-width="1.5" stroke-linecap="round" stroke-linejoin="round" points="1285.2,830.2 1287.9,827.6 1290.5,830.2"/><polyline fill="none" stroke="#A1A1AA" stroke-width="1.5" stroke-linecap="round" stroke-linejoin="round" points="1293.1,827.6 1293.1,836.4"/><polyline fill="none" stroke="#A1A1AA" stroke-width="1.5" stroke-linecap="round" stroke-linejoin="round" points="1290.5,833.8 1293.1,836.4 1295.7,833.8"/></g></g><g id="TableHead · 출처"><text x="1524" y="837" font-family="Noto Sans KR" font-size="14" font-weight="500" fill="#18181B" text-anchor="start">출처</text><g id="Icon · lucide/arrow-up-down"><polyline fill="none" stroke="#A1A1AA" stroke-width="1.5" stroke-linecap="round" stroke-linejoin="round" points="1560.5,836.4 1560.5,827.6"/><polyline fill="none" stroke="#A1A1AA" stroke-width="1.5" stroke-linecap="round" stroke-linejoin="round" points="1557.9,830.2 1560.5,827.6 1563.1,830.2"/><polyline fill="none" stroke="#A1A1AA" stroke-width="1.5" stroke-linecap="round" stroke-linejoin="round" points="1565.8,827.6 1565.8,836.4"/><polyline fill="none" stroke="#A1A1AA" stroke-width="1.5" stroke-linecap="round" stroke-linejoin="round" points="1563.1,833.8 1565.8,836.4 1568.4,833.8"/></g></g></g><g id="TableBody"><g id="TableRow"><line x1="88.0" y1="888.0" x2="1880.0" y2="888.0" stroke="#E4E4E7" stroke-width="1"/><text x="96" y="875" font-family="Noto Sans KR" font-size="14" font-weight="400" fill="#18181B" text-anchor="start">수신 계좌</text><text x="521" y="875" font-family="Noto Sans KR" font-size="14" font-weight="400" fill="#18181B" text-anchor="start">16</text><text x="764" y="875" font-family="Noto Sans KR" font-size="14" font-weight="400" fill="#18181B" text-anchor="start">5</text><text x="1007" y="875" font-family="Noto Sans KR" font-size="14" font-weight="400" fill="#18181B" text-anchor="start">+11</text><text x="1220" y="875" font-family="Noto Sans KR" font-size="14" font-weight="400" fill="#18181B" text-anchor="start">96h</text><text x="1524" y="875" font-family="Noto Sans KR" font-size="14" font-weight="400" fill="#18181B" text-anchor="start">rule v7</text></g><g id="TableRow"><line x1="88.0" y1="924.0" x2="1880.0" y2="924.0" stroke="#E4E4E7" stroke-width="1"/><text x="96" y="911" font-family="Noto Sans KR" font-size="14" font-weight="400" fill="#18181B" text-anchor="start">은행 분산</text><text x="521" y="911" font-family="Noto Sans KR" font-size="14" font-weight="400" fill="#18181B" text-anchor="start">12</text><text x="764" y="911" font-family="Noto Sans KR" font-size="14" font-weight="400" fill="#18181B" text-anchor="start">4</text><text x="1007" y="911" font-family="Noto Sans KR" font-size="14" font-weight="400" fill="#18181B" text-anchor="start">+8</text><text x="1220" y="911" font-family="Noto Sans KR" font-size="14" font-weight="400" fill="#18181B" text-anchor="start">96h</text><text x="1524" y="911" font-family="Noto Sans KR" font-size="14" font-weight="400" fill="#18181B" text-anchor="start">batch 240904</text></g><g id="TableRow"><text x="96" y="947" font-family="Noto Sans KR" font-size="14" font-weight="400" fill="#18181B" text-anchor="start">신규 상대방</text><text x="521" y="947" font-family="Noto Sans KR" font-size="14" font-weight="400" fill="#18181B" text-anchor="start">9</text><text x="764" y="947" font-family="Noto Sans KR" font-size="14" font-weight="400" fill="#18181B" text-anchor="start">3</text><text x="1007" y="947" font-family="Noto Sans KR" font-size="14" font-weight="400" fill="#18181B" text-anchor="start">+6</text><text x="1220" y="947" font-family="Noto Sans KR" font-size="14" font-weight="400" fill="#18181B" text-anchor="start">30일</text><text x="1524" y="947" font-family="Noto Sans KR" font-size="14" font-weight="400" fill="#18181B" text-anchor="start">model v3</text></g></g></g><rect id="DialogOverlay" x="0.0" y="0.0" width="1920.0" height="1080.0" rx="0" fill="#000000" fill-opacity="0.35" stroke="none"/><g id="Dialog · Episode investigation · visible state=existing · initial route unselected"><rect x="600.0" y="190.0" width="720.0" height="700.0" rx="10" fill="#FFFFFF" stroke="#E4E4E7" stroke-width="1"/><text x="622" y="228" font-family="Noto Sans KR" font-size="20" font-weight="600" fill="#18181B" text-anchor="start">Episode로 조사</text><g id="Button · variant=ghost · size=sm · x"><g id="Icon · lucide/x"><line x1="1286.0" y1="212.0" x2="1294.0" y2="220.0" stroke="#18181B" stroke-width="1.5" stroke-linecap="round"/><line x1="1294.0" y1="212.0" x2="1286.0" y2="220.0" stroke="#18181B" stroke-width="1.5" stroke-linecap="round"/></g></g><text x="622" y="254" font-family="Noto Sans KR" font-size="13" font-weight="400" fill="#71717A" text-anchor="start">연결 방식을 선택해야 다음 단계로 진행할 수 있음</text><rect x="622.0" y="278.0" width="676.0" height="52.0" rx="7" fill="#FFFFFF" stroke="#E4E4E7" stroke-width="1"/><g id="Radio Group Item · checked=false"><circle cx="646.0" cy="304.0" r="7.5" fill="#FFFFFF" stroke="#D4D4D8"/></g><text x="666" y="309" font-family="Noto Sans KR" font-size="14" font-weight="600" fill="#18181B" text-anchor="start">기존 Episode 연결</text><rect x="622.0" y="340.0" width="676.0" height="52.0" rx="7" fill="#FFFFFF" stroke="#E4E4E7" stroke-width="1"/><g id="Radio Group Item · checked=false"><circle cx="646.0" cy="366.0" r="7.5" fill="#FFFFFF" stroke="#D4D4D8"/></g><text x="666" y="371" font-family="Noto Sans KR" font-size="14" font-weight="600" fill="#18181B" text-anchor="start">신규 Episode 생성</text><g id="Input"><rect x="622.0" y="420.0" width="676.0" height="32.0" rx="8" fill="#FFFFFF" stroke="#D4D4D8" stroke-width="1"/><g id="Icon · lucide/search"><circle cx="639.0" cy="435.0" r="5.0" fill="none" stroke="#71717A" stroke-width="1.5"/><polyline fill="none" stroke="#71717A" stroke-width="1.5" stroke-linecap="round" stroke-linejoin="round" points="643.0,439.0 646.5,442.5"/></g><text x="656" y="441" font-family="Noto Sans KR" font-size="14" font-weight="400" fill="#71717A" text-anchor="start">Episode ID · 계좌 · 은행 검색</text></g><text x="622" y="478" font-family="Noto Sans KR" font-size="12" font-weight="400" fill="#71717A" text-anchor="start">방식을 선택하면 검색 결과를 표시</text><rect x="622.0" y="502.0" width="676.0" height="106.0" rx="7" fill="#F4F4F5" stroke="#E4E4E7" stroke-width="1"/><text x="638" y="536" font-family="Noto Sans KR" font-size="14" font-weight="600" fill="#18181B" text-anchor="start">선택 전 상태</text><text x="638" y="563" font-family="Noto Sans KR" font-size="12" font-weight="400" fill="#71717A" text-anchor="start">임의 Episode를 미리 선택하지 않음</text><text x="622" y="642" font-family="Noto Sans KR" font-size="13" font-weight="500" fill="#18181B" text-anchor="start">요청 사유 · 필수</text><g id="Textarea"><rect x="622.0" y="656.0" width="676.0" height="116.0" rx="8" fill="#FFFFFF" stroke="#D4D4D8" stroke-width="1"/><text x="632" y="678" font-family="Noto Sans KR" font-size="14" font-weight="400" fill="#71717A" text-anchor="start">최종 문구 사용자 작성</text></g><text x="622" y="790" font-family="Noto Sans KR" font-size="12" font-weight="400" fill="#71717A" text-anchor="start">연결 방식과 요청 사유가 모두 있어야 실행 가능</text><rect x="601.0" y="826.0" width="718.0" height="64.0" rx="0" fill="#FAFAFA" stroke="none"/><line x1="600.0" y1="826.0" x2="1320.0" y2="826.0" stroke="#E4E4E7" stroke-width="1"/><g id="Button · variant=outline · size=default · 취소"><rect x="620.0" y="842.0" width="332.0" height="32.0" rx="8" fill="#FFFFFF" stroke="#D4D4D8" stroke-width="1"/><text x="773" y="863" font-family="Noto Sans KR" font-size="14" font-weight="500" fill="#18181B" text-anchor="start">취소</text></g><g id="Button · action · disabled=True"><rect x="968.0" y="842.0" width="332.0" height="32.0" rx="8" fill="#F4F4F5" stroke="#F4F4F5" stroke-width="1"/><text x="1071" y="863" font-family="Noto Sans KR" font-size="14" font-weight="500" fill="#18181B" text-anchor="start">기존 Episode에 연결</text></g></g></svg>