<svg id="Wireframe v8 / Episode detail / 결론" xmlns="http://www.w3.org/2000/svg" width="1920" height="1080" viewBox="0 0 1920 1080"><rect id="Background" x="0.0" y="0.0" width="1920.0" height="1080.0" rx="0" fill="#FFFFFF" stroke="none"/><g id="Sidebar · collapsible=icon · state=collapsed"><rect x="0.0" y="0.0" width="48.0" height="1080.0" rx="0" fill="#FAFAFA" stroke="none"/><line x1="48.0" y1="0.0" x2="48.0" y2="1080.0" stroke="#E4E4E7" stroke-width="1"/><g id="SidebarHeader · SidebarTrigger"><g id="SidebarTrigger · Button ghost icon"><g id="Icon · lucide/panel-left"><rect x="18.0" y="18.0" width="12.0" height="12.0" rx="2.0" fill="none" stroke="#18181B" stroke-width="1.5"/><line x1="22.0" y1="18.0" x2="22.0" y2="30.0" stroke="#18181B" stroke-width="1.5" stroke-linecap="round"/></g></g></g><g id="SidebarMenuButton · DASHBOARD"><g id="Icon · lucide/layout-dashboard"><rect x="18.0" y="66.0" width="5.0" height="5.0" rx="1.0" fill="none" stroke="#71717A" stroke-width="1.5"/><rect x="25.0" y="66.0" width="5.0" height="3.0" rx="1.0" fill="none" stroke="#71717A" stroke-width="1.5"/><rect x="18.0" y="73.0" width="5.0" height="5.0" rx="1.0" fill="none" stroke="#71717A" stroke-width="1.5"/><rect x="25.0" y="71.0" width="5.0" height="7.0" rx="1.0" fill="none" stroke="#71717A" stroke-width="1.5"/></g></g><g id="SidebarMenuButton · ALERTS"><g id="Icon · lucide/siren"><polyline points="20.0,111.0 20.0,108.0 21.0,104.0 24.0,102.0 27.0,104.0 28.0,108.0 28.0,111.0" fill="none" stroke="#71717A" stroke-width="1.5" stroke-linecap="round" stroke-linejoin="round"/><line x1="18.0" y1="113.0" x2="30.0" y2="113.0" stroke="#71717A" stroke-width="1.5" stroke-linecap="round"/><line x1="18.0" y1="106.0" x2="16.5" y2="105.0" stroke="#71717A" stroke-width="1.5" stroke-linecap="round"/><line x1="30.0" y1="106.0" x2="31.5" y2="105.0" stroke="#71717A" stroke-width="1.5" stroke-linecap="round"/></g></g><g id="SidebarMenuButton · EPISODES · isActive"><rect x="8.0" y="128.0" width="32.0" height="32.0" rx="6" fill="#E4E4E7" stroke="none"/><g id="Icon · lucide/folder-search"><polyline points="18.0,141.0 18.0,139.0 23.0,139.0 25.0,141.0 30.0,141.0 30.0,149.0 18.0,149.0 18.0,141.0" fill="none" stroke="#18181B" stroke-width="1.5" stroke-linecap="round" stroke-linejoin="round"/><circle cx="24.0" cy="145.0" r="2.3" fill="none" stroke="#18181B" stroke-width="1.5"/><line x1="25.7" y1="146.7" x2="27.5" y2="148.5" stroke="#18181B" stroke-width="1.5" stroke-linecap="round"/></g></g><g id="SidebarMenuButton · NOTIFICATIONS"><g id="Icon · lucide/bell"><polyline points="19.0,983.0 21.0,981.0 21.0,978.0 22.0,975.5 24.0,974.5 26.0,975.5 27.0,978.0 27.0,981.0 29.0,983.0 19.0,983.0" fill="none" stroke="#71717A" stroke-width="1.5" stroke-linecap="round" stroke-linejoin="round"/><polyline points="22.5,985.0 24.0,986.0 25.5,985.0" fill="none" stroke="#71717A" stroke-width="1.5" stroke-linecap="round" stroke-linejoin="round"/></g></g><g id="SidebarMenuButton · SETTINGS"><g id="Icon · lucide/settings"><circle cx="24.0" cy="1016.0" r="2.2" fill="none" stroke="#71717A" stroke-width="1.5"/><circle cx="24.0" cy="1016.0" r="5.5" fill="none" stroke="#71717A" stroke-width="1.5"/><line x1="24.0" y1="1008.5" x2="24.0" y2="1010.5" stroke="#71717A" stroke-width="1.5" stroke-linecap="round"/><line x1="24.0" y1="1021.5" x2="24.0" y2="1023.5" stroke="#71717A" stroke-width="1.5" stroke-linecap="round"/><line x1="16.5" y1="1016.0" x2="18.5" y2="1016.0" stroke="#71717A" stroke-width="1.5" stroke-linecap="round"/><line x1="29.5" y1="1016.0" x2="31.5" y2="1016.0" stroke="#71717A" stroke-width="1.5" stroke-linecap="round"/></g></g><g id="SidebarMenuButton · ACCOUNT"><g id="Icon · lucide/user"><circle cx="24.0" cy="1049.0" r="3.0" fill="none" stroke="#71717A" stroke-width="1.5"/><polyline points="18.5,1058.0 19.5,1055.0 22.0,1053.5 26.0,1053.5 28.5,1055.0 29.5,1058.0" fill="none" stroke="#71717A" stroke-width="1.5" stroke-linecap="round" stroke-linejoin="round"/></g></g></g><g id="Header · SidebarInset"><line x1="48.0" y1="48.0" x2="1920.0" y2="48.0" stroke="#E4E4E7" stroke-width="1"/><g id="Brand"><rect x="60.0" y="8.0" width="32.0" height="32.0" rx="8" fill="#27272A" stroke="none"/><g id="Icon · lucide/radar"><circle cx="76.0" cy="24.0" r="6.0" fill="none" stroke="#FFFFFF" stroke-width="1.5"/><circle cx="76.0" cy="24.0" r="3.0" fill="none" stroke="#FFFFFF" stroke-width="1.5"/><circle cx="76.0" cy="24.0" r="0.8" fill="none" stroke="#FFFFFF" stroke-width="1.5"/><line x1="76.0" y1="24.0" x2="81.0" y2="19.0" stroke="#FFFFFF" stroke-width="1.5" stroke-linecap="round"/><circle cx="80.0" cy="20.0" r="1.0" fill="none" stroke="#FFFFFF" stroke-width="1.5"/></g><text x="100" y="29" font-family="Noto Sans KR" font-size="14" font-weight="600" fill="#18181B" text-anchor="start">AML RADAR</text></g><g id="CommandDialogTrigger · GlobalSearch"><g id="Button/Input · CommandDialogTrigger"><rect x="700.0" y="8.0" width="520.0" height="32.0" rx="8" fill="#FFFFFF" stroke="#D4D4D8" stroke-width="1"/><g id="Icon · lucide/search"><circle cx="717.0" cy="23.0" r="5.0" fill="none" stroke="#71717A" stroke-width="1.5"/><polyline fill="none" stroke="#71717A" stroke-width="1.5" stroke-linecap="round" stroke-linejoin="round" points="721.0,27.0 724.5,30.5"/></g><text x="734" y="29" font-family="Noto Sans KR" font-size="14" font-weight="400" fill="#71717A" text-anchor="start">전역 검색</text></g><rect id="Kbd · Windows" x="1178.0" y="14.0" width="30.0" height="20.0" rx="5" fill="#F4F4F5" stroke="#E4E4E7" stroke-width="1"/><text x="1193" y="28" font-family="Noto Sans KR" font-size="11" font-weight="600" fill="#71717A" text-anchor="middle">/</text></g><g id="FullscreenControl · Fullscreen API + F11"><rect x="1812.0" y="8.0" width="84.0" height="32.0" rx="8" fill="#FFFFFF" stroke="#D4D4D8" stroke-width="1"/><g id="Icon · lucide/maximize"><polyline points="1822.0,22.0 1822.0,18.0 1826.0,18.0" fill="none" stroke="#18181B" stroke-width="1.5" stroke-linecap="round" stroke-linejoin="round"/><polyline points="1830.0,18.0 1834.0,18.0 1834.0,22.0" fill="none" stroke="#18181B" stroke-width="1.5" stroke-linecap="round" stroke-linejoin="round"/><polyline points="1834.0,26.0 1834.0,30.0 1830.0,30.0" fill="none" stroke="#18181B" stroke-width="1.5" stroke-linecap="round" stroke-linejoin="round"/><polyline points="1826.0,30.0 1822.0,30.0 1822.0,26.0" fill="none" stroke="#18181B" stroke-width="1.5" stroke-linecap="round" stroke-linejoin="round"/></g><rect x="1846.0" y="14.0" width="38.0" height="20.0" rx="5" fill="#F4F4F5" stroke="#E4E4E7" stroke-width="1"/><text x="1865" y="28" font-family="Noto Sans KR" font-size="11" font-weight="500" fill="#71717A" text-anchor="middle">F11</text></g><g id="NavUser · separate role account"><text x="1796" y="29" font-family="Noto Sans KR" font-size="14" font-weight="500" fill="#18181B" text-anchor="end">안분석</text><g id="Avatar"><circle cx="1734.1" cy="24.0" r="14.0" fill="#E4E4E7"/><text x="1734" y="28" font-family="Noto Sans KR" font-size="12" font-weight="500" fill="#18181B" text-anchor="middle">안</text></g></g><g id="Badge · Role=L2"><rect x="1675.2" y="14.0" width="30.9" height="20.0" rx="10" fill="#FFFFFF" stroke="#D4D4D8" stroke-width="1"/><text x="1683" y="28" font-family="Noto Sans KR" font-size="12" font-weight="500" fill="#18181B" text-anchor="start">L2</text></g><text x="1667" y="29" font-family="Noto Sans KR" font-size="14" font-weight="400" fill="#71717A" text-anchor="end">역할</text><g id="Badge · TaskCount"><rect x="1595.8" y="14.0" width="23.4" height="20.0" rx="10" fill="#27272A" stroke="#27272A" stroke-width="1"/><text x="1604" y="28" font-family="Noto Sans KR" font-size="12" font-weight="500" fill="#FFFFFF" text-anchor="start">4</text></g><text x="1588" y="29" font-family="Noto Sans KR" font-size="14" font-weight="400" fill="#71717A" text-anchor="end">내 할 일</text></g><text x="72" y="91" font-family="Noto Sans KR" font-size="12" font-weight="500" fill="#71717A" text-anchor="start">EPISODES  ›  EP-000012</text><text x="72" y="130" font-family="Noto Sans KR" font-size="27" font-weight="700" fill="#18181B" text-anchor="start">EP-000012</text><text x="72" y="158" font-family="Noto Sans KR" font-size="13" font-weight="400" fill="#71717A" text-anchor="start">조사 중 · 마지막 활동 09-04 09:26</text><g id="Badge · variant=default · 위험도 91"><rect x="324.0" y="137.0" width="65.3" height="20.0" rx="10" fill="#27272A" stroke="#27272A" stroke-width="1"/><text x="332" y="151" font-family="Noto Sans KR" font-size="12" font-weight="500" fill="#FFFFFF" text-anchor="start">위험도 91</text></g><g id="Badge · variant=outline · 담당 안분석"><rect x="408.0" y="137.0" width="76.8" height="20.0" rx="10" fill="#FFFFFF" stroke="#D4D4D8" stroke-width="1"/><text x="416" y="151" font-family="Noto Sans KR" font-size="12" font-weight="500" fill="#18181B" text-anchor="start">담당 안분석</text></g><g id="Tabs · variant=line"><text x="99" y="209" font-family="Noto Sans KR" font-size="13" font-weight="400" fill="#71717A" text-anchor="middle">개요</text><text x="176" y="209" font-family="Noto Sans KR" font-size="13" font-weight="400" fill="#71717A" text-anchor="middle">자금 흐름</text><text x="268" y="209" font-family="Noto Sans KR" font-size="13" font-weight="400" fill="#71717A" text-anchor="middle">패턴 증거</text><text x="403" y="209" font-family="Noto Sans KR" font-size="13" font-weight="400" fill="#71717A" text-anchor="middle">상대방 · 관련 계좌 · 이력</text><text x="523" y="209" font-family="Noto Sans KR" font-size="13" font-weight="600" fill="#18181B" text-anchor="middle">결론</text><rect x="496.1" y="226.0" width="54.7" height="3.0" rx="0" fill="#27272A" stroke="none"/><line x1="72.0" y1="229.0" x2="1896.0" y2="229.0" stroke="#E4E4E7" stroke-width="1"/></g><text x="72" y="262" font-family="Noto Sans KR" font-size="13" font-weight="600" fill="#18181B" text-anchor="start">주체·상대</text><g id="Input"><rect x="72.0" y="271.0" width="904.0" height="32.0" rx="8" fill="#FFFFFF" stroke="#D4D4D8" stroke-width="1"/><text x="82" y="292" font-family="Noto Sans KR" font-size="14" font-weight="400" fill="#71717A" text-anchor="start">조사 메모</text></g><text x="992" y="262" font-family="Noto Sans KR" font-size="13" font-weight="600" fill="#18181B" text-anchor="start">행위</text><g id="Input"><rect x="992.0" y="271.0" width="904.0" height="32.0" rx="8" fill="#FFFFFF" stroke="#D4D4D8" stroke-width="1"/><text x="1002" y="292" font-family="Noto Sans KR" font-size="14" font-weight="400" fill="#71717A" text-anchor="start">조사 메모</text></g><text x="72" y="332" font-family="Noto Sans KR" font-size="13" font-weight="600" fill="#18181B" text-anchor="start">기간</text><g id="Input"><rect x="72.0" y="341.0" width="904.0" height="32.0" rx="8" fill="#FFFFFF" stroke="#D4D4D8" stroke-width="1"/><text x="82" y="362" font-family="Noto Sans KR" font-size="14" font-weight="400" fill="#71717A" text-anchor="start">조사 메모</text></g><text x="992" y="332" font-family="Noto Sans KR" font-size="13" font-weight="600" fill="#18181B" text-anchor="start">기관·국가</text><g id="Input"><rect x="992.0" y="341.0" width="904.0" height="32.0" rx="8" fill="#FFFFFF" stroke="#D4D4D8" stroke-width="1"/><text x="1002" y="362" font-family="Noto Sans KR" font-size="14" font-weight="400" fill="#71717A" text-anchor="start">조사 메모</text></g><text x="72" y="402" font-family="Noto Sans KR" font-size="13" font-weight="600" fill="#18181B" text-anchor="start">설명·근거</text><g id="Input"><rect x="72.0" y="411.0" width="904.0" height="32.0" rx="8" fill="#FFFFFF" stroke="#D4D4D8" stroke-width="1"/><text x="82" y="432" font-family="Noto Sans KR" font-size="14" font-weight="400" fill="#71717A" text-anchor="start">조사 메모</text></g><text x="992" y="402" font-family="Noto Sans KR" font-size="13" font-weight="600" fill="#18181B" text-anchor="start">수법</text><g id="Input"><rect x="992.0" y="411.0" width="904.0" height="32.0" rx="8" fill="#FFFFFF" stroke="#D4D4D8" stroke-width="1"/><text x="1002" y="432" font-family="Noto Sans KR" font-size="14" font-weight="400" fill="#71717A" text-anchor="start">조사 메모</text></g><text x="72" y="481" font-family="Noto Sans KR" font-size="13" font-weight="600" fill="#18181B" text-anchor="start">미확인 항목</text><g id="Textarea"><rect x="72.0" y="491.0" width="1824.0" height="80.0" rx="8" fill="#FFFFFF" stroke="#D4D4D8" stroke-width="1"/><text x="82" y="513" font-family="Noto Sans KR" font-size="14" font-weight="400" fill="#71717A" text-anchor="start">후속 조치 또는 예외 사유</text></g><text x="72" y="599" font-family="Noto Sans KR" font-size="13" font-weight="600" fill="#18181B" text-anchor="start">최종 판단 · 필수</text><g id="Radio Group Item · checked=false"><circle cx="80" cy="623" r="7.5" fill="#FFFFFF" stroke="#D4D4D8"/><text x="96" y="628" font-family="Noto Sans KR" font-size="14" font-weight="400" fill="#18181B" text-anchor="start">정상</text></g><g id="Radio Group Item · checked=true"><circle cx="230" cy="623" r="7.5" fill="#FFFFFF" stroke="#18181B"/><circle cx="230" cy="623" r="4" fill="#18181B"/><text x="246" y="628" font-family="Noto Sans KR" font-size="14" font-weight="400" fill="#18181B" text-anchor="start">의심</text></g><text x="72" y="673" font-family="Noto Sans KR" font-size="13" font-weight="600" fill="#18181B" text-anchor="start">결론 서술 · 필수</text><g id="Textarea"><rect x="72.0" y="685.0" width="1824.0" height="190.0" rx="8" fill="#FFFFFF" stroke="#D4D4D8" stroke-width="1"/><text x="82" y="707" font-family="Noto Sans KR" font-size="14" font-weight="400" fill="#71717A" text-anchor="start">최종 문구를 작성</text></g><text x="72" y="915" font-family="Noto Sans KR" font-size="12" font-weight="400" fill="#71717A" text-anchor="start">저장 version 7 · 09-04 09:26 · 안분석</text><g id="Button · variant=default · size=default · 종결 확인"><rect x="1818.3" y="895.0" width="77.7" height="32.0" rx="8" fill="#27272A" stroke="#27272A" stroke-width="1"/><text x="1828" y="916" font-family="Noto Sans KR" font-size="14" font-weight="500" fill="#FFFFFF" text-anchor="start">종결 확인</text></g><g id="Button · variant=secondary · size=default · 임시 저장"><rect x="1702.3" y="895.0" width="77.7" height="32.0" rx="8" fill="#F4F4F5" stroke="#F4F4F5" stroke-width="1"/><text x="1712" y="916" font-family="Noto Sans KR" font-size="14" font-weight="500" fill="#18181B" text-anchor="start">임시 저장</text></g><g id="Button · variant=outline · size=default · 저장본 목록"><rect x="1581.0" y="895.0" width="91.0" height="32.0" rx="8" fill="#FFFFFF" stroke="#D4D4D8" stroke-width="1"/><text x="1591" y="916" font-family="Noto Sans KR" font-size="14" font-weight="500" fill="#18181B" text-anchor="start">저장본 목록</text></g><g id="Annotation · manual draft save guaranteed · autosave optional after backend agreement · no separate autosave button"></g></svg>