<svg id="Wireframe v10 / Alert detail history" xmlns="http://www.w3.org/2000/svg" width="1920" height="1080" viewBox="0 0 1920 1080"><rect id="Background · dark" x="0.0" y="0.0" width="1920.0" height="1080.0" rx="0" fill="#09090B" stroke="none"/><g id="Sidebar · collapsible=icon · state=collapsed"><rect x="0.0" y="0.0" width="48.0" height="1080.0" rx="0" fill="#18181B" stroke="none"/><line x1="48.0" y1="0.0" x2="48.0" y2="1080.0" stroke="#27272A" stroke-width="1"/><g id="SidebarTrigger"><g id="Icon · lucide/panel-left"><rect x="18.0" y="18.0" width="12.0" height="12.0" rx="2.0" fill="none" stroke="#FAFAFA" stroke-width="1.5"/><line x1="22.0" y1="18.0" x2="22.0" y2="30.0" stroke="#FAFAFA" stroke-width="1.5" stroke-linecap="round"/></g></g><g id="Icon · lucide/layout-dashboard"><rect x="18.0" y="66.0" width="5.0" height="5.0" rx="1.0" fill="none" stroke="#A1A1AA" stroke-width="1.5"/><rect x="25.0" y="66.0" width="5.0" height="3.0" rx="1.0" fill="none" stroke="#A1A1AA" stroke-width="1.5"/><rect x="18.0" y="73.0" width="5.0" height="5.0" rx="1.0" fill="none" stroke="#A1A1AA" stroke-width="1.5"/><rect x="25.0" y="71.0" width="5.0" height="7.0" rx="1.0" fill="none" stroke="#A1A1AA" stroke-width="1.5"/></g><rect x="8.0" y="92.0" width="32.0" height="32.0" rx="6" fill="#27272A" stroke="none"/><g id="Icon · lucide/siren"><polyline points="20.0,111.0 20.0,108.0 21.0,104.0 24.0,102.0 27.0,104.0 28.0,108.0 28.0,111.0" fill="none" stroke="#FAFAFA" stroke-width="1.5" stroke-linecap="round" stroke-linejoin="round"/><line x1="18.0" y1="113.0" x2="30.0" y2="113.0" stroke="#FAFAFA" stroke-width="1.5" stroke-linecap="round"/><line x1="18.0" y1="106.0" x2="16.5" y2="105.0" stroke="#FAFAFA" stroke-width="1.5" stroke-linecap="round"/><line x1="30.0" y1="106.0" x2="31.5" y2="105.0" stroke="#FAFAFA" stroke-width="1.5" stroke-linecap="round"/></g><g id="Icon · lucide/folder-search"><polyline points="18.0,141.0 18.0,139.0 23.0,139.0 25.0,141.0 30.0,141.0 30.0,149.0 18.0,149.0 18.0,141.0" fill="none" stroke="#A1A1AA" stroke-width="1.5" stroke-linecap="round" stroke-linejoin="round"/><circle cx="24.0" cy="145.0" r="2.3" fill="none" stroke="#A1A1AA" stroke-width="1.5"/><line x1="25.7" y1="146.7" x2="27.5" y2="148.5" stroke="#A1A1AA" stroke-width="1.5" stroke-linecap="round"/></g><g id="Icon · lucide/bell"><polyline points="19.0,983.0 21.0,981.0 21.0,978.0 22.0,975.5 24.0,974.5 26.0,975.5 27.0,978.0 27.0,981.0 29.0,983.0 19.0,983.0" fill="none" stroke="#A1A1AA" stroke-width="1.5" stroke-linecap="round" stroke-linejoin="round"/><polyline points="22.5,985.0 24.0,986.0 25.5,985.0" fill="none" stroke="#A1A1AA" stroke-width="1.5" stroke-linecap="round" stroke-linejoin="round"/></g><g id="Icon · lucide/settings"><path id="GearTeeth" d="M22.7,1010.4 L23.2,1009.0 H24.8 L25.3,1010.4 L26.6,1010.9 L27.9,1010.3 L29.0,1011.4 L28.4,1012.7 L28.9,1014.0 L30.3,1014.5 V1017.5 L28.9,1018.0 L28.4,1019.3 L29.0,1020.6 L27.9,1021.7 L26.6,1021.1 L25.3,1021.6 L24.8,1023.0 H23.2 L22.7,1021.6 L21.4,1021.1 L20.1,1021.7 L19.0,1020.6 L19.6,1019.3 L19.1,1018.0 L17.7,1017.5 V1014.5 L19.1,1014.0 L19.6,1012.7 L19.0,1011.4 L20.1,1010.3 L21.4,1010.9 Z" fill="none" stroke="#A1A1AA" stroke-width="1.5" stroke-linecap="round" stroke-linejoin="round"/><circle cx="24.0" cy="1016.0" r="2.2" fill="none" stroke="#A1A1AA" stroke-width="1.5"/></g><g id="Icon · lucide/user"><circle cx="24.0" cy="1049.0" r="3.0" fill="none" stroke="#A1A1AA" stroke-width="1.5"/><polyline points="18.5,1058.0 19.5,1055.0 22.0,1053.5 26.0,1053.5 28.5,1055.0 29.5,1058.0" fill="none" stroke="#A1A1AA" stroke-width="1.5" stroke-linecap="round" stroke-linejoin="round"/></g></g><g id="Header · SidebarInset"><line x1="48.0" y1="48.0" x2="1920.0" y2="48.0" stroke="#27272A" stroke-width="1"/><rect x="60.0" y="8.0" width="32.0" height="32.0" rx="8" fill="#FAFAFA" stroke="none"/><g id="Icon · lucide/radar"><circle cx="76.0" cy="24.0" r="6.0" fill="none" stroke="#09090B" stroke-width="1.5"/><circle cx="76.0" cy="24.0" r="3.0" fill="none" stroke="#09090B" stroke-width="1.5"/><circle cx="76.0" cy="24.0" r="0.8" fill="none" stroke="#09090B" stroke-width="1.5"/><line x1="76.0" y1="24.0" x2="81.0" y2="19.0" stroke="#09090B" stroke-width="1.5" stroke-linecap="round"/><circle cx="80.0" cy="20.0" r="1.0" fill="none" stroke="#09090B" stroke-width="1.5"/></g><text x="100" y="29" font-family="Noto Sans KR" font-size="14" font-weight="600" fill="#FAFAFA" text-anchor="start">AML RADAR</text><g id="CommandDialogTrigger · GlobalSearch"><rect x="700.0" y="8.0" width="520.0" height="32.0" rx="8" fill="#09090B" stroke="#3F3F46" stroke-width="1"/><g id="Icon · lucide/search"><circle cx="717.0" cy="23.0" r="5.0" fill="none" stroke="#A1A1AA" stroke-width="1.5"/><line x1="720.8" y1="26.8" x2="724.5" y2="30.5" stroke="#A1A1AA" stroke-width="1.5" stroke-linecap="round"/></g><text x="734" y="29" font-family="Noto Sans KR" font-size="14" font-weight="400" fill="#A1A1AA" text-anchor="start">전역 검색</text></g><rect x="1178.0" y="14.0" width="30.0" height="20.0" rx="5" fill="#27272A" stroke="#27272A" stroke-width="1"/><text x="1193" y="28" font-family="Noto Sans KR" font-size="11" font-weight="600" fill="#A1A1AA" text-anchor="middle">/</text><rect x="1812.0" y="8.0" width="84.0" height="32.0" rx="8" fill="#09090B" stroke="#3F3F46" stroke-width="1"/><g id="Icon · lucide/maximize"><polyline points="1822.0,22.0 1822.0,18.0 1826.0,18.0" fill="none" stroke="#FAFAFA" stroke-width="1.5" stroke-linecap="round" stroke-linejoin="round"/><polyline points="1830.0,18.0 1834.0,18.0 1834.0,22.0" fill="none" stroke="#FAFAFA" stroke-width="1.5" stroke-linecap="round" stroke-linejoin="round"/><polyline points="1834.0,26.0 1834.0,30.0 1830.0,30.0" fill="none" stroke="#FAFAFA" stroke-width="1.5" stroke-linecap="round" stroke-linejoin="round"/><polyline points="1826.0,30.0 1822.0,30.0 1822.0,26.0" fill="none" stroke="#FAFAFA" stroke-width="1.5" stroke-linecap="round" stroke-linejoin="round"/></g><rect x="1846.0" y="14.0" width="38.0" height="20.0" rx="5" fill="#27272A" stroke="#27272A" stroke-width="1"/><text x="1865" y="28" font-family="Noto Sans KR" font-size="11" font-weight="500" fill="#A1A1AA" text-anchor="middle">F11</text><text x="1796" y="29" font-family="Noto Sans KR" font-size="14" font-weight="500" fill="#FAFAFA" text-anchor="end">오검토</text><g id="Avatar"><circle cx="1734.1" cy="24.0" r="14.0" fill="#27272A"/><text x="1734" y="28" font-family="Noto Sans KR" font-size="12" font-weight="500" fill="#FAFAFA" text-anchor="middle">오</text></g><g id="Badge · variant=outline · L1"><rect x="1678.8" y="14.0" width="27.3" height="20.0" rx="10" fill="#FFFFFF" stroke="#D4D4D8" stroke-width="1"/><text x="1687" y="28" font-family="Noto Sans KR" font-size="12" font-weight="500" fill="#18181B" text-anchor="start">L1</text></g><text x="1671" y="29" font-family="Noto Sans KR" font-size="14" font-weight="400" fill="#A1A1AA" text-anchor="end">역할</text><g id="Badge · variant=default · 53"><rect x="1591.9" y="14.0" width="30.9" height="20.0" rx="10" fill="#27272A" stroke="#27272A" stroke-width="1"/><text x="1600" y="28" font-family="Noto Sans KR" font-size="12" font-weight="500" fill="#FFFFFF" text-anchor="start">53</text></g><text x="1584" y="29" font-family="Noto Sans KR" font-size="14" font-weight="400" fill="#A1A1AA" text-anchor="end">내 할 일</text></g><g id="PageHeader"><g id="Breadcrumb"><text x="72" y="87" font-family="Noto Sans KR" font-size="14" font-weight="400" fill="#A1A1AA" text-anchor="start">ALERTS</text><g id="Icon · lucide/chevron-right"><polyline fill="none" stroke="#A1A1AA" stroke-width="1.5" stroke-linecap="round" stroke-linejoin="round" points="135.3,78.5 138.8,82.0 135.3,85.5"/></g><text x="150" y="87" font-family="Noto Sans KR" font-size="14" font-weight="400" fill="#FAFAFA" text-anchor="start">AL-000241</text></g><text x="72" y="128" font-family="Noto Sans KR" font-size="26" font-weight="600" fill="#FAFAFA" text-anchor="start">AL-000241</text><text x="72" y="160" font-family="Noto Sans KR" font-size="14" font-weight="400" fill="#A1A1AA" text-anchor="start">처리 및 변경 이력</text><g id="Badge · variant=outline · 미처리"><rect x="190.5" y="146.0" width="50.2" height="20.0" rx="10" fill="#FFFFFF" stroke="#D4D4D8" stroke-width="1"/><text x="199" y="160" font-family="Noto Sans KR" font-size="12" font-weight="500" fill="#18181B" text-anchor="start">미처리</text></g><g id="Button · variant=default · size=default · Episode로 조사"><rect x="1780.7" y="100.0" width="115.3" height="32.0" rx="8" fill="#FAFAFA" stroke="#FAFAFA" stroke-width="1"/><text x="1791" y="121" font-family="Noto Sans KR" font-size="14" font-weight="500" fill="#18181B" text-anchor="start">Episode로 조사</text></g><g id="Button · variant=outline · size=default · 오탐 종결"><rect x="1695.0" y="100.0" width="77.7" height="32.0" rx="8" fill="#09090B" stroke="#3F3F46" stroke-width="1"/><text x="1705" y="121" font-family="Noto Sans KR" font-size="14" font-weight="500" fill="#FAFAFA" text-anchor="start">오탐 종결</text></g><g id="Button · variant=outline · size=default · 정상 종결"><rect x="1609.3" y="100.0" width="77.7" height="32.0" rx="8" fill="#09090B" stroke="#3F3F46" stroke-width="1"/><text x="1619" y="121" font-family="Noto Sans KR" font-size="14" font-weight="500" fill="#FAFAFA" text-anchor="start">정상 종결</text></g><line x1="72.0" y1="180.0" x2="1896.0" y2="180.0" stroke="#27272A" stroke-width="1"/></g><g id="Tabs · canonical · Alert detail"><g id="Tab · active=false · 개요"><text x="115" y="207" font-family="Noto Sans KR" font-size="13" font-weight="400" fill="#A1A1AA" text-anchor="middle">개요</text></g><g id="Tab · active=false · 자금 흐름"><text x="206" y="207" font-family="Noto Sans KR" font-size="13" font-weight="400" fill="#A1A1AA" text-anchor="middle">자금 흐름</text></g><g id="Tab · active=false · 거래"><text x="297" y="207" font-family="Noto Sans KR" font-size="13" font-weight="400" fill="#A1A1AA" text-anchor="middle">거래</text></g><g id="Tab · active=true · 이력"><rect x="355.6" y="223.0" width="62.0" height="3.0" rx="1" fill="#FAFAFA" stroke="none"/><text x="387" y="207" font-family="Noto Sans KR" font-size="13" font-weight="600" fill="#FAFAFA" text-anchor="middle">이력</text></g></g><g id="Filters · History event type"><g id="Button · variant=secondary · size=default · 전체"><rect x="72.0" y="244.0" width="46.6" height="32.0" rx="8" fill="#27272A" stroke="#27272A" stroke-width="1"/><text x="82" y="265" font-family="Noto Sans KR" font-size="14" font-weight="500" fill="#FAFAFA" text-anchor="start">전체</text></g><g id="Button · variant=outline · size=default · 사용자 의견"><rect x="126.6" y="244.0" width="91.0" height="32.0" rx="8" fill="#09090B" stroke="#3F3F46" stroke-width="1"/><text x="137" y="265" font-family="Noto Sans KR" font-size="14" font-weight="500" fill="#FAFAFA" text-anchor="start">사용자 의견</text></g><g id="Button · variant=outline · size=default · 시스템 이벤트"><rect x="225.6" y="244.0" width="104.3" height="32.0" rx="8" fill="#09090B" stroke="#3F3F46" stroke-width="1"/><text x="236" y="265" font-family="Noto Sans KR" font-size="14" font-weight="500" fill="#FAFAFA" text-anchor="start">시스템 이벤트</text></g></g><text x="1896" y="266" font-family="Noto Sans KR" font-size="12" font-weight="400" fill="#A1A1AA" text-anchor="end">최신순</text><line x1="96.0" y1="306.0" x2="96.0" y2="970.0" stroke="#3F3F46" stroke-width="2"/><g id="Timeline · expanded · immutable"><circle cx="96" cy="306" r="6" fill="#FAFAFA"/><text x="118" y="311" font-family="Noto Sans KR" font-size="15" font-weight="600" fill="#FAFAFA" text-anchor="start">계좌번호 공개</text><g id="Badge · variant=outline · 안분석 · L2"><rect x="256.0" y="294.0" width="76.6" height="20.0" rx="10" fill="#FFFFFF" stroke="#D4D4D8" stroke-width="1"/><text x="264" y="308" font-family="Noto Sans KR" font-size="12" font-weight="500" fill="#18181B" text-anchor="start">안분석 · L2</text></g><text x="1872" y="311" font-family="Noto Sans KR" font-size="12" font-weight="400" fill="#A1A1AA" text-anchor="end">09/04 10:31</text><rect x="118.0" y="330.0" width="1754.0" height="106.0" rx="7" fill="#09090B" stroke="#27272A" stroke-width="1"/><text x="136" y="360" font-family="Noto Sans KR" font-size="12" font-weight="500" fill="#A1A1AA" text-anchor="start">변경</text><text x="246" y="360" font-family="Noto Sans KR" font-size="13" font-weight="500" fill="#FAFAFA" text-anchor="start">마스킹 계좌 → 공개</text><text x="136" y="390" font-family="Noto Sans KR" font-size="12" font-weight="500" fill="#A1A1AA" text-anchor="start">사유·의견</text><text x="246" y="390" font-family="Noto Sans KR" font-size="13" font-weight="400" fill="#FAFAFA" text-anchor="start">Episode 검토</text><circle cx="96" cy="472" r="6" fill="#FAFAFA"/><text x="118" y="477" font-family="Noto Sans KR" font-size="15" font-weight="600" fill="#FAFAFA" text-anchor="start">검토 시작</text><g id="Badge · variant=outline · 오검토 · L1"><rect x="256.0" y="460.0" width="73.0" height="20.0" rx="10" fill="#FFFFFF" stroke="#D4D4D8" stroke-width="1"/><text x="264" y="474" font-family="Noto Sans KR" font-size="12" font-weight="500" fill="#18181B" text-anchor="start">오검토 · L1</text></g><text x="1872" y="477" font-family="Noto Sans KR" font-size="12" font-weight="400" fill="#A1A1AA" text-anchor="end">09/04 09:12</text><rect x="118.0" y="496.0" width="1754.0" height="106.0" rx="7" fill="#09090B" stroke="#27272A" stroke-width="1"/><text x="136" y="526" font-family="Noto Sans KR" font-size="12" font-weight="500" fill="#A1A1AA" text-anchor="start">변경</text><text x="246" y="526" font-family="Noto Sans KR" font-size="13" font-weight="500" fill="#FAFAFA" text-anchor="start">미열람 → 검토 중</text><text x="136" y="556" font-family="Noto Sans KR" font-size="12" font-weight="500" fill="#A1A1AA" text-anchor="start">사유·의견</text><text x="246" y="556" font-family="Noto Sans KR" font-size="13" font-weight="400" fill="#FAFAFA" text-anchor="start">Alert 상세 열람</text><circle cx="96" cy="638" r="6" fill="#FAFAFA"/><text x="118" y="643" font-family="Noto Sans KR" font-size="15" font-weight="600" fill="#FAFAFA" text-anchor="start">자동 배정</text><g id="Badge · variant=outline · SYSTEM"><rect x="256.0" y="626.0" width="60.6" height="20.0" rx="10" fill="#FFFFFF" stroke="#D4D4D8" stroke-width="1"/><text x="264" y="640" font-family="Noto Sans KR" font-size="12" font-weight="500" fill="#18181B" text-anchor="start">SYSTEM</text></g><text x="1872" y="643" font-family="Noto Sans KR" font-size="12" font-weight="400" fill="#A1A1AA" text-anchor="end">09/04 09:02</text><rect x="118.0" y="662.0" width="1754.0" height="106.0" rx="7" fill="#09090B" stroke="#27272A" stroke-width="1"/><text x="136" y="692" font-family="Noto Sans KR" font-size="12" font-weight="500" fill="#A1A1AA" text-anchor="start">변경</text><text x="246" y="692" font-family="Noto Sans KR" font-size="13" font-weight="500" fill="#FAFAFA" text-anchor="start">미배정 → 오검토</text><text x="136" y="722" font-family="Noto Sans KR" font-size="12" font-weight="500" fill="#A1A1AA" text-anchor="start">사유·의견</text><text x="246" y="722" font-family="Noto Sans KR" font-size="13" font-weight="400" fill="#FAFAFA" text-anchor="start">업무 배정</text><circle cx="96" cy="804" r="6" fill="#FAFAFA"/><text x="118" y="809" font-family="Noto Sans KR" font-size="15" font-weight="600" fill="#FAFAFA" text-anchor="start">Alert 생성</text><g id="Badge · variant=outline · SYSTEM"><rect x="256.0" y="792.0" width="60.6" height="20.0" rx="10" fill="#FFFFFF" stroke="#D4D4D8" stroke-width="1"/><text x="264" y="806" font-family="Noto Sans KR" font-size="12" font-weight="500" fill="#18181B" text-anchor="start">SYSTEM</text></g><text x="1872" y="809" font-family="Noto Sans KR" font-size="12" font-weight="400" fill="#A1A1AA" text-anchor="end">09/04 06:12</text><rect x="118.0" y="828.0" width="1754.0" height="106.0" rx="7" fill="#09090B" stroke="#27272A" stroke-width="1"/><text x="136" y="858" font-family="Noto Sans KR" font-size="12" font-weight="500" fill="#A1A1AA" text-anchor="start">변경</text><text x="246" y="858" font-family="Noto Sans KR" font-size="13" font-weight="500" fill="#FAFAFA" text-anchor="start">없음 → 미처리</text><text x="136" y="888" font-family="Noto Sans KR" font-size="12" font-weight="500" fill="#A1A1AA" text-anchor="start">사유·의견</text><text x="246" y="888" font-family="Noto Sans KR" font-size="13" font-weight="400" fill="#FAFAFA" text-anchor="start">일일 분석</text></g></svg>